<?xml version="1.0" encoding="utf-8"?>
<!-- Generator: Adobe Illustrator 25.4.1, SVG Export Plug-In . SVG Version: 6.00 Build 0)  -->
<svg version="1.1" id="icon-project" xmlns="http://www.w3.org/2000/svg" xmlns:xlink="http://www.w3.org/1999/xlink" x="0px"
	 y="0px" width="337.3px" height="323.5px" viewBox="0 0 337.3 323.5" enable-background="new 0 0 337.3 323.5"
	 xml:space="preserve">
<path fill="#96BF0E" d="M171.2,108.5c28.9,0.1,52.3,23.6,52.1,52.3c-0.2,28.8-23.8,52-52.6,51.8c-28.6-0.2-51.8-23.5-51.9-52.1
	C118.7,131.7,142.3,108.4,171.2,108.5z"/>
<path fill="#96BF0F" d="M278.9,30.2c0,18.9-17.3,33.3-35.8,29.7c-2.7-0.5-3.7,0.6-4.9,2.6c-7.9,13.3-15.9,26.5-23.7,39.9
	c-1.4,2.3-2.3,2.6-4.4,1c-2.3-1.7-4.8-3.2-7.4-4.4c-2.6-1.2-2.9-2.2-1.4-4.7c8-13.1,15.7-26.4,23.6-39.5c1.5-2.4,1.4-3.9-0.4-6.1
	c-10.9-13.4-7.5-34.2,7-43.7c14.8-9.7,34.9-4.9,43.2,10.2C277.5,20,278.9,24.9,278.9,30.2z"/>
<path fill="#96BF0F" d="M29.1,177.2c10.1-0.3,18.5,3.4,24.9,11.3c1.5,1.9,2.7,2.2,4.9,1.4c13.4-4.6,27-9,40.3-13.7
	c3.3-1.2,4.4-0.4,4.9,2.8c0.2,1.6,0.9,3.1,1.4,4.6c2.2,6,2.2,6-4,8.1c-12.7,4.2-25.3,8.5-38,12.6c-2,0.7-2.8,1.5-2.9,3.8
	c-0.6,14.5-10,25.8-23.7,28.9c-13.4,3.1-27.3-3.5-33.7-16.3C-6.5,201.3,7,178.1,29.1,177.2z"/>
<path fill="#96BF0F" d="M231.8,293.6c-0.3,14.5-10.5,26.7-24.6,29.3c-14,2.6-28.6-5.2-33.8-18.2c-5.5-13.6-0.8-28.8,11.6-36.8
	c2.1-1.3,2.5-2.5,1.9-4.8c-2.5-10.3-4.7-20.6-7.2-30.9c-0.5-2.2-0.3-3.1,2.1-3.4c3.2-0.5,6.4-1.1,9.4-2.2c2.4-0.8,3-0.1,3.4,2.1
	c2.3,10.2,4.8,20.4,6.9,30.6c0.6,2.9,1.9,3.8,4.6,4.1C220.9,265.4,232.1,278.6,231.8,293.6z"/>
<path fill="#96BF0F" d="M337.3,173.6c0.1,14.6-11.3,28.2-25.2,30.1c-16.2,2.1-30.2-6.7-34.2-21.7c-0.7-2.8-2-3.7-4.8-3.9
	c-10.4-0.8-20.9-2-31.3-2.9c-2-0.2-2.8-0.6-2.4-2.9c0.6-3.4,0.9-6.9,1.1-10.4c0.1-1.8,0.7-2.3,2.5-2.1c10.2,1.1,20.4,2,30.5,3.2
	c3.3,0.4,5.2,0,6.9-3.5c6-12.1,20.6-18.5,33.2-15.2C327.7,147.9,337.2,159.6,337.3,173.6z"/>
<path fill="#96BF0F" d="M48.6,73.2c0.3-12.2,7.9-23.3,18.9-27.7c11.5-4.5,25.1-1.8,33.2,7c8.9,9.7,11.2,20.9,5.9,33.2
	c-0.9,2-0.6,3,0.9,4.4c5.4,5,10.7,10.1,16.1,15.1c1.8,1.7,2.3,2.7,0.1,4.6c-2.4,2.1-4.6,4.6-6.6,7.1c-1.3,1.6-2.1,1.5-3.5,0.1
	c-5.4-5.2-10.9-10.2-16.2-15.5c-1.7-1.6-2.9-1.9-5.1-0.8C72.2,111,48.1,95.7,48.6,73.2z"/>
</svg>
