<?xml version="1.0" encoding="utf-8"?>
<!DOCTYPE svg PUBLIC "-//W3C//DTD SVG 1.1//EN" "http://www.w3.org/Graphics/SVG/1.1/DTD/svg11.dtd" [
	<!ENTITY st0 "fill:#858585;">
	<!ENTITY st1 "fill:#96BF0D;">
	<!ENTITY st2 "fill:#DEDB00;">
]>
<svg version="1.1" id="citrus-logo" xmlns="http://www.w3.org/2000/svg" xmlns:xlink="http://www.w3.org/1999/xlink" x="0px"
	 y="0px" viewBox="0 0 300 106" style="enable-background:new 0 0 300 106;" xml:space="preserve">
<g id="text-gray">
	<path style="&st0;" d="M1.7,96.3h1.9V97c0,1.7,0.8,2.4,2.9,2.4H11c3.1,0,4.1-0.1,4.1-2.2v-0.1c0-1.3-0.3-2-2.8-2H5.8
		c-2.9,0-4-1-4-3.6v-0.8c0-2.2,1.1-3.5,6.3-3.5h3.2c4.7,0,5.3,1.5,5.3,3.4v0.7h-1.9v-0.1c0-2.1-1.3-2.1-3.5-2.1H7.5
		c-3,0-3.6,0.3-3.6,1.9v0.5c0,1.1,0.3,1.8,2.5,1.8h5.5c3.1,0,5.2,0.3,5.2,4.1v0.1c0,3.8-3.2,4-5.7,4H7.6c-3.1,0-5.9,0-5.9-4.1V96.3z
		"/>
	<path style="&st0;" d="M20.7,87.4h1.9v2.2h0c0.6-1.7,2.3-2.4,4.1-2.4h3.9c2.9,0,5.7,1,5.7,5.8v2.4c0,4.4-1.8,5.9-6,5.9h-4
		c-2.2,0-3.2-0.6-3.6-2h0v6.6h-2.1V87.4z M34.4,93c0-2.7-0.8-3.9-3.7-3.9h-4.1c-2.7,0-3.8,1.6-3.8,3.9v2.6c0,3.3,1.8,3.8,4,3.8h3.7
		c2.4,0,3.9-0.6,3.9-3.8V93z"/>
	<path style="&st0;" d="M39.4,92.7c0-5,3.1-5.5,6-5.5h3.3c3.7,0,6.4,1,6.4,5.9v1.5H41.4v0.9c0,3.1,1.4,3.9,5,3.9h2.8
		c2.6,0,3.7-0.4,3.8-2.5h2.1v0.3c0,3.1-2.3,4.1-6.2,4.1h-3.8c-2.7,0-5.8-0.6-5.8-5.6V92.7z M53.1,91.8c0-1.4-0.9-2.8-4.3-2.8h-3
		c-3.3,0-4.1,0.6-4.3,3.7h11.6V91.8z"/>
	<path style="&st0;" d="M58,92.7c0-5,3.1-5.5,6.2-5.5h3.5c3.9,0,5.4,1.7,5.4,4.6v0.4h-1.9v-0.3c0-2.3-1.4-2.8-3.4-2.8h-3.8
		c-2,0-3.8,0.3-3.8,3.7v2.9c0,3.1,1.7,3.8,4.2,3.8h3.5c1.9,0,3.6-0.6,3.6-2.9v-0.5h1.9v0.4c0,3.5-1.5,4.8-5.4,4.8h-4.7
		c-1.9,0-5.2-0.6-5.2-5.5V92.7z"/>
	<path style="&st0;" d="M76.8,81.6h2.1v2.5h-2.1V81.6z M76.8,87.4h2.1v13.7h-2.1V87.4z"/>
	<path style="&st0;" d="M95.9,99.7L95.9,99.7c-0.6,1.2-1.3,1.6-4.4,1.6h-5c-3.1,0-4-1.5-4-4.1v-0.9c0-3.1,2-3.5,5.6-3.5h3.3
		c2.7,0,3.7,0.3,4.4,1.6h0v-2.6c0-2.5-1.4-2.8-4.6-2.8h-3c-2.6,0-3.1,0.7-3.1,1.8v0.5h-2.1v-0.7c0-2.5,1.4-3.5,5.1-3.5h3.3
		c3.9,0,6.5,0.6,6.5,4.7v9.2h-2.1V99.7z M95.9,96.8c0-1.9-1.5-2.1-4.7-2.1h-3.2c-2.7,0-3.4,0.4-3.4,2.1v0.4c0,1.5,0.5,2.2,3.3,2.2
		h2.8c3.8,0,5.2-0.3,5.2-2V96.8z"/>
	<path style="&st0;" d="M102.1,81.6h2.1v19.4h-2.1V81.6z"/>
	<path style="&st0;" d="M108.8,81.6h2.1v2.5h-2.1V81.6z M108.8,87.4h2.1v13.7h-2.1V87.4z"/>
	<path style="&st0;" d="M114.3,99.2l10.9-9.9v-0.1h-10.6v-1.9h13.4v1.9l-10.9,9.9v0.1h11.1v1.9h-13.9V99.2z"/>
	<path style="&st0;" d="M130.9,92.7c0-5,3.1-5.5,6-5.5h3.3c3.7,0,6.4,1,6.4,5.9v1.5h-13.7v0.9c0,3.1,1.4,3.9,5,3.9h2.8
		c2.6,0,3.7-0.4,3.8-2.5h2.1v0.3c0,3.1-2.3,4.1-6.2,4.1h-3.8c-2.7,0-5.8-0.6-5.8-5.6V92.7z M144.6,91.8c0-1.4-0.9-2.8-4.3-2.8h-3
		c-3.3,0-4.1,0.6-4.3,3.7h11.6V91.8z"/>
	<path style="&st0;" d="M165.2,101.1h-1.9v-2.2h0c-0.6,1.7-2.3,2.4-4.5,2.4h-2.9c-3.8,0-6.4-1-6.4-5.8v-2.4c0-4.4,1.5-5.9,6.5-5.9
		h3.2c2.4,0,3.5,0.6,3.9,2h0v-7.6h2.1V101.1z M151.5,95.5c0,2.7,0.7,3.9,4.1,3.9h3.4c3.1,0,4.1-1.4,4.1-3.9v-2.6
		c0-3.3-1.7-3.8-4.5-3.8h-2.8c-2.9,0-4.3,0.6-4.3,3.8V95.5z"/>
	<path style="&st0;" d="M180.5,96.3h1.9V97c0,1.7,0.8,2.4,2.9,2.4h4.4c3.1,0,4.1-0.1,4.1-2.2v-0.1c0-1.3-0.3-2-2.8-2h-6.4
		c-2.9,0-4-1-4-3.6v-0.8c0-2.2,1.1-3.5,6.3-3.5h3.2c4.7,0,5.3,1.5,5.3,3.4v0.7h-1.9v-0.1c0-2.1-1.3-2.1-3.5-2.1h-3.6
		c-3,0-3.6,0.3-3.6,1.9v0.5c0,1.1,0.3,1.8,2.5,1.8h5.5c3.1,0,5.2,0.3,5.2,4.1v0.1c0,3.8-3.2,4-5.7,4h-3.8c-3.1,0-5.9,0-5.9-4.1V96.3
		z"/>
	<path style="&st0;" d="M200.7,89.3H198v-1.9h2.7v-3.2h2.1v3.2h8.2v1.9h-8.2v6.8c0,2.5,0.8,3.3,3.1,3.3h0.7c2.8,0,3.2-0.6,3.2-3.5
		v-1h1.7v1.5c0,2.7-0.2,4.9-4.7,4.9h-1.1c-3.9,0-4.8-2.1-4.8-4.3V89.3z"/>
	<path style="&st0;" d="M226.7,99.7L226.7,99.7c-0.6,1.2-1.3,1.6-4.4,1.6h-5c-3.1,0-4-1.5-4-4.1v-0.9c0-3.1,2-3.5,5.6-3.5h3.3
		c2.7,0,3.7,0.3,4.4,1.6h0v-2.6c0-2.5-1.4-2.8-4.6-2.8h-3c-2.6,0-3.1,0.7-3.1,1.8v0.5h-2.1v-0.7c0-2.5,1.4-3.5,5.1-3.5h3.3
		c3.9,0,6.5,0.6,6.5,4.7v9.2h-2.1V99.7z M226.7,96.8c0-1.9-1.5-2.1-4.7-2.1h-3.2c-2.7,0-3.4,0.4-3.4,2.1v0.4c0,1.5,0.5,2.2,3.3,2.2
		h2.8c3.8,0,5.2-0.3,5.2-2V96.8z"/>
	<path style="&st0;" d="M234,89.3h-2.7v-1.9h2.7v-1.2c0-3.2,1.8-4.5,4.1-4.5h3.9v1.9h-3.7c-1.5,0-2.1,1-2.1,2.2v1.7h5.9v1.9h-5.9
		v11.8H234V89.3z"/>
	<path style="&st0;" d="M246.1,89.3h-2.7v-1.9h2.7v-1.2c0-3.2,1.8-4.5,4.1-4.5h3.9v1.9h-3.7c-1.5,0-2.1,1-2.1,2.2v1.7h5.9v1.9h-5.9
		v11.8h-2.1V89.3z"/>
	<path style="&st0;" d="M257,81.6h2.1v2.5H257V81.6z M257,87.4h2.1v13.7H257V87.4z"/>
	<path style="&st0;" d="M263.4,87.4h1.9v2.4h0c0.8-2.1,2.4-2.6,5-2.6h3.1c3.9,0,5.1,2.2,5.1,4.6v9.3h-2.1v-8.7c0-2-0.5-3.3-4.5-3.3
		h-0.5c-4.9,0-6,1-6,4.2v7.8h-2.1V87.4z"/>
	<path style="&st0;" d="M297.8,101c0,4.1-3.3,5-5.8,5h-4.7c-3.8,0-4.8-2.3-4.8-4.1v-0.5h1.9v0.4c0,1.8,1.6,2.3,3.6,2.3h2
		c4.1,0,5.7-0.1,5.7-3.8v-2h0c-0.4,1.3-1.3,2.1-4.2,2.1h-4.3c-3.5,0-5.2-2-5.2-5.5v-2.3c0-5,3.2-5.5,5.6-5.5h4.4
		c1.6,0,3.1,0.4,3.8,2.7h0v-2.4h1.9V101z M295.7,93.2c0-2.5-0.8-4.2-3.7-4.2h-4.2c-2.1,0-3.6,0.6-3.7,2.9v2.5c0,3.1,1,4.1,3.5,4.1h4
		c3,0,4.1-1.3,4.1-3.7V93.2z"/>
</g>
<g id="text-green">
	<path style="&st1;" d="M0,56.8c0-12.5,5.4-15.2,13.3-15.2h12.2c8,0,12.9,3.4,12.9,11v3H27.9c0-3.4-1.5-4.6-6.3-4.6h-4.2
		c-4.5,0-6.7,1.4-6.7,5.1v4.4c0,4.3,2.4,5.6,5.8,5.6h5.5c3,0,5.8-0.8,5.8-3.8v-0.8h10.5v2.9c0,8.9-6.4,11.4-12.6,11.4H14.7
		C7.6,75.7,0,74.2,0,60V56.8z"/>
	<path style="&st1;" d="M57.9,38H47v-9.7h10.8V38z M57.9,75.2H47V42.1h10.8V75.2z"/>
	<path style="&st1;" d="M69.9,51.1h-5.4v-8.9h5.4v-7.8h10.8v7.8h16.8v8.9H80.7v12.7c0,2.5,1.6,3,4.2,3c3.5,0,4.5-0.9,4.5-4v-2.2h9.5
		v4c0,6.3-3.6,11.1-12.2,11.1h-4.3c-6.7,0-12.4-2.4-12.4-11.5V51.1z"/>
	<path style="&st1;" d="M106.8,42.1H117v6.3h0.1c1.2-5.3,5.6-6.8,10.5-6.8c7.9,0,11,3.9,11,13c0,0.8-0.1,1.8-0.1,2.9h-9.4
		c0-4.2-0.8-6.2-5.2-6.2c-3.7,0-6.3,1.6-6.3,5.6v18.3h-10.8V42.1z"/>
	<path style="&st1;" d="M182.1,75.2h-10.8v-5.3h-0.1c-1.9,4.6-5.7,5.8-11.5,5.8c-6.7,0-16.1-0.3-16.1-14.6v-19h10.8v19
		c0,3.2,2.3,4.9,7,4.9h2.5c4.6,0,7.4-2.5,7.4-7.2V42.1h10.8V75.2z"/>
	<path style="&st1;" d="M200.9,64.9c0,1.8,0.6,3,6.7,3h3.8c5.1,0,6.4-0.5,6.4-2.5c0-1.9-0.8-2.7-4.7-2.7h-10.2
		C193,62.7,190,60.2,190,51.1c0-8.2,5.8-9.5,13.2-9.5h7.6c14.2,0,16.6,2.3,16.8,10h-10.8c-0.6-1.9-1.6-2.3-8.1-2.3
		c-6.3,0-7.4,0.2-7.4,2.5c0,1.4,0.8,1.9,6.5,1.9h7.5c13,0,13.9,5,13.9,10.9c0,8.8-3,11-15.4,11h-10.3c-10,0-13.7-2.7-13.7-10.8
		H200.9z"/>
</g>
<g id="dots-yellow">
	<circle style="&st2;" cx="218.7" cy="13.9" r="13.9"/>
	<circle style="&st2;" cx="252.1" cy="13.9" r="13.9"/>
	<circle style="&st2;" cx="252.1" cy="47.3" r="13.9"/>
</g>
<g id="dots-green">
	<circle style="&st1;" cx="286.1" cy="13.9" r="13.9"/>
	<circle style="&st1;" cx="286.1" cy="47.3" r="13.9"/>
</g>
</svg>
