<?xml version="1.0" encoding="utf-8"?>
<!-- Generator: Adobe Illustrator 26.0.1, SVG Export Plug-In . SVG Version: 6.00 Build 0)  -->
<!DOCTYPE svg PUBLIC "-//W3C//DTD SVG 1.1//EN" "http://www.w3.org/Graphics/SVG/1.1/DTD/svg11.dtd" [
	<!ENTITY st0 "fill:#96BF0D;">
	<!ENTITY st1 "fill:none;">
	<!ENTITY st2 "font-family:'OpenSans-Semibold';">
	<!ENTITY st3 "font-size:146.0204px;">
]>
<svg version="1.1" id="Ebene_1" xmlns="http://www.w3.org/2000/svg" xmlns:xlink="http://www.w3.org/1999/xlink" x="0px" y="0px"
	 viewBox="0 0 954 476.8" style="enable-background:new 0 0 954 476.8;" xml:space="preserve">
<g id="Ebene_1_00000061463700952161912430000016310446010262469018_">
	<g>
		<g transform="translate(0.000000,511.000000) scale(0.100000,-0.100000)">
			<path style="&st0;" d="M2136.6,5102c-418.4-54.1-769.4-183-1101.9-405.3c-179.3-119.5-509.9-450.1-629.4-629.4
				C125.1,3647.1,0,3232.5,0,2722.7C0,2056,224.1,1510.6,696.6,1040c457.5-457.5,1014.2-694.8,1636.1-696.6
				c296.9-1.8,405.3,24.2,691.1,166.3c269,134.4,483.7,296.9,799.3,607c214.7,207.3,551,582.7,567.7,631.3
				c3.7,7.5-78.5,119.5-179.3,250.3l-184.9,237.1l-186.8-227.9C3266.4,1310.9,2741.6,929.9,2351.3,929.9
				c-166.2,0-410.9,46.7-593.9,112c-468.8,170-889,590.2-1058.9,1058.9c-242.8,670.5-84,1380.2,418.4,1884.4
				c274.5,274.5,586.4,437,958.1,502.4c511.8,89.7,806.8-37.4,1341-577.1c317.5-319.4,481.9-517.4,1073.9-1300
				c586.4-773.1,739.6-965.6,1073.9-1333.5c414.6-457.5,902-801.2,1279.3-902.1c166.3-44.9,549.1-42.9,765.7,1.8
				c498.6,102.7,881.5,308.2,1234.6,663c472.5,470.7,696.6,1016,696.6,1682.8c0,666.7-224.1,1212.1-696.6,1682.7
				c-433.3,435.1-943.2,663-1561.3,702.3c-509.9,29.9-1001-212.9-1576.3-782.6c-248.4-244.6-565.9-614.5-552.8-646.2
				c3.7-11.2,86-123.2,181.2-246.6l173.7-224.1l37.4,42.9c20.5,24.2,106.4,127,190.5,229.7c179.3,216.7,522.9,562.2,700.4,702.3
				c373.5,296.9,631.3,373.5,1016,306.3c384.7-65.4,692.9-227.9,971.1-504.3c369.8-369.8,551-833,524.8-1346.6
				c-24.2-466.9-198-855.4-534.1-1186c-343.6-339.9-743.3-509.9-1206.5-511.8c-199.9,0-237.2,3.7-351.1,50.4
				c-231.6,89.7-429.6,239.1-732.1,543.5c-313.7,313.7-478.2,513.6-1045.9,1262.6c-661.2,872.2-969.3,1245.7-1298,1567
				c-382.9,375.4-754.5,618.2-1073.9,702.3C2594.2,5096.4,2258,5116.9,2136.6,5102z"/>
		</g>
	</g>
	<rect x="580.2" y="176.1" style="&st1;" width="330" height="168.4"/>
	<text transform="matrix(1 0 0 1 580.1875 287.0479)" style="&st0; &st2; &st3;">OPS</text>
	<rect x="83.7" y="176.1" style="&st1;" width="330" height="168.4"/>
	<text transform="matrix(1 0 0 1 83.7183 287.0479)" style="&st0; &st2; &st3;">DEV</text>
</g>
</svg>
