<?xml version="1.0" encoding="utf-8"?>
<!-- Generator: Adobe Illustrator 26.0.1, SVG Export Plug-In . SVG Version: 6.00 Build 0)  -->
<!DOCTYPE svg PUBLIC "-//W3C//DTD SVG 1.1//EN" "http://www.w3.org/Graphics/SVG/1.1/DTD/svg11.dtd" [
	<!ENTITY st0 "fill:#97BF11;">
]>
<svg version="1.1" id="icon-architect" xmlns="http://www.w3.org/2000/svg" xmlns:xlink="http://www.w3.org/1999/xlink" x="0px"
	 y="0px" viewBox="0 0 398 398" style="enable-background:new 0 0 398 398;" xml:space="preserve">
<path style="&st0;" d="M223.4,397.9c-54.8,0-109.6,0-164.4,0c-33.8,0-59-25.3-59-59.1C0,254.2,0,169.6,0,85
	c0-30.5,21.7-55.8,50.3-58.9c31.4-3.4,57.8,15.9,64.3,47c0.7,3.2,1.7,3.9,4.7,3.9c57.1-0.1,114.3-0.1,171.4,0c3.4,0,5-0.7,4.4-4.3
	c-0.3-2.2,0.4-4.2,1.2-6.3c7.3-18,14.4-36.1,21.7-54.2C321.3,3.9,326.4,0,333.7,0c7.4,0,12.3,3.8,15.7,12.3
	c7.1,17.7,14.2,35.5,21.4,53.2c1,2.5,1.9,5,1.5,7.7c-0.5,3.3,1.1,3.9,4,3.8c6.2-0.2,12.3,0,18.5-0.1c2.3,0,3.4,0.6,3.1,3.1
	c-0.1,0.8,0,1.7,0,2.5c0,103.3,0,206.5,0.1,309.8c0,4.6-1.1,5.7-5.7,5.7C336,397.8,279.7,397.9,223.4,397.9z M94.7,384.7
	c1.6,0.1,2.1,0.2,2.6,0.2c94.5,0,188.9,0,283.4,0.1c4.3,0,4.3-1.8,4.3-5c-0.1-51,0-102,0-152.9c0-44,0-88,0-131.9
	c0-1.6,0.9-4.1-0.6-4.7c-3.4-1.3-7.3-1-10.8-0.3c-2.6,0.5-1.3,3.4-1.3,5.2c-0.1,51,0,102-0.1,152.9c0,13.7-7.7,21.3-21.4,21.4
	c-11,0-22,0-33,0c-15.1,0-22.7-7.6-22.7-22.7c0-50.6-0.1-101.3,0.1-151.9c0-4.2-1.1-5.2-5.2-5.2c-55.1,0.1-110.3,0.1-165.4,0.1
	c-9.4,0-9.3,0-8.9,9.4c0.1,3,1.4,3.6,4,3.5c6-0.1,12,0.1,18-0.1c2.8-0.1,3.7,0.9,3.7,3.7c-0.2,7.7,0,15.3-0.1,23
	c-0.1,2.7,0.6,4.2,3.4,5c4.3,1.4,8.5,3.1,12.4,5.2c2.7,1.4,4.1,0.7,5.9-1.2c5.4-5.7,11.1-11.1,16.5-16.7c1.8-1.9,2.9-1.9,4.8,0
	c13.6,13.7,27.3,27.4,41,41c1.8,1.8,1.7,2.8-0.1,4.4c-4.2,4-8.3,8.2-12.4,12.3c-6.8,6.8-6.8,6.8-3.2,15.5c0.9,2.1,1.9,4.3,2.4,6.5
	c0.7,2.9,2.2,4,5.2,3.9c7.5-0.2,15,0,22.5-0.1c3.1-0.1,4.4,0.5,4.3,4c-0.2,18.8-0.2,37.7,0,56.5c0,3.5-1.3,4.1-4.4,4
	c-7.3-0.2-14.7,0.1-22-0.1c-3.1-0.1-4.8,0.6-5.8,3.9c-1.2,4-2.8,7.9-4.8,11.5c-1.5,2.8-0.8,4.4,1.3,6.4c5.6,5.4,11,11.1,16.7,16.6
	c1.7,1.7,1.7,2.6,0,4.4c-13.7,13.6-27.4,27.3-41,41c-1.9,1.9-3,1.7-4.8-0.1c-5.6-5.8-11.3-11.3-16.9-17c-1.6-1.7-2.9-2.1-5.1-0.9
	c-4,2-8.1,3.8-12.4,5.2c-2.9,0.9-3.9,2.2-3.8,5.3c0.2,7.5-0.1,15,0.1,22.5c0.1,3.4-1.1,4.2-4.3,4.1c-9.2-0.2-18.3-0.1-27.5-0.1
	c-1.6,0-3.4-0.3-4.5,1.4C102.2,377.5,98.8,380.8,94.7,384.7z M102.8,303.5c0-2.4,0-3.5,0-4.6c0-71.3,0-142.5,0-213.8
	c0-4-0.4-8-1.3-11.9c-5.5-22.8-26-36.9-49.8-34.3C30,41.4,13,60.8,13,83.5c-0.1,71.9,0,143.9,0,215.8c0,1-0.6,2.3,0.9,3.2
	c11.7-13.1,26.3-20.2,43.9-20.2C75.4,282.3,90.1,289.6,102.8,303.5z M128.2,345.7c0-3.5,0.1-7,0-10.5c-0.2-2.7,0.9-3.8,3.5-4.4
	c9.8-2.3,19-6,27.5-11.4c2.6-1.7,4-0.9,5.8,1c4.7,4.9,9.7,9.6,14.4,14.6c1.8,2,2.9,1.8,4.7,0c7.3-7.5,14.7-15,22.3-22.3
	c2.1-2,1.9-3.3-0.1-5.2c-4.9-4.7-9.6-9.7-14.6-14.4c-1.9-1.8-2.1-3.3-0.7-5.5c5.4-8.5,9.1-17.8,11.4-27.5c0.6-2.7,1.9-3.4,4.4-3.3
	c6.7,0.2,13.3-0.1,20,0.1c3.4,0.1,4.2-1.1,4.1-4.3c-0.2-10.2-0.2-20.3,0-30.5c0-3-0.7-4.1-3.9-4c-6.8,0.2-13.7,0-20.5,0.1
	c-2.3,0-3.5-0.6-4.1-3.1c-2.3-9.9-6.2-19.3-11.6-28c-1.3-2.1-1.1-3.4,0.7-5.1c4.9-4.7,9.6-9.7,14.6-14.4c1.9-1.8,2.5-3,0.3-5.2
	c-7.7-7.4-15.2-15-22.6-22.6c-1.7-1.7-2.7-1.7-4.3,0c-4.8,5.1-9.9,9.9-14.8,14.9c-1.8,1.9-3.1,2.3-5.4,0.8
	c-8.5-5.4-17.7-9.2-27.5-11.4c-2.9-0.7-3.7-2-3.6-4.8c0.2-6.7-0.1-13.3,0.1-20c0.1-2.8-0.8-4-3.7-3.7c-1.3,0.1-2.7,0.2-4,0
	c-3.9-0.5-5.1,0.9-5.1,4.9c0.3,13.8,0.3,27.7,0,41.5c-0.1,4,1.2,5.4,5.1,6c33.9,5.3,59.2,35.1,59.2,69.5c0,34.5-25.2,64.1-59.2,69.5
	c-3.9,0.6-5,2-5.1,6c-0.3,14.6,1.8,29.3-2.4,43.7c-0.6,2.1,0.5,2.4,2.3,2.6c12.8,1.3,12.8,1.3,12.8-11.5
	C128.2,347.1,128.2,346.4,128.2,345.7z M13,340.1c-0.1,24.7,20,44.9,44.7,44.9c24.8,0,44.9-19.9,45.1-44.5
	c0.2-24.6-20.4-45.3-45.1-45.3C33.1,295.2,13,315.4,13,340.1z M115.6,237.2c0,8.3,0,16.7,0,25c0,7,0,7,6.4,4.5
	c1.5-0.6,2.9-1.9,4.2,0.4c5.9,10.7,7.8,8.9-3.8,13.2c-0.5,0.2-0.9,0.5-1.4,0.5c-4.9,0-6.1,2.8-5.5,7.2c0.2,1,0.1,2,0,3
	c-0.4,3.2,0.7,3.8,4,3.2c31-5.1,52.3-36.4,46.2-67.9c-4.4-22.9-23.8-42-46.2-45.4c-1.2-0.2-3.2-1.4-3.5,0.2c-0.6,3.4-0.6,7-0.2,10.4
	c0.3,2.6,3,2.1,4.8,2.5c28.8,7.6,42.4,41,27,66.7c-3.7,6.1-3.6,6-9.2,1.6c-3.4-2.6-4.7-4.3-1.9-8.9c10.2-16.6,2.5-38.6-15.6-45.6
	c-5-2-5.4-1.8-5.4,3.5C115.6,219.9,115.6,228.5,115.6,237.2z M308,143.9c0,21.2,0.1,42.3-0.1,63.5c0,3.5,0.9,4.8,4.5,4.5
	c3.3-0.3,6.7-0.4,10,0c4.2,0.5,4.9-1.4,4.9-5.1c-0.1-41.1-0.1-82.3-0.1-123.4c0-1.2-0.1-2.3,0-3.5c0.2-2.2-0.7-2.9-2.9-2.9
	c-4,0.1-8,0.3-12,0c-3.7-0.3-4.4,1.2-4.3,4.5C308.1,102.3,308,123.1,308,143.9z M340.1,143.9c0,21.2,0.1,42.3-0.1,63.5
	c0,3.5,0.9,4.8,4.5,4.5c3.1-0.3,6.4-0.4,9.5,0c4.7,0.6,5.4-1.4,5.4-5.6c-0.1-41.3-0.1-82.6-0.1-123.9c0-0.8-0.1-1.7,0-2.5
	c0.2-2.2-0.8-2.9-2.9-2.9c-4,0.1-8,0.3-12,0c-3.7-0.3-4.4,1.2-4.3,4.5C340.1,102.3,340.1,123.1,340.1,143.9z M333.6,256.7
	c6,0,12,0.1,17.9,0c5.4-0.1,7.6-2.3,7.6-7.6c0.1-7-0.1-14,0.1-20.9c0-2.5-0.7-3.5-3.4-3.5c-14.8,0.1-29.6,0.1-44.4,0
	c-2.5,0-3.6,0.6-3.5,3.3c0.2,7.1-0.1,14.3,0.1,21.4c0.1,4.8,2.6,7.2,7.6,7.3C321.6,256.8,327.6,256.7,333.6,256.7z M356.2,64.1
	c-6.7-16.6-13.1-32.7-19.5-48.7c-0.5-1.3-1.5-2.3-3-2.3c-1.8,0-2.6,1.2-3.2,2.6c-2,4.9-3.9,9.9-5.9,14.8c-4,10-8,20-12,30.1
	c-0.6,1.4-2,3.4,1.2,3.4C327.7,64.1,341.6,64.1,356.2,64.1z"/>
<path style="&st0;" d="M307.9,372.3c-19.8,0-39.7-0.1-59.5,0.1c-3.7,0-4.7-0.9-4.7-4.7c0.2-27,0.2-54,0-81c0-4,1.5-4.5,4.9-4.5
	c39.7,0.1,79.3,0.1,119,0c3.8,0,4.8,1,4.7,4.8c-0.2,27-0.1,54,0,81c0,3.5-0.9,4.5-4.4,4.5C347.9,372.2,327.9,372.3,307.9,372.3z
	 M307.8,359.2c15.7,0,31.3-0.1,47,0.1c3.4,0,4.6-0.8,4.6-4.4c-0.2-18.5-0.2-37,0-55.5c0-3.7-1.3-4.4-4.6-4.4
	c-31.1,0.1-62.3,0.1-93.4,0c-3.5,0-4.5,0.9-4.5,4.4c0.2,18.5,0.2,37,0,55.5c0,3.6,1.2,4.4,4.6,4.3
	C276.8,359.1,292.3,359.2,307.8,359.2z"/>
<path style="&st0;" d="M25.8,340.3C25.7,323,38.9,308.9,56,308c16.7-0.9,31.6,11.6,33.8,28.2c0.3,2.7-0.1,4.2-3.2,3.8
	c-1-0.1-2-0.1-3,0c-4.2,0.5-6.6-0.3-7.7-5.4c-2-9-11-14.6-20-13.7c-9.1,0.9-16.4,8.3-17.1,17.3c-0.7,9.6,5,18.4,14.1,20.2
	c4.3,0.8,5.3,2.3,5.1,6.4c-0.3,8.3-0.3,8.5-8.5,6.2C35.3,367.2,25.8,354.9,25.8,340.3z"/>
<path style="&st0;" d="M320.4,320.9c-7.3,0-14.6-0.1-21.9,0c-2.6,0-3.4-0.7-3.5-3.4c-0.3-9.6-0.4-9.6,9.2-9.6
	c12.6,0,25.3,0.1,37.9-0.1c3.7-0.1,4.8,0.9,4.7,4.7c-0.2,8.3,0,8.3-8.4,8.3C332.4,320.9,326.4,320.9,320.4,320.9z"/>
<path style="&st0;" d="M295.4,346.7c-7.5,0-14.9-0.1-22.4,0c-2.6,0-3.4-0.8-3.5-3.4c-0.5-9.6-0.5-9.6,9.2-9.6
	c12.6,0,25.2,0.1,37.9-0.1c3.5-0.1,4.5,0.9,4.4,4.4c-0.2,8.6,0,8.6-8.6,8.6C306.7,346.7,301.1,346.7,295.4,346.7z"/>
<path style="&st0;" d="M277,320.9c-8.5-0.2-7.5,1.2-7.6-6.4c-0.1-6.6,0-6.1,7-6.7c5.8-0.5,6.1,2.2,6.2,6.8
	C282.7,319.5,281.9,322.5,277,320.9z"/>
<path style="&st0;" d="M339.3,333.7c8.3,0.1,7.3-0.9,7.3,6.7c0,7.2,0.8,5.7-6.9,6.4c-6,0.5-6-2.3-6.2-6.9
	C333.4,334.8,334.7,332.3,339.3,333.7z"/>
</svg>
