<?xml version="1.0" encoding="utf-8"?>
<!-- Generator: Adobe Illustrator 22.0.1, SVG Export Plug-In . SVG Version: 6.00 Build 0)  -->
<svg version="1.1" id="Capa_1" xmlns="http://www.w3.org/2000/svg" xmlns:xlink="http://www.w3.org/1999/xlink" x="0px" y="0px"
	 width="95px" height="150px" viewBox="0 0 95 150" style="enable-background:new 0 0 95 150;" xml:space="preserve">
<style type="text/css">
	.st0{fill:#DEE9F4;}
	.st1{fill:#DDE8F3;}
	.st2{fill:#DCE7F2;}
	.st3{fill:#DBE6F1;}
	.st4{fill:#DAE5EF;}
	.st5{fill:#D9E4EE;}
	.st6{fill:#D8E2ED;}
	.st7{fill:#D7E1EC;}
	.st8{fill:#D6E0EB;}
	.st9{fill:#D4DFEA;}
	.st10{fill:#D3DEE8;}
	.st11{fill:#D2DDE7;}
	.st12{fill:#D1DCE6;}
	.st13{fill:#D0DBE5;}
	.st14{fill:#CFDAE4;}
	.st15{fill:#CED9E3;}
	.st16{fill:#CDD7E1;}
	.st17{fill:#CCD6E0;}
	.st18{fill:#CBD5DF;}
	.st19{fill:#CAD4DE;}
	.st20{fill:#C9D3DD;}
	.st21{fill:#C8D2DC;}
	.st22{fill:#C7D1DB;}
	.st23{fill:#C6D0D9;}
	.st24{fill:#C5CFD8;}
	.st25{fill:#C4CED7;}
	.st26{fill:#C2CCD6;}
	.st27{fill:#C1CBD5;}
	.st28{fill:#C0CAD4;}
	.st29{fill:#BFC9D2;}
	.st30{fill:#BEC8D1;}
	.st31{fill:#BDC7D0;}
	.st32{fill:#BCC6CF;}
	.st33{fill:#BBC5CE;}
	.st34{fill:#BAC4CD;}
	.st35{fill:#B9C3CC;}
	.st36{fill:#B8C1CA;}
	.st37{fill:#B7C0C9;}
	.st38{fill:#B6BFC8;}
	.st39{fill:#B5BEC7;}
	.st40{fill:#B4BDC6;}
	.st41{fill:#B3BCC5;}
	.st42{fill:#B2BBC3;}
	.st43{fill:#B0BAC2;}
	.st44{fill:#AFB9C1;}
	.st45{fill:#AEB8C0;}
	.st46{fill:#ADB6BF;}
	.st47{fill:#ACB5BE;}
	.st48{fill:#ABB4BC;}
	.st49{fill:#AAB3BB;}
	.st50{fill:#A9B2BA;}
	.st51{fill:#A8B1B9;}
	.st52{fill:#96BF0D;}
</style>
<g>
	<path class="st0" d="M42.6,127.9c12.6-0.4,24.8,4.2,27.3,10.2c2.4,6-5.8,11.1-18.3,11.4c-12.6,0.4-24.8-4.2-27.3-10.2
		C21.8,133.4,30,128.3,42.6,127.9z"/>
	<path class="st1" d="M42.8,128.2c12.5-0.3,24.4,4.2,26.9,10c2.4,5.8-5.7,11-18.2,11.3c-12.5,0.3-24.4-4.2-26.9-10
		C22.3,133.6,30.4,128.6,42.8,128.2z"/>
	<path class="st2" d="M43,128.5c12.2-0.3,24.2,4.1,26.5,9.9c2.3,5.8-5.7,10.7-17.9,11.1c-12.2,0.3-24.2-4.1-26.5-9.9
		C22.7,133.8,30.7,128.7,43,128.5z"/>
	<path class="st3" d="M43.2,128.7c12.1-0.3,23.8,4.1,26.1,9.8c2.3,5.7-5.7,10.6-17.8,10.9c-12.1,0.3-23.8-4.1-26.1-9.8
		C23.2,133.9,31.1,129,43.2,128.7z"/>
	<path class="st4" d="M43.4,129c11.9-0.3,23.5,3.9,25.6,9.6c2.3,5.6-5.6,10.4-17.5,10.7c-11.9,0.3-23.5-3.9-25.6-9.6
		C23.6,134,31.5,129.3,43.4,129z"/>
	<path class="st5" d="M43.6,129.2c11.8-0.3,23.1,3.9,25.2,9.4c2.2,5.6-5.6,10.2-17.2,10.4c-11.8,0.3-23.1-3.9-25.2-9.4
		C24.2,134.2,31.9,129.6,43.6,129.2z"/>
	<path class="st6" d="M43.8,129.4c11.5-0.3,22.7,3.9,24.8,9.4c2.2,5.4-5.4,10-17.1,10.3c-11.5,0.3-22.8-3.8-24.8-9.2
		C24.6,134.4,32.2,129.7,43.8,129.4z"/>
	<path class="st7" d="M44,129.7c11.4-0.3,22.4,3.8,24.6,9.1c2.2,5.3-5.4,9.9-16.8,10.2s-22.4-3.8-24.6-9.1S32.6,130,44,129.7z"/>
	<path class="st8" d="M44.2,130c11.3-0.3,22.1,3.8,24.2,9c2,5.2-5.4,9.6-16.7,9.9s-22.1-3.8-24.2-9C25.5,134.7,33,130.2,44.2,130z"
		/>
	<path class="st9" d="M44.4,130.2c11.1-0.3,21.7,3.7,23.8,8.8c2,5.2-5.3,9.5-16.4,9.8S30,145.2,28,140
		C25.9,134.8,33.2,130.5,44.4,130.2z"/>
	<path class="st10" d="M44.7,130.5c10.9-0.3,21.3,3.7,23.3,8.7c2,5-5.3,9.4-16.1,9.5C41,149,30.5,145,28.5,140
		C26.5,135,33.7,130.8,44.7,130.5z"/>
	<path class="st11" d="M44.8,130.8c10.7-0.3,21,3.5,22.9,8.6c1.9,4.9-5.3,9.1-16,9.4s-21-3.5-22.9-8.6
		C26.9,135.1,34.1,130.9,44.8,130.8z"/>
	<path class="st12" d="M45.1,130.9c10.6-0.3,20.6,3.5,22.5,8.4s-5.2,9-15.7,9.2c-10.6,0.3-20.6-3.5-22.5-8.4
		C27.4,135.3,34.5,131.2,45.1,130.9z"/>
	<path class="st13" d="M45.2,131.2c10.5-0.3,20.4,3.4,22.1,8.1c1.8,4.8-5.2,8.8-15.6,9c-10.5,0.3-20.4-3.4-22.1-8.1
		C27.8,135.5,34.7,131.5,45.2,131.2z"/>
	<path class="st14" d="M45.5,131.5c10.3-0.3,20,3.4,21.8,8c1.8,4.6-5,8.6-15.3,8.8c-10.3,0.3-20-3.4-21.9-8S35.1,131.7,45.5,131.5z"
		/>
	<path class="st15" d="M45.6,131.7c10-0.1,19.7,3.4,21.4,7.9c1.8,4.6-5,8.4-15.1,8.6c-10,0.1-19.7-3.4-21.4-7.9
		C28.8,135.8,35.6,131.9,45.6,131.7z"/>
	<path class="st16" d="M45.9,132c9.9-0.1,19.3,3.3,21,7.7c1.6,4.5-5,8.3-14.9,8.4s-19.3-3.3-21-7.7C29.2,135.9,35.8,132.1,45.9,132z
		"/>
	<path class="st17" d="M46,132.3c9.8-0.1,19,3.3,20.6,7.6c1.6,4.3-4.9,8-14.7,8.3c-9.8,0.1-19-3.3-20.6-7.6
		C29.7,136.1,36.2,132.4,46,132.3z"/>
	<path class="st18" d="M46.1,132.5c9.6-0.1,18.6,3.1,20.2,7.5c1.6,4.2-4.9,7.9-14.5,8s-18.6-3.1-20.2-7.5
		C30.1,136.2,36.6,132.7,46.1,132.5z"/>
	<path class="st19" d="M46.4,132.7c9.4-0.1,18.3,3.1,19.8,7.3c1.5,4.2-4.9,7.7-14.3,7.9s-18.3-3.1-19.8-7.3
		C30.7,136.3,37,132.9,46.4,132.7z"/>
	<path class="st20" d="M46.5,132.9c9.2-0.1,17.9,3,19.4,7.2c1.5,4.1-4.8,7.5-14,7.6s-17.9-3-19.4-7.2
		C31.1,136.6,37.3,133.1,46.5,132.9z"/>
	<path class="st21" d="M46.8,133.2c9.1-0.1,17.6,3,19.1,6.9c1.5,3.9-4.8,7.3-13.8,7.5s-17.6-3-19.1-6.9
		C31.5,136.8,37.7,133.4,46.8,133.2z"/>
	<path class="st22" d="M47,133.5c9-0.1,17.2,3,18.7,6.8c1.4,3.9-4.6,7.2-13.6,7.3s-17.2-3-18.7-6.8C32,136.9,38.1,133.6,47,133.5z"
		/>
	<path class="st23" d="M47.2,133.8c8.7-0.1,17,2.9,18.3,6.7c1.4,3.8-4.6,6.9-13.3,7.1s-17-2.9-18.3-6.7
		C32.4,137,38.4,133.9,47.2,133.8z"/>
	<path class="st24" d="M47.4,134c8.5-0.1,16.6,2.8,17.9,6.5c1.4,3.7-4.6,6.8-13.2,6.9s-16.6-2.9-17.9-6.5
		C33,137.2,38.8,134,47.4,134z"/>
	<path class="st25" d="M47.6,134.2c8.4-0.1,16.3,2.7,17.5,6.4c1.2,3.7-4.5,6.7-12.9,6.7c-8.4,0.1-16.3-2.7-17.5-6.4
		C33.4,137.3,39.2,134.3,47.6,134.2z"/>
	<path class="st26" d="M47.8,134.4c8.3-0.1,15.9,2.7,17.1,6.2s-4.5,6.4-12.8,6.5c-8.3,0.1-15.9-2.7-17.1-6.2
		C33.9,137.4,39.6,134.6,47.8,134.4z"/>
	<path class="st27" d="M48,134.7c8-0.1,15.6,2.6,16.7,6.1c1.2,3.4-4.5,6.2-12.5,6.4c-8.1,0.1-15.6-2.6-16.7-6.1
		C34.3,137.7,39.9,134.8,48,134.7z"/>
	<path class="st28" d="M48.2,135c7.9,0,15.2,2.6,16.4,5.8c1.1,3.3-4.3,6.1-12.2,6.1s-15.2-2.6-16.4-5.8
		C34.9,137.8,40.3,135,48.2,135z"/>
	<path class="st29" d="M48.5,135.3c7.7,0,14.9,2.6,16,5.7c1.1,3.3-4.3,5.8-12.1,6c-7.7,0-14.9-2.6-16-5.7
		C35.3,138,40.7,135.3,48.5,135.3z"/>
	<path class="st30" d="M48.6,135.5c7.6,0,14.5,2.4,15.6,5.6c1.1,3.1-4.2,5.7-11.8,5.7s-14.5-2.4-15.6-5.6
		C35.7,138.1,41,135.5,48.6,135.5z"/>
	<path class="st31" d="M48.9,135.8c7.5,0,14.2,2.4,15.2,5.4c0.9,3-4.2,5.6-11.7,5.6s-14.2-2.4-15.2-5.4
		C36.2,138.4,41.4,135.8,48.9,135.8z"/>
	<path class="st32" d="M49,135.9c7.2,0,13.8,2.3,14.8,5.3c0.9,3-4.2,5.3-11.4,5.4c-7.2,0-13.8-2.3-14.8-5.3
		C36.6,138.4,41.8,136.1,49,135.9z"/>
	<path class="st33" d="M49.3,136.2c7.1,0,13.6,2.3,14.4,5.2c0.8,2.9-4.1,5.2-11.1,5.2s-13.6-2.3-14.4-5.2
		C37.2,138.5,42.2,136.2,49.3,136.2z"/>
	<path class="st34" d="M49.4,136.5c6.9,0,13.2,2.2,14,5c0.8,2.7-4.1,5-11,5s-13.2-2.2-14-5C37.6,138.8,42.5,136.5,49.4,136.5z"/>
	<path class="st35" d="M49.7,136.8c6.8,0,12.9,2.2,13.6,4.9c0.8,2.7-4.1,4.8-10.7,4.8c-6.8,0-12.9-2.2-13.6-4.9
		C38.1,138.9,42.9,136.8,49.7,136.8z"/>
	<path class="st36" d="M49.8,137c6.5,0,12.5,2.2,13.3,4.6c0.8,2.6-3.9,4.6-10.6,4.6c-6.5,0-12.5-2.2-13.3-4.6
		C38.4,139.2,43.3,137,49.8,137z"/>
	<path class="st37" d="M50.1,137.3c6.4,0,12.2,2,12.9,4.5c0.7,2.4-3.9,4.5-10.3,4.5c-6.4,0-12.2-2-12.9-4.5
		C39,139.2,43.6,137.2,50.1,137.3z"/>
	<path class="st38" d="M50.2,137.4c6.2,0,11.8,2,12.5,4.3c0.7,2.3-3.8,4.2-10,4.2c-6.2,0-11.8-2-12.5-4.3S44,137.4,50.2,137.4z"/>
	<path class="st39" d="M50.5,137.7c6.1,0,11.5,1.9,12.1,4.2c0.5,2.3-3.8,4.1-9.9,4.1s-11.5-1.9-12.1-4.2
		C39.9,139.5,44.4,137.7,50.5,137.7z"/>
	<path class="st40" d="M50.6,138c5.8,0,11.1,1.9,11.7,4.1c0.5,2.2-3.8,3.9-9.6,3.8c-5.8,0-11.1-1.9-11.7-4.1
		C40.4,139.6,44.8,138,50.6,138z"/>
	<path class="st41" d="M50.9,138.2c5.7,0,10.9,1.8,11.3,3.9c0.5,2-3.7,3.7-9.5,3.7c-5.7,0-10.9-1.8-11.3-3.9
		C40.8,139.9,45.1,138.2,50.9,138.2z"/>
	<path class="st42" d="M51,138.5c5.6,0.1,10.5,1.8,10.9,3.8c0.4,2-3.7,3.5-9.2,3.5s-10.5-1.8-10.9-3.8C41.4,140,45.5,138.4,51,138.5
		z"/>
	<path class="st43" d="M51.3,138.8c5.4,0.1,10,1.8,10.6,3.7c0.4,1.9-3.7,3.4-9,3.3s-10.2-1.8-10.6-3.7S45.9,138.6,51.3,138.8z"/>
	<path class="st44" d="M51.4,139.1c5.3,0.1,9.8,1.6,10.2,3.4c0.4,1.8-3.5,3.3-8.8,3.1c-5.2-0.1-9.8-1.6-10.2-3.4
		C42.2,140.3,46.1,138.9,51.4,139.1z"/>
	<path class="st45" d="M51.6,139.2c5,0.1,9.4,1.6,9.8,3.3c0.4,1.6-3.5,3-8.5,2.8s-9.4-1.6-9.8-3.3C42.8,140.4,46.5,139.2,51.6,139.2
		z"/>
	<path class="st46" d="M51.8,139.5c4.9,0.1,9.1,1.5,9.4,3.1c0.3,1.6-3.4,2.8-8.3,2.7s-9.1-1.5-9.4-3.1
		C43.2,140.6,47,139.3,51.8,139.5z"/>
	<path class="st47" d="M52,139.7c4.8,0.1,8.7,1.5,9,3c0.3,1.5-3.4,2.7-8.1,2.6s-8.7-1.5-9-3C43.7,140.7,47.4,139.6,52,139.7z"/>
	<path class="st48" d="M52.2,140c4.6,0.1,8.4,1.4,8.5,2.9c0.1,1.5-3.4,2.4-7.9,2.3c-4.5-0.1-8.4-1.4-8.5-2.8
		C44.1,141,47.6,139.9,52.2,140z"/>
	<path class="st49" d="M52.4,140.3c4.3,0.1,8,1.4,8.1,2.7c0.1,1.4-3.3,2.3-7.7,2.2c-4.3-0.1-8-1.4-8.1-2.7
		C44.7,141.1,48,140.1,52.4,140.3z"/>
	<path class="st50" d="M52.7,140.6c4.2,0.1,7.7,1.2,7.9,2.6c0.1,1.2-3.3,2.2-7.5,1.9c-4.2-0.1-7.7-1.2-7.9-2.6
		C45.1,141.1,48.5,140.3,52.7,140.6z"/>
	<path class="st51" d="M52.8,140.7c4.1,0.1,7.3,1.2,7.5,2.3c0,1.1-3.3,1.9-7.2,1.8c-4.1-0.1-7.3-1.2-7.5-2.3
		C45.6,141.4,48.7,140.6,52.8,140.7z"/>
</g>
<g>
	<g>
		<path class="st52" d="M47.5,50.6C30.1,50.6,16,64.7,16,82.1c0,21.6,28.1,53.1,29.3,54.4c1.1,1.2,3.1,1.2,4.2,0
			c1.2-1.4,29.3-33,29.3-54.4C79,64.7,64.9,50.6,47.5,50.6z M47.5,97.8c-8.7,0-15.9-7.1-15.9-15.9c0-8.7,7.1-15.9,15.9-15.9
			s15.9,7.1,15.9,15.9S56.2,97.8,47.5,97.8z"/>
	</g>
</g>
</svg>
