<?xml version="1.0" encoding="utf-8"?>
<!-- Generator: Adobe Illustrator 26.0.1, SVG Export Plug-In . SVG Version: 6.00 Build 0)  -->
<!DOCTYPE svg PUBLIC "-//W3C//DTD SVG 1.1//EN" "http://www.w3.org/Graphics/SVG/1.1/DTD/svg11.dtd" [
	<!ENTITY st0 "fill:none;stroke:#96BF0D;stroke-width:16;stroke-miterlimit:10;">
]>
<svg version="1.1" id="Ebene_1" xmlns="http://www.w3.org/2000/svg" xmlns:xlink="http://www.w3.org/1999/xlink" x="0px" y="0px"
	 viewBox="0 0 1003.3 498.8" style="enable-background:new 0 0 1003.3 498.8;" xml:space="preserve">
<g id="Ebene_2_00000037685255849719568790000013350932317431425686_">
	<path id="path3060" style="&st0;" d="M8,8v482.8h493.2L984,8.1l0,0L8,8L8,8z"/>
	<path id="path3100" style="&st0;" d="M585.8,239.8h-19.6V168h19.6c26.2,0,47.1,8.6,47.1,35.4C632.9,231.1,612,239.8,585.8,239.8
		 M374.6,291.1c-10.4,0-20.1-1.9-28.6-5.1l28.3-89.2h0.6l27.7,89.4C394.3,289.3,384.8,291.1,374.6,291.1 M580.6,109.7h-89.1v211.9
		l-77.9-211.9h-77.2l-66.5,177.2c-7-44.7-53.3-60.1-89.7-71.6c-24-7.7-49.5-19.1-49.3-31.6c0.2-10.3,13.7-19.8,40.3-18.4
		c18,0.9,33.8,2.4,65.2,17.6l31-53.9c-28.7-14.7-68.4-23.9-100.9-23.9h-0.2c-37.9,0-69.5,12.4-89.1,32.6c-13.6,14.2-21,32.1-21.3,52
		c-0.5,27.3,9.6,46.7,30.6,62.2c17.8,13.1,40.5,21.5,60.6,27.7c24.8,7.6,45,14.3,44.7,28.5c-0.2,5.2-2.1,10-5.9,13.9
		c-6.2,6.4-15.6,8.8-28.7,9.1c-25.3,0.5-44-3.4-73.8-21.1l-27.5,54.7c29.7,16.9,64.9,26.8,100.9,26.8h4.6
		c31.3-0.6,56.5-9.5,76.7-25.7l3.3-2.9l-8.9,24h80.9l13.6-41.4c14.2,4.8,30.4,7.5,47.6,7.5c16.7,0,32.5-2.5,46.5-7.1l13.1,40.9
		h132.1v-85.6H595c69.6,0,110.8-35.4,110.8-94.9C705.8,140.2,665.8,109.8,580.6,109.7"/>
</g>
</svg>
