<?xml version="1.0" encoding="utf-8"?>
<!-- Generator: Adobe Illustrator 26.0.1, SVG Export Plug-In . SVG Version: 6.00 Build 0)  -->
<!DOCTYPE svg PUBLIC "-//W3C//DTD SVG 1.1//EN" "http://www.w3.org/Graphics/SVG/1.1/DTD/svg11.dtd" [
	<!ENTITY st0 "fill:#96BF0D;">
]>
<svg version="1.1" id="Ebene_1" xmlns="http://www.w3.org/2000/svg" xmlns:xlink="http://www.w3.org/1999/xlink" x="0px" y="0px"
	 viewBox="0 0 642.1 580" style="enable-background:new 0 0 642.1 580;" xml:space="preserve">
<path style="&st0;" d="M229,254.7c-3.2-5.4-9.6-6.4-13.9-3.2L96.3,322.1c-3.2,2.1-5.4,5.4-5.4,8.6s2.1,6.4,5.4,8.6l118.8,70.6
	c1.1,1.1,3.2,1.1,5.4,1.1c3.2,0,6.4-2.1,8.6-5.4c3.2-5.4,1.1-10.7-3.2-13.9L121,329.6l104.9-62.1C231.1,265.4,232.2,260,229,254.7
	L229,254.7z"/>
<path style="&st0;" d="M414.1,406.6c2.1,3.2,5.4,5.4,8.6,5.4c2.1,0,3.2,0,5.4-1.1l118.8-70.6c3.2-2.1,5.4-5.4,5.4-8.6
	s-2.1-6.4-5.4-8.6L428,251.5c-5.4-3.2-10.7-1.1-13.9,3.2c-3.2,5.4-1.1,10.7,3.2,13.9l104.9,62.1l-104.9,62.1
	C413,395.9,410.9,402.4,414.1,406.6z"/>
<path style="&st0;" d="M360.6,254.7L265.4,397c-3.2,4.3-2.1,10.7,3.2,13.9c2.1,1.1,3.2,2.1,5.4,2.1c3.2,0,6.4-1.1,8.6-4.3
	l95.2-142.3c3.2-4.3,2.1-10.7-3.2-13.9C370.2,248.3,363.8,249.3,360.6,254.7L360.6,254.7z"/>
<path style="&st0;" d="M642,475.1V10.7C642,5.3,637.7,0,631.3,0H10.7C5.3,0,0,4.3,0,10.7v558.6c0,5.4,4.3,10.7,10.7,10.7h620.7
	c5.4,0,10.7-4.3,10.7-10.7V460.1 M621.7,559.7H21.4v-457h600.3L621.7,559.7z M21.4,20.3h378.8v61H21.4V20.3z M420.5,82.4V20.3h201.2
	v61H420.5V82.4z"/>
<path style="&st0;" d="M521.1,40.7c-6.4,0-10.7,5.4-10.7,10.7c0,5.4,5.4,10.7,10.7,10.7c6.4,0,10.7-5.4,10.7-10.7
	C531.8,46,527.5,40.7,521.1,40.7z"/>
<path style="&st0;" d="M465.5,40.7c-6.4,0-10.7,5.4-10.7,10.7c0,5.4,5.4,10.7,10.7,10.7c6.4,0,10.7-5.4,10.7-10.7
	C476.2,46,471.9,40.7,465.5,40.7z"/>
<path style="&st0;" d="M576.8,40.7c-6.4,0-10.7,5.4-10.7,10.7c0,5.4,5.4,10.7,10.7,10.7c5.4,0,10.7-5.4,10.7-10.7
	C588.5,44.9,583.2,40.7,576.8,40.7z"/>
</svg>
