<?xml version="1.0" encoding="utf-8"?>
<!-- Generator: Adobe Illustrator 26.0.1, SVG Export Plug-In . SVG Version: 6.00 Build 0)  -->
<svg version="1.1" id="Ebene_1" xmlns="http://www.w3.org/2000/svg" xmlns:xlink="http://www.w3.org/1999/xlink" x="0px" y="0px"
	 viewBox="0 0 642.1 642.1" style="enable-background:new 0 0 642.1 642.1;" xml:space="preserve">
<style type="text/css">
	.st0{fill:#96BF0D;}
</style>
<path class="st0" d="M229,285.8c-3.2-5.4-9.6-6.4-13.9-3.2L96.3,353.1c-3.2,2.1-5.4,5.4-5.4,8.6s2.1,6.4,5.4,8.6L215.1,441
	c1.1,1.1,3.2,1.1,5.4,1.1c3.2,0,6.4-2.1,8.6-5.4c3.2-5.4,1.1-10.7-3.2-13.9L121,360.6l104.9-62.1C231.1,296.4,232.2,291,229,285.8
	L229,285.8z"/>
<path class="st0" d="M414.1,437.6c2.1,3.2,5.4,5.4,8.6,5.4c2.1,0,3.2,0,5.4-1.1l118.8-70.6c3.2-2.1,5.4-5.4,5.4-8.6
	s-2.1-6.4-5.4-8.6L428,282.5c-5.4-3.2-10.7-1.1-13.9,3.2c-3.2,5.4-1.1,10.7,3.2,13.9l104.9,62.1l-104.9,62.1
	C413,426.9,410.9,433.4,414.1,437.6z"/>
<path class="st0" d="M360.6,285.8L265.4,428c-3.2,4.3-2.1,10.7,3.2,13.9c2.1,1.1,3.2,2.1,5.4,2.1c3.2,0,6.4-1.1,8.6-4.3l95.2-142.3
	c3.2-4.3,2.1-10.7-3.2-13.9C370.2,279.4,363.8,280.4,360.6,285.8L360.6,285.8z"/>
<path class="st0" d="M642,506.1V41.8c0-5.4-4.3-10.7-10.7-10.7H10.7C5.3,31,0,35.3,0,41.8v558.6c0,5.4,4.3,10.7,10.7,10.7h620.7
	c5.4,0,10.7-4.3,10.7-10.7V491.1 M621.7,590.8H21.4v-457h600.3V590.8z M21.4,51.3h378.8v61H21.4V51.3z M420.5,113.5V51.3h201.2v61
	H420.5V113.5z"/>
<path class="st0" d="M521.1,71.8c-6.4,0-10.7,5.4-10.7,10.7c0,5.4,5.4,10.7,10.7,10.7c6.4,0,10.7-5.4,10.7-10.7
	C531.8,77.1,527.5,71.8,521.1,71.8z"/>
<path class="st0" d="M465.5,71.8c-6.4,0-10.7,5.4-10.7,10.7c0,5.4,5.4,10.7,10.7,10.7c6.4,0,10.7-5.4,10.7-10.7
	C476.2,77.1,471.9,71.8,465.5,71.8z"/>
<path class="st0" d="M576.8,71.8c-6.4,0-10.7,5.4-10.7,10.7c0,5.4,5.4,10.7,10.7,10.7c5.4,0,10.7-5.4,10.7-10.7
	C588.5,76,583.2,71.8,576.8,71.8z"/>
</svg>
