<?xml version="1.0" encoding="utf-8"?>
<!-- Generator: Adobe Illustrator 26.0.1, SVG Export Plug-In . SVG Version: 6.00 Build 0)  -->
<!DOCTYPE svg PUBLIC "-//W3C//DTD SVG 1.1//EN" "http://www.w3.org/Graphics/SVG/1.1/DTD/svg11.dtd" [
	<!ENTITY st0 "fill:#959595;">
]>
<svg version="1.1" id="Ebene_1" xmlns="http://www.w3.org/2000/svg" xmlns:xlink="http://www.w3.org/1999/xlink" x="0px" y="0px"
	 viewBox="0 0 142.6 171" style="enable-background:new 0 0 142.6 171;" xml:space="preserve">
<path style="&st0;" d="M71.2,171c-14.6,0-29.3,0-43.9,0c-14.6,0-25.1-8.2-26.6-22.8C-1.2,129.4,0.5,110.8,10,94
	c4.9-8.7,12.3-14.3,22.7-15.2c2.5-0.2,4.3,0.4,6.3,2c19.7,16,44.9,16.1,64.5,0c3.6-3,7.2-2.2,10.8-1.2c9.2,2.5,15.8,8.6,19.7,17.1
	c8,17.4,10.6,35.7,7.1,54.5c-2.4,12.8-12.4,19.9-25.4,19.9C100.9,171,86.1,171,71.2,171z"/>
<path style="&st0;" d="M71.5,85.2c-23.8,0.2-42.9-18.5-43.1-42.4C28.2,19.7,47.4,0.2,70.7,0c23.6-0.2,43.2,18.7,43.3,42.3
	C114.2,66.5,94.5,85.7,71.5,85.2z"/>
</svg>
