<?xml version="1.0" encoding="utf-8"?>
<!-- Generator: Adobe Illustrator 26.0.1, SVG Export Plug-In . SVG Version: 6.00 Build 0)  -->
<!DOCTYPE svg PUBLIC "-//W3C//DTD SVG 1.1//EN" "http://www.w3.org/Graphics/SVG/1.1/DTD/svg11.dtd" [
	<!ENTITY st0 "fill:#FFFFFF;">
]>
<svg version="1.1" id="Ebene_1" xmlns="http://www.w3.org/2000/svg" xmlns:xlink="http://www.w3.org/1999/xlink" x="0px" y="0px"
	 viewBox="0 0 229.9 229.9" style="enable-background:new 0 0 229.9 229.9;" xml:space="preserve">
<path style="&st0;" d="M114.9,20.7c30.7,0,34.3,0.1,46.4,0.7c11.2,0.5,17.3,2.4,21.3,4c5,1.8,9.5,4.8,13.2,8.6
	c3.8,3.7,6.8,8.2,8.6,13.2c1.6,4,3.4,10.1,4,21.3c0.6,12.1,0.7,15.8,0.7,46.4s-0.1,34.3-0.7,46.4c-0.5,11.2-2.4,17.3-4,21.3
	c-3.9,10-11.8,17.9-21.8,21.8c-4,1.6-10.1,3.4-21.3,4c-12.1,0.6-15.8,0.7-46.4,0.7s-34.3-0.1-46.4-0.7c-11.2-0.5-17.3-2.4-21.3-4
	c-5-1.8-9.5-4.8-13.2-8.6c-3.8-3.7-6.8-8.2-8.6-13.2c-1.6-4-3.4-10.1-4-21.3c-0.6-12.1-0.7-15.8-0.7-46.4s0.1-34.3,0.7-46.4
	c0.5-11.2,2.4-17.3,4-21.3c1.8-5,4.8-9.5,8.6-13.2c3.7-3.8,8.2-6.8,13.2-8.6c4-1.6,10.1-3.4,21.3-4C80.6,20.8,84.2,20.7,114.9,20.7
	 M114.9,0C83.7,0,79.8,0.1,67.5,0.7C55.3,1.2,47,3.2,39.6,6C32,8.9,25,13.4,19.3,19.3C13.4,25,8.9,32,6,39.6
	C3.2,47,1.2,55.3,0.7,67.5C0.1,79.8,0,83.7,0,114.9s0.1,35.1,0.7,47.4c0.6,12.2,2.5,20.6,5.3,27.9c2.9,7.7,7.4,14.6,13.3,20.4
	c5.7,5.8,12.7,10.4,20.4,13.3c7.3,2.8,15.7,4.8,27.9,5.3c12.3,0.6,16.2,0.7,47.4,0.7s35.1-0.1,47.4-0.7c12.2-0.6,20.6-2.5,27.9-5.3
	c15.4-6,27.6-18.2,33.6-33.6c2.8-7.3,4.8-15.7,5.3-27.9c0.6-12.3,0.7-16.2,0.7-47.4s-0.1-35.1-0.7-47.4c-0.6-12.2-2.5-20.6-5.3-27.9
	c-2.9-7.7-7.4-14.6-13.3-20.4c-5.7-5.8-12.7-10.4-20.4-13.3c-7.3-2.8-15.7-4.8-27.9-5.3C150.1,0.1,146.1,0,114.9,0L114.9,0L114.9,0z
	"/>
<path style="&st0;" d="M114.9,55.9c-32.6,0-59,26.4-59,59s26.4,59,59,59s59-26.4,59-59l0,0C173.9,82.3,147.5,55.9,114.9,55.9z
	 M114.9,153.2c-21.2,0-38.3-17.2-38.3-38.3s17.2-38.3,38.3-38.3c21.2,0,38.3,17.2,38.3,38.3C153.2,136.1,136.1,153.2,114.9,153.2z"
	/>
<circle style="&st0;" cx="176.3" cy="53.6" r="13.8"/>
</svg>
