<?xml version="1.0" encoding="utf-8"?>
<!-- Generator: Adobe Illustrator 26.0.1, SVG Export Plug-In . SVG Version: 6.00 Build 0)  -->
<!DOCTYPE svg PUBLIC "-//W3C//DTD SVG 1.1//EN" "http://www.w3.org/Graphics/SVG/1.1/DTD/svg11.dtd" [
	<!ENTITY st0 "fill-rule:evenodd;clip-rule:evenodd;fill:#FFFFFF;">
]>
<svg version="1.1" id="Ebene_1" xmlns="http://www.w3.org/2000/svg" xmlns:xlink="http://www.w3.org/1999/xlink" x="0px" y="0px"
	 viewBox="0 0 249.6 237.9" style="enable-background:new 0 0 249.6 237.9;" xml:space="preserve">
<path id="path28" style="&st0;" d="M57,237.9V77.1H3.3v160.8C3.3,237.9,57,237.9,57,237.9z M29.9,55.2c18.7,0,30.4-12.2,30.4-27.6
	C59.8,11.7,48.6,0,30.4,0S0,12.2,0,27.6C0,43,11.7,55.2,29.9,55.2L29.9,55.2L29.9,55.2z"/>
<path id="path30" style="&st0;" d="M86.5,237.9h53.3v-89.7c0-4.7,0.5-9.8,1.9-13.1c3.7-9.8,12.6-19.6,27.6-19.6
	c19.2,0,27.1,15,27.1,36.5v86h53.3v-92.1c0-49.5-26.2-72.5-61.7-72.5c-29,0-41.6,16.4-48.6,27.1h0.5V77.1H86.5
	C87.4,92.1,86.5,237.9,86.5,237.9L86.5,237.9z"/>
</svg>
