<?xml version="1.0" encoding="utf-8"?>
<!-- Generator: Adobe Illustrator 26.0.1, SVG Export Plug-In . SVG Version: 6.00 Build 0)  -->
<!DOCTYPE svg PUBLIC "-//W3C//DTD SVG 1.1//EN" "http://www.w3.org/Graphics/SVG/1.1/DTD/svg11.dtd" [
	<!ENTITY st0 "fill:#FFFFFF;">
]>
<svg version="1.1" id="Ebene_1" xmlns="http://www.w3.org/2000/svg" xmlns:xlink="http://www.w3.org/1999/xlink" x="0px" y="0px"
	 viewBox="0 0 255.3 300" style="enable-background:new 0 0 255.3 300;" xml:space="preserve">
<g>
	<path style="&st0;" d="M23.2,59.3c-2.6,0-4.8,0.9-5.9,2.7c-1.1,1.8-1,4.2,0.2,6.6l29.3,50.6c0,0.1,0,0.2,0,0.2l-46,81.1
		c-1.2,2.4-1.1,4.8,0,6.6c1.1,1.8,3,2.9,5.7,2.9h43.3c6.5,0,9.6-4.4,11.8-8.4c0,0,45-79.5,46.7-82.6c-0.2-0.3-29.7-51.9-29.7-51.9
		c-2.2-3.8-5.4-8.1-12-8.1L23.2,59.3L23.2,59.3z"/>
	<path style="&st0;" d="M205,0c-6.5,0-9.3,4.1-11.6,8.2c0,0-93.2,165.3-96.3,170.7c0.2,0.3,61.5,112.8,61.5,112.8
		c2.1,3.8,5.5,8.2,12.1,8.2h43.2c2.6,0,4.6-1,5.7-2.8c1.2-1.8,1.1-4.3-0.1-6.7l-61-111.4c-0.1-0.1-0.1-0.2,0-0.3L254.4,9.4
		c1.2-2.4,1.2-4.8,0.1-6.7C253.4,1,251.3,0,248.7,0L205,0L205,0L205,0L205,0z"/>
</g>
</svg>
