<?xml version="1.0" encoding="utf-8"?>
<!-- Generator: Adobe Illustrator 22.0.1, SVG Export Plug-In . SVG Version: 6.00 Build 0)  -->
<svg version="1.1" id="Ebene_1" xmlns="http://www.w3.org/2000/svg" xmlns:xlink="http://www.w3.org/1999/xlink" x="0px" y="0px"
	 width="1000px" height="608px" viewBox="0 0 1000 608" style="enable-background:new 0 0 1000 608;" xml:space="preserve">
<style type="text/css">
	.st0{fill:#96BF0D;}
	.st1{fill:#808080;}
	.st2{fill:#606060;}
</style>
<g>
	<path class="st0" d="M446.3,302v-40H466c5.6,0,9.5,1.2,11.7,3.7c2.2,2.4,3.4,6.7,3.4,12.8c0,10-0.9,16.4-2.7,19.2
		c-1.8,2.8-5.8,4.3-12.2,4.3H446.3z M453.9,295.6h10.8c3.6,0,6-0.8,7-2.5c1.1-1.7,1.6-5.4,1.6-11.1c0-5.9-0.5-9.6-1.4-11.2
		c-1-1.6-3.2-2.4-6.7-2.4h-11.3V295.6z"/>
	<path class="st0" d="M504.5,293h6.7v1.1c0,5.5-4.1,8.2-12.3,8.2c-5.6,0-9.2-0.9-10.9-2.8s-2.6-5.9-2.6-12c0-5.4,0.9-9.1,2.7-11
		s5.3-2.8,10.5-2.8c5,0,8.3,0.9,10,2.7c1.7,1.8,2.5,5.4,2.5,10.8v2.1h-19c0,0.6-0.1,1-0.1,1.2c0,2.8,0.4,4.6,1.3,5.5
		c0.8,0.9,2.5,1.4,5.1,1.4c2.5,0,4.1-0.3,4.8-0.8C504.1,296,504.5,294.8,504.5,293z M504.5,285.1V284c0-2.2-0.4-3.7-1.2-4.3
		c-0.8-0.7-2.4-1-5-1c-2.5,0-4.1,0.4-4.9,1.2c-0.8,0.8-1.1,2.5-1.1,5.2L504.5,285.1L504.5,285.1z"/>
	<path class="st0" d="M540.2,274l-8,28h-10.5l-8.4-28h7.1l3.7,12.9c0.5,1.8,1,3.5,1.4,5.2l0.7,2.6l0.7,2.6h0.1l0.6-2.6l0.6-2.6
		c0.5-2,0.9-3.7,1.3-5.2l3.4-12.9H540.2z"/>
	<path class="st0" d="M560,261.6c7.3,0,11.9,1.2,14,3.6s3.1,7.8,3.1,16.2c0,9.2-1.1,14.9-3.1,17.3c-2.1,2.4-7.2,3.6-15.2,3.6
		c-7.3,0-12-1.2-14.1-3.5c-2.1-2.4-3.2-7.5-3.2-15.5c0-9.5,1-15.5,3.1-18C546.7,262.9,551.8,261.6,560,261.6z M559.4,268.2
		c-5.1,0-8.1,0.7-8.9,2c-0.9,1.3-1.3,5.8-1.3,13.6c0,5.7,0.5,9.2,1.5,10.4c1,1.2,4,1.8,8.9,1.8c4.7,0,7.5-0.7,8.5-2s1.4-5.3,1.4-12
		s-0.4-10.7-1.3-11.9C567.2,268.8,564.3,268.2,559.4,268.2z"/>
	<path class="st0" d="M582.1,274h6.8l-0.3,4.2h0.1c1.6-3,4.6-4.5,9.1-4.5c4.1,0,6.9,1,8.4,3s2.3,5.7,2.3,11.1
		c0,5.6-0.8,9.4-2.3,11.5s-4.3,3.1-8.5,3.1c-4.4,0-7.3-1.5-8.6-4.4H589v16h-7L582.1,274L582.1,274z M595.3,278.9
		c-2.6,0-4.2,0.6-5,1.7c-0.8,1.2-1.2,3.6-1.2,7.3c0,3.6,0.4,6,1.3,7.2c0.8,1.2,2.5,1.8,5.1,1.8s4.3-0.6,5.1-1.7s1.2-3.6,1.2-7.3
		c0-3.8-0.4-6.3-1.2-7.4S598,278.9,595.3,278.9z"/>
	<path class="st0" d="M637.5,281.7h-6.6c0-0.2-0.1-0.4-0.1-0.5c-0.1-1.3-0.5-2.2-1.2-2.5c-0.6-0.3-2.2-0.5-4.6-0.5
		c-3.5,0-5.2,1.1-5.2,3.4c0,1.5,0.3,2.5,0.9,2.8s2.7,0.5,6.3,0.7c4.8,0.2,7.9,0.9,9.3,1.9c1.4,1,2.2,3.2,2.2,6.4
		c0,3.4-1,5.8-2.9,7.1s-5.4,2-10.4,2c-4.8,0-8.1-0.6-9.8-1.8c-1.8-1.2-2.6-3.4-2.6-6.7v-0.7h7c-0.1,0.4-0.2,0.7-0.2,0.9
		c-0.3,2.5,1.6,3.7,5.7,3.7c4.2,0,6.4-1.2,6.4-3.7c0-2.4-1.3-3.5-4-3.5c-6,0-9.9-0.6-11.9-1.7c-1.9-1.1-2.9-3.5-2.9-7.1
		c0-3.2,0.9-5.4,2.6-6.5c1.7-1.1,5.1-1.7,10-1.7c4.7,0,7.8,0.5,9.4,1.6C636.7,276.4,637.5,278.5,637.5,281.7z"/>
</g>
<g>
	<path class="st1" d="M497.6,164.1h-15.5l-2.2,6.9h-7.2l11.9-35.9h10.3L507,171h-7.1L497.6,164.1z M496.1,159.1l-6.2-18.6l-6.1,18.6
		H496.1z"/>
	<path class="st1" d="M532.4,145.8v25.5c0,4.1-0.8,6.9-2.5,8.4s-4.7,2.2-9.1,2.2c-4.3,0-7.2-0.5-8.6-1.7c-1.4-1.2-2.2-3.4-2.2-6.8
		h5.8c0,1.6,0.3,2.7,0.9,3.1c0.6,0.4,2,0.7,4.1,0.7c3.8,0,5.6-1.5,5.6-4.7v-5.6h-0.1c-1.1,2.7-3.5,4-7.4,4c-3.8,0-6.4-0.9-7.8-2.8
		c-1.4-1.9-2.1-5.3-2.1-10.3c0-4.8,0.7-8,2.1-9.8s3.9-2.7,7.6-2.7c4,0,6.6,1.5,7.9,4.5h0.1l-0.3-4.1L532.4,145.8L532.4,145.8z
		 M520.5,150.3c-2.3,0-3.8,0.4-4.5,1.4s-1,3-1,6.4c0,3.5,0.4,5.8,1,6.8c0.6,1,2.2,1.4,4.6,1.4c2.4,0,3.9-0.5,4.6-1.5
		s1.1-3.2,1.1-6.7c0-3.3-0.4-5.5-1.1-6.4C524.5,150.9,522.9,150.3,520.5,150.3z"/>
	<path class="st1" d="M544.3,135.2v5h-6v-5H544.3z M544.3,145.8v25.1h-6v-25.1H544.3z"/>
	<path class="st1" d="M556.3,135.2v35.9h-6v-35.9H556.3z"/>
	<path class="st1" d="M578.3,163h6v1c0,4.9-3.7,7.4-11,7.4c-5,0-8.2-0.8-9.8-2.5c-1.5-1.7-2.3-5.3-2.3-10.8c0-4.8,0.8-8.2,2.4-9.9
		c1.6-1.7,4.8-2.5,9.4-2.5c4.5,0,7.4,0.8,9,2.4c1.6,1.6,2.2,4.8,2.2,9.7v1.9h-17c0,0.5-0.1,0.9-0.1,1.1c0,2.5,0.4,4.1,1.2,4.9
		c0.8,0.8,2.2,1.3,4.6,1.3c2.2,0,3.7-0.3,4.3-0.7C577.8,165.7,578.3,164.6,578.3,163z M578.4,155.8v-1c0-2-0.4-3.3-1.1-3.9
		c-0.7-0.6-2.2-0.9-4.5-0.9c-2.2,0-3.7,0.4-4.4,1.1c-0.7,0.7-1,2.2-1,4.7C567.5,155.8,578.4,155.8,578.4,155.8z"/>
</g>
<g>
	<path class="st1" d="M306.2,389h-17.3l-2.5,7.7h-8l13.3-40h11.4l13.5,40h-7.9L306.2,389z M304.4,383.4l-6.9-20.8l-6.8,20.8H304.4z"
		/>
	<path class="st1" d="M337.9,368.6v5.1h-10.8v14.1c0,2.6,1,3.9,3,3.9c2.2,0,3.3-1.6,3.3-4.7v-1.1h5.7v1.4c0,1.3,0,2.4-0.1,3.3
		c-0.4,4.3-3.6,6.4-9.6,6.4s-9-2.7-9-8.2v-15h-3.6v-5.1h3.6v-6.3h6.7v6.3L337.9,368.6L337.9,368.6z"/>
	<path class="st1" d="M349.5,356.7v40h-6.7v-40H349.5z"/>
	<path class="st1" d="M363,376.8h-6.9c0-3.4,0.8-5.6,2.3-6.7c1.6-1.1,4.7-1.7,9.3-1.7c5,0,8.4,0.7,10.2,2.1s2.7,4,2.7,7.9v18.3h-6.7
		l0.3-3.8H374c-1.3,2.8-4.3,4.2-8.9,4.2c-6.8,0-10.2-2.9-10.2-8.6c0-5.8,3.5-8.7,10.4-8.7c4.6,0,7.4,1.1,8.4,3.2h0.1v-4.7
		c0-2.2-0.4-3.6-1.1-4.4s-2.3-1.1-4.7-1.1C364.8,372.8,363,374.1,363,376.8z M367.5,384.1c-3.8,0-5.7,1.3-5.7,3.9
		c0,1.8,0.4,3,1.2,3.6c0.8,0.6,2.4,0.8,4.9,0.8c4.1,0,6.1-1.4,6.1-4.1C374.1,385.5,371.9,384.1,367.5,384.1z"/>
	<path class="st1" d="M410.8,376.4h-6.6c0-0.2-0.1-0.4-0.1-0.5c-0.1-1.3-0.5-2.2-1.2-2.5s-2.2-0.5-4.6-0.5c-3.5,0-5.2,1.1-5.2,3.4
		c0,1.5,0.3,2.5,0.9,2.8s2.7,0.5,6.3,0.7c4.8,0.2,7.9,0.9,9.3,1.9s2.2,3.2,2.2,6.4c0,3.4-1,5.8-2.9,7.1c-1.9,1.3-5.4,2-10.4,2
		c-4.8,0-8.1-0.6-9.8-1.8s-2.6-3.4-2.6-6.7V388h7c-0.1,0.4-0.2,0.7-0.2,0.9c-0.3,2.5,1.6,3.7,5.7,3.7c4.2,0,6.4-1.2,6.4-3.7
		c0-2.4-1.3-3.5-4-3.5c-6,0-9.9-0.6-11.9-1.7s-2.9-3.5-2.9-7.1c0-3.2,0.9-5.4,2.6-6.5s5.1-1.7,10-1.7c4.7,0,7.8,0.5,9.4,1.6
		S410.8,373.2,410.8,376.4z"/>
	<path class="st1" d="M440.4,376.4h-6.6c0-0.2-0.1-0.4-0.1-0.5c-0.1-1.3-0.5-2.2-1.2-2.5s-2.2-0.5-4.6-0.5c-3.5,0-5.2,1.1-5.2,3.4
		c0,1.5,0.3,2.5,0.9,2.8s2.7,0.5,6.3,0.7c4.8,0.2,7.9,0.9,9.3,1.9s2.2,3.2,2.2,6.4c0,3.4-1,5.8-2.9,7.1c-1.9,1.3-5.4,2-10.4,2
		c-4.8,0-8.1-0.6-9.8-1.8c-1.7-1.2-2.6-3.4-2.6-6.7V388h7c-0.1,0.4-0.2,0.7-0.2,0.9c-0.3,2.5,1.6,3.7,5.7,3.7c4.2,0,6.4-1.2,6.4-3.7
		c0-2.4-1.3-3.5-4-3.5c-6,0-9.9-0.6-11.9-1.7s-2.9-3.5-2.9-7.1c0-3.2,0.9-5.4,2.6-6.5s5.1-1.7,10-1.7c4.7,0,7.8,0.5,9.4,1.6
		C439.4,371.1,440.4,373.2,440.4,376.4z"/>
	<path class="st1" d="M453.5,356.7v5.6h-6.7v-5.6H453.5z M453.5,368.6v28h-6.7v-28H453.5z"/>
	<path class="st1" d="M467,376.8h-6.9c0-3.4,0.8-5.6,2.3-6.7s4.7-1.7,9.3-1.7c5,0,8.4,0.7,10.2,2.1c1.8,1.4,2.7,4,2.7,7.9v18.3h-6.7
		l0.3-3.8H478c-1.3,2.8-4.3,4.2-8.9,4.2c-6.8,0-10.2-2.9-10.2-8.6c0-5.8,3.5-8.7,10.4-8.7c4.6,0,7.4,1.1,8.4,3.2h0.1v-4.7
		c0-2.2-0.4-3.6-1.1-4.4s-2.3-1.1-4.7-1.1C468.7,372.8,467,374.1,467,376.8z M471.5,384.1c-3.8,0-5.7,1.3-5.7,3.9
		c0,1.8,0.4,3,1.2,3.6c0.8,0.6,2.4,0.8,4.9,0.8c4.1,0,6.1-1.4,6.1-4.1C478,385.5,475.9,384.1,471.5,384.1z"/>
	<path class="st1" d="M491.4,368.6h6.7l-0.3,4.7h0.1c1.3-3.4,4.2-5.1,8.8-5.1c6.6,0,9.9,3.1,9.9,9.3v19.1h-6.7v-16.8v-1.1l-0.1-2
		c-0.3-2.1-2-3.1-4.9-3.1c-4.5,0-6.8,2.1-6.8,6.4v16.6h-6.7L491.4,368.6L491.4,368.6z"/>
</g>
<g>
	<path class="st1" d="M563.5,356.2h4.6v0.8c0,3.3-0.6,5.5-1.8,6.5s-3.9,1.5-8.1,1.5c-4.7,0-7.6-0.8-8.7-2.3s-1.6-5.7-1.6-12.4
		c0-4,0.7-6.6,2.2-7.8c1.5-1.2,4.6-1.9,9.3-1.9c3.4,0,5.7,0.5,6.9,1.5s1.7,3.1,1.7,6.1v0.5h-4.6v-0.6c0-1.6-0.3-2.6-0.9-3
		c-0.6-0.4-2.1-0.7-4.2-0.7c-2.8,0-4.5,0.3-5.1,1s-0.9,2.7-0.9,6.2c0,4.6,0.3,7.3,0.8,8.2s2.2,1.3,4.9,1.3c2.3,0,3.7-0.2,4.4-0.7
		s1-1.5,1-3.1L563.5,356.2z"/>
	<path class="st1" d="M578.2,347.8c3.2,0,5.4,0.5,6.4,1.6s1.5,3.2,1.5,6.6c0,3.7-0.5,6.2-1.5,7.3s-3.1,1.7-6.2,1.7
		c-3.4,0-5.7-0.5-6.7-1.6s-1.5-3.5-1.5-7.1c0-3.5,0.5-5.8,1.5-6.9S574.8,347.8,578.2,347.8z M578.1,351c-1.7,0-2.7,0.3-3.2,0.9
		s-0.7,2-0.7,4.2c0,2.5,0.2,4.1,0.7,4.7s1.5,0.9,3.3,0.9c1.7,0,2.7-0.3,3.2-1s0.7-2.3,0.7-4.8c0-2.1-0.2-3.5-0.7-4.1
		C580.9,351.2,579.8,351,578.1,351z"/>
	<path class="st1" d="M589.4,348h4l-0.2,2.8h0.1c0.8-2,2.5-3,5.3-3c4,0,6,1.9,6,5.6v11.4h-4v-10.1v-0.6l-0.1-1.2
		c-0.2-1.3-1.2-1.9-3-1.9c-2.7,0-4.1,1.3-4.1,3.8v10h-4C589.4,364.8,589.4,348,589.4,348z"/>
	<path class="st1" d="M619.3,348v3.1h-6.5v8.4c0,1.6,0.6,2.3,1.8,2.3c1.3,0,2-0.9,2-2.8v-0.7h3.4v0.8c0,0.8,0,1.4-0.1,2
		c-0.2,2.6-2.1,3.8-5.7,3.8s-5.4-1.6-5.4-4.9v-9h-2.2v-3.1h2.2V344h4v3.8h6.5V348z"/>
	<path class="st1" d="M626.3,340.9v3.4h-4v-3.4H626.3z M626.3,348v16.8h-4V348H626.3z"/>
	<path class="st1" d="M630.2,348h4l-0.2,2.8h0.1c0.8-2,2.5-3,5.3-3c4,0,6,1.9,6,5.6v11.4h-4v-10.1v-0.6l-0.1-1.2
		c-0.2-1.3-1.2-1.9-3-1.9c-2.7,0-4.1,1.3-4.1,3.8v10h-4V348z"/>
	<path class="st1" d="M664.2,348v16.8h-4l0.2-2.9h-0.1c-0.8,2.1-2.6,3.1-5.4,3.1c-3.8,0-5.7-1.9-5.7-5.7V348h4v10.3
		c0,1.4,0.2,2.4,0.6,2.8c0.4,0.4,1.2,0.7,2.5,0.7c2.6,0,3.9-1.5,3.9-4.6V348H664.2z"/>
	<path class="st1" d="M675.7,347.8c3.2,0,5.4,0.5,6.4,1.6s1.5,3.2,1.5,6.6c0,3.7-0.5,6.2-1.5,7.3s-3.1,1.7-6.2,1.7
		c-3.4,0-5.7-0.5-6.7-1.6s-1.5-3.5-1.5-7.1c0-3.5,0.5-5.8,1.5-6.9S672.4,347.8,675.7,347.8z M675.7,351c-1.7,0-2.7,0.3-3.2,0.9
		s-0.7,2-0.7,4.2c0,2.5,0.2,4.1,0.7,4.7s1.5,0.9,3.3,0.9c1.7,0,2.7-0.3,3.2-1s0.7-2.3,0.7-4.8c0-2.1-0.2-3.5-0.7-4.1
		S677.3,351,675.7,351z"/>
	<path class="st1" d="M701.9,348v16.8h-4l0.2-2.9H698c-0.8,2.1-2.6,3.1-5.4,3.1c-3.8,0-5.7-1.9-5.7-5.7V348h4v10.3
		c0,1.4,0.2,2.4,0.6,2.8c0.4,0.4,1.2,0.7,2.5,0.7c2.6,0,3.9-1.5,3.9-4.6V348H701.9z"/>
	<path class="st1" d="M720,352.6h-3.9c0-0.1,0-0.2-0.1-0.3c-0.1-0.8-0.3-1.3-0.7-1.5s-1.3-0.3-2.8-0.3c-2.1,0-3.1,0.7-3.1,2
		c0,0.9,0.2,1.5,0.6,1.7c0.4,0.2,1.6,0.3,3.8,0.4c2.9,0.1,4.7,0.5,5.6,1.1c0.9,0.6,1.3,1.9,1.3,3.8c0,2.1-0.6,3.5-1.7,4.3
		s-3.2,1.2-6.2,1.2c-2.9,0-4.8-0.4-5.9-1.1c-1.1-0.7-1.6-2.1-1.6-4v-0.4h4.2c-0.1,0.2-0.1,0.4-0.1,0.6c-0.2,1.5,1,2.2,3.4,2.2
		c2.5,0,3.8-0.7,3.8-2.2c0-1.4-0.8-2.1-2.4-2.1c-3.6,0-6-0.3-7.1-1s-1.7-2.1-1.7-4.2c0-1.9,0.5-3.2,1.6-3.9c1.1-0.7,3-1,6-1
		c2.8,0,4.7,0.3,5.7,1C719.7,349.6,720,350.8,720,352.6z"/>
	<path class="st1" d="M732.9,364.8v-24h11.8c3.4,0,5.7,0.7,7,2.2s2,4,2,7.7c0,6-0.5,9.8-1.6,11.5s-3.5,2.6-7.3,2.6L732.9,364.8
		L732.9,364.8z M737.4,361h6.5c2.2,0,3.6-0.5,4.2-1.5c0.6-1,1-3.2,1-6.6c0-3.5-0.3-5.8-0.9-6.8s-1.9-1.4-4-1.4h-6.8V361z"/>
	<path class="st1" d="M767.8,359.5h4v0.7c0,3.3-2.5,4.9-7.4,4.9c-3.3,0-5.5-0.6-6.6-1.7s-1.5-3.5-1.5-7.2c0-3.3,0.5-5.5,1.6-6.6
		s3.2-1.7,6.3-1.7c3,0,5,0.5,6,1.6s1.5,3.2,1.5,6.5v1.2h-11.4c0,0.4,0,0.6,0,0.7c0,1.7,0.3,2.8,0.8,3.3s1.5,0.8,3,0.8
		s2.4-0.2,2.9-0.5C767.5,361.1,767.8,360.5,767.8,359.5z M767.8,354.6V354c0-1.3-0.2-2.2-0.7-2.6s-1.5-0.6-3-0.6s-2.5,0.2-2.9,0.7
		s-0.7,1.5-0.7,3.1H767.8L767.8,354.6z"/>
	<path class="st1" d="M779.2,340.9v24h-4v-24H779.2z"/>
	<path class="st1" d="M787.2,340.9v3.4h-4v-3.4H787.2z M787.2,348v16.8h-4V348H787.2z"/>
	<path class="st1" d="M805.1,348l-4.8,16.8H794l-5.1-16.8h4.3l2.2,7.8c0.3,1.1,0.6,2.1,0.8,3.1l0.4,1.6l0.4,1.6h0.1l0.5-1.6l0.4-1.5
		c0.3-1.2,0.5-2.2,0.8-3.1l2.1-7.8h4.2L805.1,348L805.1,348z"/>
	<path class="st1" d="M817.8,359.5h4v0.7c0,3.3-2.5,4.9-7.4,4.9c-3.3,0-5.5-0.6-6.6-1.7s-1.5-3.5-1.5-7.2c0-3.3,0.5-5.5,1.6-6.6
		s3.2-1.7,6.3-1.7c3,0,5,0.5,6,1.6s1.5,3.2,1.5,6.5v1.2h-11.4c0,0.4,0,0.6,0,0.7c0,1.7,0.3,2.8,0.8,3.3s1.5,0.8,3,0.8
		s2.4-0.2,2.9-0.5C817.5,361.1,817.8,360.5,817.8,359.5z M817.8,354.6V354c0-1.3-0.2-2.2-0.7-2.6s-1.5-0.6-3-0.6s-2.5,0.2-2.9,0.7
		s-0.7,1.5-0.7,3.1H817.8L817.8,354.6z"/>
	<path class="st1" d="M825.3,348h4l-0.2,2.4h0.1c1-1.8,2.5-2.6,4.5-2.6c3,0,4.4,1.9,4.4,5.6v1.1h-3.8c0-0.5,0.1-0.8,0.1-0.9
		c0-1.8-0.7-2.7-2.1-2.7c-2,0-3,1.3-3,4v9.9h-4V348z"/>
	<path class="st1" d="M854.2,348l-4.4,17.9c-0.6,2.5-1.4,4.2-2.3,5.1c-0.9,0.9-2.4,1.3-4.4,1.3c-0.5,0-0.9,0-1.4-0.1v-3
		c0.4,0,0.6,0,0.9,0c1.7,0,2.8-1.5,3.3-4.5h-2.1l-5.5-16.8h4.3l2.1,7.1l1.1,3.6c0.1,0.2,0.2,0.8,0.5,1.8l0.5,1.8h0.1l0.4-1.8
		c0.2-0.9,0.3-1.5,0.4-1.8l0.8-3.6l1.6-7.1h4.1L854.2,348L854.2,348z"/>
</g>
<g>
	<path class="st1" d="M713,201.7v17.4c0,3.2-0.5,5.4-1.6,6.4c-1.1,1.1-3.3,1.6-6.6,1.6c-3.5,0-5.7-0.5-6.8-1.5s-1.6-3.3-1.6-6.7
		l0.1-1.9h4.5c0.1,0.9,0.1,1.6,0.1,2.1s0,1,0.1,1.6c0.1,1.5,1.3,2.3,3.7,2.3c1.4,0,2.3-0.3,2.7-0.8c0.4-0.6,0.6-1.8,0.6-3.7v-16.7
		h4.8V201.7z"/>
	<path class="st1" d="M732.7,222h-10.8l-1.7,4.9h-5l8.4-25.2h7.2l8.5,25.2h-5L732.7,222z M731.6,218.5l-4.4-13.1l-4.3,13.1H731.6z"
		/>
	<path class="st1" d="M757.6,201.7h5l-8.1,25.2h-7.4l-8.1-25.2h5l4.7,14.3c0.4,1.4,1.1,3.7,2,6.9h0.1l0.5-1.7
		c0.6-2.1,1.1-3.8,1.5-5.1L757.6,201.7z"/>
	<path class="st1" d="M780,222h-10.9l-1.6,4.9h-5l8.4-25.2h7.2l8.5,25.2h-5L780,222z M778.9,218.5l-4.4-13.1l-4.3,13.1H778.9z"/>
	<path class="st1" d="M807.2,201.7l-19.4,32.8h-3.2l19.4-32.8H807.2z"/>
	<path class="st1" d="M836.3,201.7v17.4c0,3.2-0.5,5.4-1.6,6.4c-1.1,1.1-3.3,1.6-6.6,1.6c-3.5,0-5.7-0.5-6.8-1.5s-1.6-3.3-1.6-6.7
		l0.1-1.9h4.5c0.1,0.9,0.1,1.6,0.1,2.1s0,1,0.1,1.6c0.1,1.5,1.3,2.3,3.7,2.3c1.4,0,2.3-0.3,2.7-0.8s0.6-1.8,0.6-3.7v-16.7h4.8V201.7
		z"/>
	<path class="st1" d="M845,205.7v6.5h11.9v3.5H845v7.1h12.6v4h-17.3v-25.2h17.3v4C857.6,205.7,845,205.7,845,205.7z"/>
	<path class="st1" d="M865.4,205.7v6.5h11.9v3.5h-11.9v7.1H878v4h-17.3v-25.2h17.2v4C877.9,205.7,865.4,205.7,865.4,205.7z"/>
</g>
<g>
	<path class="st1" d="M242.3,227.7v-29.2H254h1.5c3.9,0,6.6,0.7,7.9,2c1.4,1.4,2,4,2,7.9s-0.7,6.5-2,7.8s-3.9,1.9-7.9,1.9h-1.3h-6.5
		v9.4L242.3,227.7L242.3,227.7z M247.9,213.5h6.3c2.5,0,4.1-0.3,4.7-0.9c0.7-0.6,1-2,1-4.1c0-2.5-0.3-4-0.9-4.6s-2-0.9-4.4-0.9h-6.9
		L247.9,213.5L247.9,213.5z"/>
	<path class="st1" d="M285.7,207.2l-5.4,21.7c-0.7,3.1-1.7,5.2-2.8,6.2c-1.1,1.1-2.9,1.6-5.4,1.6c-0.6,0-1.2,0-1.7-0.1V233
		c0.4,0,0.8,0.1,1.1,0.1c2.1,0,3.4-1.8,3.9-5.4H273l-6.7-20.4h5.2l2.6,8.7l1.3,4.3c0.1,0.3,0.3,1,0.6,2.2l0.6,2.2h0.1l0.4-2.2
		c0.2-1.1,0.4-1.8,0.4-2.2l1-4.3l2-8.7L285.7,207.2L285.7,207.2z"/>
	<path class="st1" d="M301.1,207.2v3.7h-7.9v10.3c0,1.9,0.7,2.8,2.2,2.8c1.6,0,2.4-1.2,2.4-3.4v-0.8h4.2v1c0,0.9,0,1.7-0.1,2.4
		c-0.3,3.1-2.6,4.7-7,4.7s-6.6-2-6.6-6V211h-2.6v-3.7h2.6v-4.6h4.9v4.6L301.1,207.2L301.1,207.2z"/>
	<path class="st1" d="M309.6,198.5v12.1h0.1c0.9-2.4,3-3.6,6.3-3.6c4.7,0,7.1,2.3,7.1,6.8v13.8h-4.9v-12.5v-0.7
		c0-2.4-1.2-3.6-3.6-3.6c-3.4,0-5,1.7-5,5.2v11.6h-4.9v-29.2C304.6,198.5,309.6,198.5,309.6,198.5z"/>
	<path class="st1" d="M336.8,207c3.9,0,6.6,0.7,7.7,1.9c1.2,1.2,1.8,3.9,1.8,7.9c0,4.5-0.6,7.5-1.8,8.9s-3.7,2.1-7.6,2.1
		c-4.2,0-6.9-0.7-8.1-2s-1.8-4.2-1.8-8.7c0-4.3,0.6-7.1,1.8-8.4S332.8,207,336.8,207z M336.8,210.8c-2,0-3.4,0.4-3.9,1.1
		c-0.5,0.7-0.8,2.5-0.8,5.1c0,3.1,0.3,5,0.8,5.8s1.8,1.2,3.9,1.2c2,0,3.4-0.4,3.9-1.2s0.8-2.8,0.8-5.8c0-2.6-0.3-4.3-0.8-5
		S338.8,210.8,336.8,210.8z"/>
	<path class="st1" d="M350.5,207.2h4.9l-0.2,3.4h0.1c0.9-2.5,3.1-3.7,6.4-3.7c4.8,0,7.2,2.3,7.2,6.8v13.9H364v-12.2v-0.8l-0.1-1.5
		c-0.2-1.5-1.5-2.3-3.6-2.3c-3.3,0-5,1.5-5,4.7v12.1h-4.9L350.5,207.2L350.5,207.2z"/>
</g>
<g>
	<g>
		<path class="st1" d="M423.3,196c5.4-2.4,6.2-20.9,3-26.4c-4.1-7.1-23.8-5.7-30-0.6c-0.7,2.5-0.6,7.1-0.6,10.8h19.5v1.7h-19.5
			l-8.7,0.1c-14.9,0-14.6,32.5,5.1,32.5c0,0,0.7-7.2,2-10.8C398,192.1,414.4,200,423.3,196z M402.9,177.1c-2.2,0-4.1-1.8-4.1-4.1
			c0-2.2,1.8-4.1,4.1-4.1c2.2,0,4.1,1.8,4.1,4.1C406.9,175.3,405.1,177.1,402.9,177.1z"/>
		<path class="st1" d="M430.8,182.2c0,0-0.5,7.2-1.8,10.8c-3.9,11.1-20.4,3.2-29.2,7.2c-5.4,2.4-6.2,20.9-3,26.4
			c4.1,7.1,23.8,5.7,30,0.6c0.7-2.5,0.6-7.1,0.6-10.8h-19.5v-1.7h19.5l9.6-0.1C450.8,214.7,452,182.2,430.8,182.2z M419.5,218.3
			c2.2,0,4.1,1.8,4.1,4.1c0,2.2-1.8,4.1-4.1,4.1s-4.1-1.8-4.1-4.1C415.5,220.2,417.3,218.3,419.5,218.3z"/>
	</g>
</g>
<g id="XMLID_7_">
	<path id="XMLID_8_" class="st1" d="M648.7,156.3c-4.9,3.4-10.4,7.3-13.4,13.8c-5.2,11.3,10.6,23.5,11.2,24.1
		c0.2,0.1,0.3,0.2,0.5,0.2s0.4-0.1,0.6-0.2c0.3-0.3,0.4-0.7,0.2-1.1c-0.1-0.1-5.7-11.1-5.5-18.9c0.1-2.7,3.9-5.8,8-9.1
		c3.7-3,7.9-6.4,10.4-10.4c5.4-8.8-0.6-17.4-0.7-17.5c-0.2-0.3-0.7-0.5-1.1-0.3c-0.4,0.2-0.6,0.6-0.5,1c0,0.1,1.2,5.8-2.1,11.7
		C655,151.8,652.1,153.9,648.7,156.3z"/>
	<path id="XMLID_9_" class="st1" d="M669.3,160.1c0.3-0.3,0.4-0.7,0.2-1.1c-0.2-0.4-0.7-0.5-1.1-0.4c-0.8,0.3-20.4,7.8-20.4,16.9
		c0,6.3,2.7,9.6,4.6,12c0.8,0.9,1.4,1.8,1.6,2.5c0.6,2-0.8,5.7-1.5,6.9c-0.2,0.4-0.1,0.8,0.2,1c0.2,0.1,0.4,0.2,0.6,0.2
		s0.3-0.1,0.5-0.2c0.3-0.2,8.2-5.8,6.8-12.5c-0.5-2.5-1.8-4.4-2.9-6.1c-1.7-2.5-2.9-4.4-1.1-7.8
		C659.2,167.7,669.2,160.2,669.3,160.1z"/>
	<path id="XMLID_10_" class="st1" d="M618.5,198.3c-0.3,1-0.2,2,0.5,2.9c2.1,2.9,9.6,4.6,21.1,4.6l0,0c1.6,0,3.2,0,4.9-0.1
		c18.4-0.7,25.2-6.4,25.5-6.6c0.3-0.3,0.4-0.7,0.2-1.1c-0.2-0.4-0.6-0.5-1-0.4c-6.5,1.8-18.6,2.4-27,2.4c-9.4,0-14.2-0.7-15.3-1.2
		c0.6-0.8,4.3-2.3,8.9-3.2c0.4-0.1,0.7-0.5,0.7-0.9s-0.4-0.8-0.9-0.8C633.4,193.9,619.9,194.1,618.5,198.3z"/>
	<path id="XMLID_11_" class="st1" d="M680,192.4c-3.8,0-7.4,1.9-7.5,2c-0.4,0.2-0.5,0.6-0.4,1c0.1,0.4,0.4,0.7,0.8,0.7
		c0.1,0,8.1,0.1,8.8,4.6c0.6,3.9-7.6,10.3-10.8,12.5c-0.3,0.2-0.5,0.7-0.3,1.1c0.1,0.3,0.5,0.5,0.8,0.5c0.1,0,0.1,0,0.2,0
		c0.8-0.2,18.7-4.1,16.8-14.6C687.2,193.8,683.2,192.4,680,192.4z"/>
	<path id="XMLID_12_" class="st1" d="M667.7,211.9c0.1-0.3-0.1-0.7-0.4-0.9l-4.3-3c-0.2-0.1-0.5-0.2-0.7-0.1c0,0-4.5,1.2-11.1,1.9
		c-2.6,0.3-5.5,0.4-8.4,0.4c-6.5,0-10.8-0.8-11.4-1.3c-0.1-0.2-0.1-0.2,0-0.3c0.1-0.3,0.7-0.7,1.1-0.8c0.4-0.2,0.7-0.6,0.5-1.1
		c-0.1-0.4-0.6-0.7-1-0.6c-4.3,1-6.4,2.5-6.3,4.3c0.3,3.2,7.8,4.9,14.1,5.4c0.9,0.1,1.9,0.1,2.9,0.1l0,0c10.6,0,24.1-3.3,24.3-3.3
		C667.4,212.5,667.6,212.2,667.7,211.9z"/>
	<path id="XMLID_13_" class="st1" d="M635.3,218.9c0.3-0.2,0.5-0.6,0.4-1c-0.1-0.4-0.5-0.6-0.9-0.6c-0.6,0-5.7,0.2-6,3.5
		c-0.1,1,0.2,1.8,0.8,2.6c1.8,2.2,6.7,3.4,15.1,3.9c1,0.1,2,0.1,3,0.1c10.6,0,17.7-3.3,18-3.4c0.3-0.1,0.5-0.4,0.5-0.7
		s-0.1-0.6-0.4-0.8l-5.4-3.3c-0.2-0.1-0.4-0.2-0.6-0.1c0,0-3.5,0.7-8.7,1.4c-1,0.1-2.2,0.2-3.7,0.2c-5.2,0-11-0.9-12.1-1.4
		C635.1,219.1,635.1,219,635.3,218.9z"/>
	<path id="XMLID_14_" class="st1" d="M642.7,237.4c24.2,0,37.2-4.3,39.7-7c0.9-1,1-1.9,0.9-2.5c-0.2-1.5-1.5-2.3-1.7-2.4
		c-0.4-0.2-0.8-0.2-1.1,0.2c-0.3,0.3-0.3,0.8,0,1.1c0.2,0.2,0.2,0.5-0.2,1c-1,0.9-11.1,3.8-27.9,4.6c-2.3,0.1-4.7,0.2-7.2,0.2
		c-15,0-26-2.1-27.5-3.3c0.6-0.8,4.4-2.1,8.6-2.8c0.5-0.1,0.8-0.5,0.7-1c-0.1-0.5-0.5-0.8-1-0.7c-0.1,0-0.5,0-1,0.1
		c-6.8,0.4-14.7,1.3-15.1,4.9c-0.1,1.1,0.2,2,0.9,2.9C612.7,234.6,618,237.4,642.7,237.4L642.7,237.4z"/>
	<path id="XMLID_15_" class="st1" d="M687.1,231.1c-0.3-0.2-0.7-0.1-1,0.2c0,0-3.7,3.8-14.6,6.1c-4.2,0.8-12,1.3-23.3,1.3
		s-22.1-0.4-22.2-0.5c-0.5,0-0.8,0.3-0.9,0.7c-0.1,0.4,0.2,0.9,0.7,1c0.1,0,11.4,2.7,26.9,2.7c7.4,0,14.6-0.6,21.4-1.8
		c12.7-2.2,13.6-8.5,13.6-8.8C687.6,231.6,687.4,231.3,687.1,231.1z"/>
</g>
<g>
	<path class="st1" d="M390.4,321.5c-4.3,0-8.6,0-12.9,0c-0.3,0-0.9-0.5-1-0.8c-0.3-0.8-0.4-1.7-0.7-2.8c-0.4,0.3-0.6,0.4-0.9,0.7
		c-4.7,4.2-12.5,5.2-18,2.3c-8.7-4.6-9.2-17.3-1-23.1c3.5-2.5,7.6-3.6,11.8-4.1c2.1-0.3,4.3-0.4,6.4-0.6c0.2-1.6-0.6-2.9-2.5-3.3
		c-1.9-0.4-3.9-0.5-5.8-0.4c-3.5,0.1-6.8,1.3-10.1,3c-0.7-2.5-1.4-5-2.1-7.5c-0.6-2.4-0.6-2.4,1.6-3.3c6.6-2.5,13.5-3.4,20.5-2.3
		c8.4,1.3,13.5,6.9,13.9,15.4c0.3,6.3,0.1,12.7,0.2,19c0,2,0.2,4,0.3,6.1c0,0.3,0.2,0.6,0.3,1C390.4,321,390.4,321.2,390.4,321.5z
		 M374.7,302.3c-1.9,0.3-3.7,0.4-5.5,0.8c-1,0.3-2.1,0.9-2.9,1.6c-2,1.8-1.7,5.3,0.5,6.5c3.1,1.7,7.3-0.2,7.8-3.7
		C374.9,305.9,374.7,304.3,374.7,302.3z"/>
	<path class="st1" d="M192.2,318.9c1-4.2,1.9-8.4,2.9-12.6c3.9,1.8,7.9,3.1,12,3.3c2.3,0.1,4.7,0,7.1-0.4c1.8-0.3,3.3-1.4,3.6-3.4
		c0.3-2-0.6-3.5-2.3-4.4c-2.7-1.3-5.5-2.4-8.3-3.6c-4.2-1.7-8.2-3.8-11.1-7.3c-5.5-6.8-4-17.1,3.4-22.5c3.8-2.8,8.1-4.1,12.8-4.5
		c6-0.4,11.9,0,17.6,2.2c0.4,0.1,0.7,0.3,1.1,0.4c0.1,0,0.2,0.2,0.4,0.3c-1,3.9-2.1,7.9-3.2,12c-1.8-0.6-3.4-1.3-5-1.6
		c-2.9-0.5-5.9-0.8-8.8-0.9c-1.3,0-2.7,0.4-3.8,1c-2.7,1.3-2.9,4.4-0.4,6c1.5,1,3.3,1.7,5,2.5c3.6,1.7,7.4,3,10.8,5
		c5.5,3.2,8.2,8.1,7.8,14.6c-0.4,6.8-3.8,11.5-9.8,14.5c-6.8,3.3-14,3.7-21.2,2.5c-3-0.5-5.8-1.5-8.7-2.3
		C193.3,319.5,192.8,319.2,192.2,318.9z"/>
	<path class="st1" d="M284,292.1c-0.9-3.1-1.8-6.3-2.7-9.5c3-1.6,6.1-2.5,9.3-3c4.6-0.8,9.2-1,13.8-0.2c7.8,1.4,12.6,6.5,13.5,14.4
		c0.2,1.6,0.2,3.3,0.2,4.9c0.1,6.8,0.2,13.5,0.3,20.3c0,0.8,0.2,1.6,0.3,2.5c-0.4,0-0.8,0.1-1.2,0.1c-3.8,0-7.6,0-11.4,0
		c-0.9,0-1.2-0.3-1.4-1.1c-0.1-0.8-0.4-1.6-0.6-2.6c-0.5,0.4-0.8,0.7-1.2,1c-5.2,4.7-14.8,4.9-20,0.4c-7-6.1-5.6-17.9,2.7-22.4
		c4.1-2.2,8.4-3.2,13-3.5c1.3-0.1,2.7-0.2,4-0.3c0-1.8-0.9-2.9-2.8-3.4c-3.4-0.8-6.8-0.5-10.1,0.5
		C287.8,290.6,285.9,291.4,284,292.1z M303.1,302.5c-1,0-1.8,0-2.6,0.1c-1.7,0.4-3.5,0.7-5,1.5c-2.6,1.4-2.8,5.3-0.6,6.9
		c2.9,2.1,7.8,0,8.2-3.5C303.2,305.9,303.1,304.2,303.1,302.5z"/>
	<path class="st1" d="M274.1,280c-0.8,4-1.5,7.7-2.2,11.1c-2.5-0.2-4.8-0.7-7.1-0.7c-4.2,0-7.6,2.6-8.7,6.3
		c-1.4,4.7-0.2,9.3,3.2,11.8c1.9,1.4,4,2,6.3,1.9c2.2-0.1,4.4-0.4,6.8-0.6c0.4,2.2,0.7,4.7,1.1,7.1c0.1,0.9,0.2,1.9,0.4,2.8
		c0.2,0.7-0.1,1.1-0.7,1.2c-8.5,2.2-16.9,2.5-24.6-2.3c-6-3.7-8.4-9.6-8.7-16.3c-0.3-9,3-16.2,11.1-20.6c5-2.7,10.5-3.3,16.1-2.8
		C269.4,279.1,271.7,279.6,274.1,280z"/>
	<path class="st1" d="M342.9,261.2c0,20.2,0,40.1,0,60.2c-5.1,0-10.1,0-15.2,0c0-0.5-0.1-0.9-0.1-1.4c0-19.1,0-38.2,0-57.3
		c0-1.1,0.2-1.6,1.5-1.5c4.1,0.1,8.3,0,12.4,0C341.9,261.2,342.3,261.2,342.9,261.2z"/>
</g>
<path class="st2" d="M141.4,298.9v4.7c0,0.8,17.2,2.1,28.4,4.7c5.4-1.3,9.4-2.8,9.4-4.7v-4.7c0-1.9-4-3.5-9.4-4.7
	C158.5,296.8,141.4,298.1,141.4,298.9"/>
<path class="st2" d="M141.4,280v4.7c0,0.8,17.2,2.1,28.4,4.7c5.4-1.3,9.4-2.8,9.4-4.7V280c0-1.9-4-3.5-9.4-4.7
	C158.5,277.9,141.4,279.2,141.4,280"/>
<path class="st1" d="M141.4,289.5v14.2c0-1.2,37.8-3.5,37.8-9.4V280C179.1,285.9,141.4,288.3,141.4,289.5"/>
<path class="st1" d="M141.4,270.6v14.2c0-1.2,37.8-3.5,37.8-9.4v-14.2C179.1,267.1,141.4,269.4,141.4,270.6"/>
<path class="st1" d="M141.4,308.4v14.2c0-1.2,37.8-3.5,37.8-9.4v-14.2C179.1,304.8,141.4,307.2,141.4,308.4"/>
</svg>
