<?xml version="1.0" encoding="utf-8"?>
<!-- Generator: Adobe Illustrator 22.0.1, SVG Export Plug-In . SVG Version: 6.00 Build 0)  -->
<svg version="1.0" id="Ebene_1" xmlns="http://www.w3.org/2000/svg" xmlns:xlink="http://www.w3.org/1999/xlink" x="0px" y="0px"
	 width="1000px" height="608px" viewBox="0 0 1000 608" style="enable-background:new 0 0 1000 608;" xml:space="preserve" width="1000" height="608">
<style type="text/css">
	.st0{fill:none;}
	.st1{fill:#96BF0D;}
	.st2{fill:#808080;}
</style>
<rect x="309.7" y="306.3" class="st0" width="378" height="41.7"/>
<rect x="225.7" y="215.3" class="st0" width="378" height="75"/>
<rect x="335.7" y="349.2" class="st0" width="289.6" height="31.9"/>
<g>
	<path class="st1" d="M496.4,296v-40h19.7c5.6,0,9.5,1.2,11.7,3.7c2.2,2.4,3.4,6.7,3.4,12.8c0,10-0.9,16.4-2.7,19.2
		c-1.8,2.8-5.8,4.3-12.2,4.3H496.4z M504,289.6h10.8c3.6,0,6-0.8,7-2.5c1.1-1.7,1.6-5.4,1.6-11.1c0-5.9-0.5-9.6-1.4-11.2
		c-1-1.6-3.2-2.4-6.7-2.4H504V289.6z"/>
	<path class="st1" d="M554.6,287h6.7v1.1c0,5.5-4.1,8.2-12.3,8.2c-5.6,0-9.2-0.9-10.9-2.8c-1.7-1.9-2.6-5.9-2.6-12
		c0-5.4,0.9-9.1,2.7-11c1.8-1.9,5.3-2.8,10.5-2.8c5,0,8.3,0.9,10,2.7c1.7,1.8,2.5,5.4,2.5,10.8v2.1h-19c0,0.6-0.1,1-0.1,1.2
		c0,2.8,0.4,4.6,1.3,5.5c0.8,0.9,2.5,1.4,5.1,1.4c2.5,0,4.1-0.3,4.8-0.8C554.2,290,554.6,288.8,554.6,287z M554.6,279.1l0-1.1
		c0-2.2-0.4-3.7-1.2-4.3c-0.8-0.7-2.4-1-5-1c-2.5,0-4.1,0.4-4.9,1.2c-0.8,0.8-1.1,2.5-1.1,5.2H554.6z"/>
	<path class="st1" d="M590.3,268l-8,28h-10.5l-8.4-28h7.1l3.7,12.9c0.5,1.8,1,3.5,1.4,5.2l0.7,2.6l0.7,2.6h0.1l0.6-2.6l0.6-2.6
		c0.5-2,0.9-3.7,1.3-5.2L583,268H590.3z"/>
	<path class="st1" d="M610.1,255.6c7.3,0,11.9,1.2,14,3.6c2.1,2.4,3.1,7.8,3.1,16.2c0,9.2-1.1,14.9-3.1,17.3
		c-2.1,2.4-7.2,3.6-15.2,3.6c-7.3,0-12-1.2-14.1-3.5c-2.1-2.4-3.2-7.5-3.2-15.5c0-9.5,1-15.5,3.1-18
		C596.8,256.9,601.9,255.6,610.1,255.6z M609.5,262.2c-5.1,0-8.1,0.7-8.9,2c-0.9,1.3-1.3,5.8-1.3,13.6c0,5.7,0.5,9.2,1.5,10.4
		c1,1.2,4,1.8,8.9,1.8c4.7,0,7.5-0.7,8.5-2s1.4-5.3,1.4-12c0-6.7-0.4-10.7-1.3-11.9C617.3,262.8,614.4,262.2,609.5,262.2z"/>
	<path class="st1" d="M632.2,268h6.8l-0.3,4.2l0.1,0c1.6-3,4.6-4.5,9.1-4.5c4.1,0,6.9,1,8.4,3c1.5,2,2.3,5.7,2.3,11.1
		c0,5.6-0.8,9.4-2.3,11.5c-1.5,2.1-4.3,3.1-8.5,3.1c-4.4,0-7.3-1.5-8.6-4.4h-0.1V308h-7V268z M645.4,272.9c-2.6,0-4.2,0.6-5,1.7
		c-0.8,1.2-1.2,3.6-1.2,7.3c0,3.6,0.4,6,1.3,7.2c0.8,1.2,2.5,1.8,5.1,1.8c2.6,0,4.3-0.6,5.1-1.7c0.8-1.1,1.2-3.6,1.2-7.3
		c0-3.8-0.4-6.3-1.2-7.4S648.1,272.9,645.4,272.9z"/>
	<path class="st1" d="M687.6,275.7h-6.6c0-0.2-0.1-0.4-0.1-0.5c-0.1-1.3-0.5-2.2-1.2-2.5c-0.6-0.3-2.2-0.5-4.6-0.5
		c-3.5,0-5.2,1.1-5.2,3.4c0,1.5,0.3,2.5,0.9,2.8s2.7,0.5,6.3,0.7c4.8,0.2,7.9,0.9,9.3,1.9c1.4,1,2.2,3.2,2.2,6.4
		c0,3.4-1,5.8-2.9,7.1s-5.4,2-10.4,2c-4.8,0-8.1-0.6-9.8-1.8c-1.8-1.2-2.6-3.4-2.6-6.7v-0.7h7c-0.1,0.4-0.2,0.7-0.2,0.9
		c-0.3,2.5,1.6,3.7,5.7,3.7c4.2,0,6.4-1.2,6.4-3.7c0-2.4-1.3-3.5-4-3.5c-6,0-9.9-0.6-11.9-1.7c-1.9-1.1-2.9-3.5-2.9-7.1
		c0-3.2,0.9-5.4,2.6-6.5c1.7-1.1,5.1-1.7,10-1.7c4.7,0,7.8,0.5,9.4,1.6C686.8,270.4,687.6,272.5,687.6,275.7z"/>
</g>
<g>
	<path class="st2" d="M284.2,145.3h-15.5l-2.2,6.9h-7.2l11.9-35.9h10.3l12.1,35.9h-7.1L284.2,145.3z M282.7,140.3l-6.2-18.6
		l-6.1,18.6H282.7z"/>
	<path class="st2" d="M319,127v25.5c0,4.1-0.8,6.9-2.5,8.4c-1.7,1.5-4.7,2.2-9.1,2.2c-4.3,0-7.2-0.5-8.6-1.7
		c-1.4-1.2-2.2-3.4-2.2-6.8h5.8c0,1.6,0.3,2.7,0.9,3.1s2,0.7,4.1,0.7c3.8,0,5.6-1.5,5.6-4.7v-5.6h-0.1c-1.1,2.7-3.5,4-7.4,4
		c-3.8,0-6.4-0.9-7.8-2.8c-1.4-1.9-2.1-5.3-2.1-10.3c0-4.8,0.7-8,2.1-9.8s3.9-2.7,7.6-2.7c4,0,6.6,1.5,7.9,4.5h0.1l-0.3-4.1L319,127
		L319,127z M307.1,131.5c-2.3,0-3.8,0.4-4.5,1.4s-1,3-1,6.4c0,3.5,0.4,5.8,1,6.8s2.2,1.4,4.6,1.4s3.9-0.5,4.6-1.5
		c0.7-1,1.1-3.2,1.1-6.7c0-3.3-0.4-5.5-1.1-6.4C311.1,132.1,309.5,131.5,307.1,131.5z"/>
	<path class="st2" d="M330.9,116.4v5h-6v-5H330.9z M330.9,127v25.1h-6V127C324.9,127,330.9,127,330.9,127z"/>
	<path class="st2" d="M342.9,116.4v35.9h-6v-35.9C336.9,116.4,342.9,116.4,342.9,116.4z"/>
	<path class="st2" d="M364.9,144.2h6v1c0,4.9-3.7,7.4-11,7.4c-5,0-8.2-0.8-9.8-2.5c-1.5-1.7-2.3-5.3-2.3-10.8c0-4.8,0.8-8.2,2.4-9.9
		c1.6-1.7,4.8-2.5,9.4-2.5c4.5,0,7.4,0.8,9,2.4s2.2,4.8,2.2,9.7v1.9h-17c0,0.5-0.1,0.9-0.1,1.1c0,2.5,0.4,4.1,1.2,4.9
		s2.2,1.3,4.6,1.3c2.2,0,3.7-0.3,4.3-0.7C364.4,146.9,364.9,145.8,364.9,144.2z M365,137v-1c0-2-0.4-3.3-1.1-3.9
		c-0.7-0.6-2.2-0.9-4.5-0.9c-2.2,0-3.7,0.4-4.4,1.1c-0.7,0.7-1,2.2-1,4.7C354.1,137,365,137,365,137z"/>
</g>
<rect x="380.7" y="266.3" class="st0" width="378" height="41.7"/>
<g>
	<path class="st2" d="M306.2,389h-17.3l-2.5,7.7h-8l13.3-40h11.4l13.5,40h-7.9L306.2,389z M304.4,383.4l-6.9-20.8l-6.8,20.8H304.4z"
		/>
	<path class="st2" d="M337.9,368.6v5.1h-10.8v14.1c0,2.6,1,3.9,3,3.9c2.2,0,3.3-1.6,3.3-4.7v-1.1h5.7v1.4c0,1.3,0,2.4-0.1,3.3
		c-0.4,4.3-3.6,6.4-9.6,6.4s-9-2.7-9-8.2v-15h-3.6v-5.1h3.6v-6.3h6.7v6.3h10.8V368.6z"/>
	<path class="st2" d="M349.5,356.7v40h-6.7v-40C342.8,356.7,349.5,356.7,349.5,356.7z"/>
	<path class="st2" d="M363,376.8h-6.9c0-3.4,0.8-5.6,2.3-6.7c1.6-1.1,4.7-1.7,9.3-1.7c5,0,8.4,0.7,10.2,2.1s2.7,4,2.7,7.9v18.3h-6.7
		l0.3-3.8H374c-1.3,2.8-4.3,4.2-8.9,4.2c-6.8,0-10.2-2.9-10.2-8.6c0-5.8,3.5-8.7,10.4-8.7c4.6,0,7.4,1.1,8.4,3.2h0.1v-4.7
		c0-2.2-0.4-3.6-1.1-4.4c-0.7-0.8-2.3-1.1-4.7-1.1C364.8,372.8,363,374.1,363,376.8z M367.5,384.1c-3.8,0-5.7,1.3-5.7,3.9
		c0,1.8,0.4,3,1.2,3.6c0.8,0.6,2.4,0.8,4.9,0.8c4.1,0,6.1-1.4,6.1-4.1C374.1,385.5,371.9,384.1,367.5,384.1z"/>
	<path class="st2" d="M410.8,376.4h-6.6c0-0.2-0.1-0.4-0.1-0.5c-0.1-1.3-0.5-2.2-1.2-2.5c-0.7-0.3-2.2-0.5-4.6-0.5
		c-3.5,0-5.2,1.1-5.2,3.4c0,1.5,0.3,2.5,0.9,2.8c0.6,0.3,2.7,0.5,6.3,0.7c4.8,0.2,7.9,0.9,9.3,1.9s2.2,3.2,2.2,6.4
		c0,3.4-1,5.8-2.9,7.1c-1.9,1.3-5.4,2-10.4,2c-4.8,0-8.1-0.6-9.8-1.8s-2.6-3.4-2.6-6.7V388h7c-0.1,0.4-0.2,0.7-0.2,0.9
		c-0.3,2.5,1.6,3.7,5.7,3.7c4.2,0,6.4-1.2,6.4-3.7c0-2.4-1.3-3.5-4-3.5c-6,0-9.9-0.6-11.9-1.7c-2-1.1-2.9-3.5-2.9-7.1
		c0-3.2,0.9-5.4,2.6-6.5c1.7-1.1,5.1-1.7,10-1.7c4.7,0,7.8,0.5,9.4,1.6S410.8,373.2,410.8,376.4z"/>
	<path class="st2" d="M440.4,376.4h-6.6c0-0.2-0.1-0.4-0.1-0.5c-0.1-1.3-0.5-2.2-1.2-2.5c-0.7-0.3-2.2-0.5-4.6-0.5
		c-3.5,0-5.2,1.1-5.2,3.4c0,1.5,0.3,2.5,0.9,2.8c0.6,0.3,2.7,0.5,6.3,0.7c4.8,0.2,7.9,0.9,9.3,1.9c1.4,1,2.2,3.2,2.2,6.4
		c0,3.4-1,5.8-2.9,7.1c-1.9,1.3-5.4,2-10.4,2c-4.8,0-8.1-0.6-9.8-1.8c-1.7-1.2-2.6-3.4-2.6-6.7V388h7c-0.1,0.4-0.2,0.7-0.2,0.9
		c-0.3,2.5,1.6,3.7,5.7,3.7c4.2,0,6.4-1.2,6.4-3.7c0-2.4-1.3-3.5-4-3.5c-6,0-9.9-0.6-11.9-1.7c-2-1.1-2.9-3.5-2.9-7.1
		c0-3.2,0.9-5.4,2.6-6.5c1.7-1.1,5.1-1.7,10-1.7c4.7,0,7.8,0.5,9.4,1.6C439.4,371.1,440.4,373.2,440.4,376.4z"/>
	<path class="st2" d="M453.5,356.7v5.6h-6.7v-5.6H453.5z M453.5,368.6v28h-6.7v-28C446.8,368.6,453.5,368.6,453.5,368.6z"/>
	<path class="st2" d="M467,376.8h-6.9c0-3.4,0.8-5.6,2.3-6.7s4.7-1.7,9.3-1.7c5,0,8.4,0.7,10.2,2.1c1.8,1.4,2.7,4,2.7,7.9v18.3h-6.7
		l0.3-3.8H478c-1.3,2.8-4.3,4.2-8.9,4.2c-6.8,0-10.2-2.9-10.2-8.6c0-5.8,3.5-8.7,10.4-8.7c4.6,0,7.4,1.1,8.4,3.2h0.1v-4.7
		c0-2.2-0.4-3.6-1.1-4.4c-0.7-0.8-2.3-1.1-4.7-1.1C468.7,372.8,467,374.1,467,376.8z M471.5,384.1c-3.8,0-5.7,1.3-5.7,3.9
		c0,1.8,0.4,3,1.2,3.6c0.8,0.6,2.4,0.8,4.9,0.8c4.1,0,6.1-1.4,6.1-4.1C478,385.5,475.9,384.1,471.5,384.1z"/>
	<path class="st2" d="M491.4,368.6h6.7l-0.3,4.7h0.1c1.3-3.4,4.2-5.1,8.8-5.1c6.6,0,9.9,3.1,9.9,9.3v19.1h-6.7v-16.8v-1.1l-0.1-2
		c-0.3-2.1-2-3.1-4.9-3.1c-4.5,0-6.8,2.1-6.8,6.4v16.6h-6.7V368.6z"/>
</g>
<rect x="360.7" y="274.3" class="st0" width="378" height="41.7"/>
<g>
	<path class="st2" d="M563.5,356.2h4.6v0.8c0,3.3-0.6,5.5-1.8,6.5s-3.9,1.5-8.1,1.5c-4.7,0-7.6-0.8-8.7-2.3s-1.6-5.7-1.6-12.4
		c0-4,0.7-6.6,2.2-7.8c1.5-1.2,4.6-1.9,9.3-1.9c3.4,0,5.7,0.5,6.9,1.5s1.7,3.1,1.7,6.1v0.5h-4.6v-0.6c0-1.6-0.3-2.6-0.9-3
		c-0.6-0.4-2.1-0.7-4.2-0.7c-2.8,0-4.5,0.3-5.1,1c-0.6,0.7-0.9,2.7-0.9,6.2c0,4.6,0.3,7.3,0.8,8.2s2.2,1.3,4.9,1.3
		c2.3,0,3.7-0.2,4.4-0.7s1-1.5,1-3.1L563.5,356.2z"/>
	<path class="st2" d="M578.2,347.8c3.2,0,5.4,0.5,6.4,1.6s1.5,3.2,1.5,6.6c0,3.7-0.5,6.2-1.5,7.3s-3.1,1.7-6.2,1.7
		c-3.4,0-5.7-0.5-6.7-1.6s-1.5-3.5-1.5-7.1c0-3.5,0.5-5.8,1.5-6.9S574.8,347.8,578.2,347.8z M578.1,351c-1.7,0-2.7,0.3-3.2,0.9
		s-0.7,2-0.7,4.2c0,2.5,0.2,4.1,0.7,4.7s1.5,0.9,3.3,0.9c1.7,0,2.7-0.3,3.2-1c0.5-0.7,0.7-2.3,0.7-4.8c0-2.1-0.2-3.5-0.7-4.1
		C580.9,351.2,579.8,351,578.1,351z"/>
	<path class="st2" d="M589.4,348h4l-0.2,2.8h0.1c0.8-2,2.5-3,5.3-3c4,0,6,1.9,6,5.6v11.4h-4v-10.1v-0.6l-0.1-1.2
		c-0.2-1.3-1.2-1.9-3-1.9c-2.7,0-4.1,1.3-4.1,3.8v10h-4C589.4,364.8,589.4,348,589.4,348z"/>
	<path class="st2" d="M619.3,348v3.1h-6.5v8.4c0,1.6,0.6,2.3,1.8,2.3c1.3,0,2-0.9,2-2.8v-0.7h3.4v0.8c0,0.8,0,1.4-0.1,2
		c-0.2,2.6-2.1,3.8-5.7,3.8s-5.4-1.6-5.4-4.9v-9h-2.2v-3.1h2.2V344h4v3.8h6.5V348z"/>
	<path class="st2" d="M626.3,340.9v3.4h-4v-3.4H626.3z M626.3,348v16.8h-4V348H626.3z"/>
	<path class="st2" d="M630.2,348h4l-0.2,2.8h0.1c0.8-2,2.5-3,5.3-3c4,0,6,1.9,6,5.6v11.4h-4v-10.1v-0.6l-0.1-1.2
		c-0.2-1.3-1.2-1.9-3-1.9c-2.7,0-4.1,1.3-4.1,3.8v10h-4V348z"/>
	<path class="st2" d="M664.2,348v16.8h-4l0.2-2.9h-0.1c-0.8,2.1-2.6,3.1-5.4,3.1c-3.8,0-5.7-1.9-5.7-5.7V348h4v10.3
		c0,1.4,0.2,2.4,0.6,2.8c0.4,0.4,1.2,0.7,2.5,0.7c2.6,0,3.9-1.5,3.9-4.6V348H664.2z"/>
	<path class="st2" d="M675.7,347.8c3.2,0,5.4,0.5,6.4,1.6s1.5,3.2,1.5,6.6c0,3.7-0.5,6.2-1.5,7.3s-3.1,1.7-6.2,1.7
		c-3.4,0-5.7-0.5-6.7-1.6s-1.5-3.5-1.5-7.1c0-3.5,0.5-5.8,1.5-6.9S672.4,347.8,675.7,347.8z M675.7,351c-1.7,0-2.7,0.3-3.2,0.9
		s-0.7,2-0.7,4.2c0,2.5,0.2,4.1,0.7,4.7s1.5,0.9,3.3,0.9c1.7,0,2.7-0.3,3.2-1c0.5-0.7,0.7-2.3,0.7-4.8c0-2.1-0.2-3.5-0.7-4.1
		C678.5,351.2,677.3,351,675.7,351z"/>
	<path class="st2" d="M701.9,348v16.8h-4l0.2-2.9H698c-0.8,2.1-2.6,3.1-5.4,3.1c-3.8,0-5.7-1.9-5.7-5.7V348h4v10.3
		c0,1.4,0.2,2.4,0.6,2.8c0.4,0.4,1.2,0.7,2.5,0.7c2.6,0,3.9-1.5,3.9-4.6V348H701.9z"/>
	<path class="st2" d="M720,352.6h-3.9c0-0.1,0-0.2-0.1-0.3c-0.1-0.8-0.3-1.3-0.7-1.5c-0.4-0.2-1.3-0.3-2.8-0.3c-2.1,0-3.1,0.7-3.1,2
		c0,0.9,0.2,1.5,0.6,1.7c0.4,0.2,1.6,0.3,3.8,0.4c2.9,0.1,4.7,0.5,5.6,1.1c0.9,0.6,1.3,1.9,1.3,3.8c0,2.1-0.6,3.5-1.7,4.3
		s-3.2,1.2-6.2,1.2c-2.9,0-4.8-0.4-5.9-1.1c-1.1-0.7-1.6-2.1-1.6-4v-0.4h4.2c-0.1,0.2-0.1,0.4-0.1,0.6c-0.2,1.5,1,2.2,3.4,2.2
		c2.5,0,3.8-0.7,3.8-2.2c0-1.4-0.8-2.1-2.4-2.1c-3.6,0-6-0.3-7.1-1c-1.1-0.7-1.7-2.1-1.7-4.2c0-1.9,0.5-3.2,1.6-3.9c1.1-0.7,3-1,6-1
		c2.8,0,4.7,0.3,5.7,1C719.7,349.6,720,350.8,720,352.6z"/>
	<path class="st2" d="M732.9,364.8v-24h11.8c3.4,0,5.7,0.7,7,2.2s2,4,2,7.7c0,6-0.5,9.8-1.6,11.5c-1.1,1.7-3.5,2.6-7.3,2.6H732.9z
		 M737.4,361h6.5c2.2,0,3.6-0.5,4.2-1.5c0.6-1,1-3.2,1-6.6c0-3.5-0.3-5.8-0.9-6.8s-1.9-1.4-4-1.4h-6.8V361z"/>
	<path class="st2" d="M767.8,359.5h4v0.7c0,3.3-2.5,4.9-7.4,4.9c-3.3,0-5.5-0.6-6.6-1.7c-1.1-1.1-1.5-3.5-1.5-7.2
		c0-3.3,0.5-5.5,1.6-6.6c1.1-1.1,3.2-1.7,6.3-1.7c3,0,5,0.5,6,1.6c1,1.1,1.5,3.2,1.5,6.5v1.2h-11.4c0,0.4,0,0.6,0,0.7
		c0,1.7,0.3,2.8,0.8,3.3s1.5,0.8,3,0.8s2.4-0.2,2.9-0.5C767.5,361.1,767.8,360.5,767.8,359.5z M767.8,354.6V354
		c0-1.3-0.2-2.2-0.7-2.6s-1.5-0.6-3-0.6s-2.5,0.2-2.9,0.7c-0.4,0.5-0.7,1.5-0.7,3.1L767.8,354.6L767.8,354.6z"/>
	<path class="st2" d="M779.2,340.9v24h-4v-24H779.2z"/>
	<path class="st2" d="M787.2,340.9v3.4h-4v-3.4H787.2z M787.2,348v16.8h-4V348H787.2z"/>
	<path class="st2" d="M805.1,348l-4.8,16.8H794l-5.1-16.8h4.3l2.2,7.8c0.3,1.1,0.6,2.1,0.8,3.1l0.4,1.6l0.4,1.6h0.1l0.5-1.6l0.4-1.5
		c0.3-1.2,0.5-2.2,0.8-3.1l2.1-7.8h4.2V348z"/>
	<path class="st2" d="M817.8,359.5h4v0.7c0,3.3-2.5,4.9-7.4,4.9c-3.3,0-5.5-0.6-6.6-1.7c-1.1-1.1-1.5-3.5-1.5-7.2
		c0-3.3,0.5-5.5,1.6-6.6c1.1-1.1,3.2-1.7,6.3-1.7c3,0,5,0.5,6,1.6c1,1.1,1.5,3.2,1.5,6.5v1.2h-11.4c0,0.4,0,0.6,0,0.7
		c0,1.7,0.3,2.8,0.8,3.3s1.5,0.8,3,0.8s2.4-0.2,2.9-0.5C817.5,361.1,817.8,360.5,817.8,359.5z M817.8,354.6V354
		c0-1.3-0.2-2.2-0.7-2.6s-1.5-0.6-3-0.6s-2.5,0.2-2.9,0.7c-0.4,0.5-0.7,1.5-0.7,3.1L817.8,354.6L817.8,354.6z"/>
	<path class="st2" d="M825.3,348h4l-0.2,2.4h0.1c1-1.8,2.5-2.6,4.5-2.6c3,0,4.4,1.9,4.4,5.6v1.1h-3.8c0-0.5,0.1-0.8,0.1-0.9
		c0-1.8-0.7-2.7-2.1-2.7c-2,0-3,1.3-3,4v9.9h-4V348z"/>
	<path class="st2" d="M854.2,348l-4.4,17.9c-0.6,2.5-1.4,4.2-2.3,5.1c-0.9,0.9-2.4,1.3-4.4,1.3c-0.5,0-0.9,0-1.4-0.1v-3
		c0.4,0,0.6,0,0.9,0c1.7,0,2.8-1.5,3.3-4.5h-2.1l-5.5-16.8h4.3l2.1,7.1l1.1,3.6c0.1,0.2,0.2,0.8,0.5,1.8l0.5,1.8h0.1l0.4-1.8
		c0.2-0.9,0.3-1.5,0.4-1.8l0.8-3.6l1.6-7.1h4.1V348z"/>
</g>
<g id="XMLID_7_">
	<path id="XMLID_8_" class="st2" d="M409.8,179.6c-4.9,3.4-10.4,7.3-13.4,13.8c-5.2,11.3,10.6,23.5,11.2,24.1
		c0.2,0.1,0.3,0.2,0.5,0.2c0.2,0,0.4-0.1,0.6-0.2c0.3-0.3,0.4-0.7,0.2-1.1c-0.1-0.1-5.7-11.1-5.5-18.9c0.1-2.7,3.9-5.8,8-9.1
		c3.7-3,7.9-6.4,10.4-10.4c5.4-8.8-0.6-17.4-0.7-17.5c-0.2-0.3-0.7-0.5-1.1-0.3c-0.4,0.2-0.6,0.6-0.5,1c0,0.1,1.2,5.8-2.1,11.7
		C416.1,175.1,413.2,177.2,409.8,179.6z"/>
	<path id="XMLID_9_" class="st2" d="M430.4,183.4c0.3-0.3,0.4-0.7,0.2-1.1c-0.2-0.4-0.7-0.5-1.1-0.4c-0.8,0.3-20.4,7.8-20.4,16.9
		c0,6.3,2.7,9.6,4.6,12c0.8,0.9,1.4,1.8,1.6,2.5c0.6,2-0.8,5.7-1.5,6.9c-0.2,0.4-0.1,0.8,0.2,1c0.2,0.1,0.4,0.2,0.6,0.2
		c0.2,0,0.3-0.1,0.5-0.2c0.3-0.2,8.2-5.8,6.8-12.5c-0.5-2.5-1.8-4.4-2.9-6.1c-1.7-2.5-2.9-4.4-1.1-7.8
		C420.3,191,430.3,183.5,430.4,183.4z"/>
	<path id="XMLID_10_" class="st2" d="M379.6,221.6c-0.3,1-0.2,2,0.5,2.9c2.1,2.9,9.6,4.6,21.1,4.6c0,0,0,0,0,0c1.6,0,3.2,0,4.9-0.1
		c18.4-0.7,25.2-6.4,25.5-6.6c0.3-0.3,0.4-0.7,0.2-1.1c-0.2-0.4-0.6-0.5-1-0.4c-6.5,1.8-18.6,2.4-27,2.4c-9.4,0-14.2-0.7-15.3-1.2
		c0.6-0.8,4.3-2.3,8.9-3.2c0.4-0.1,0.7-0.5,0.7-0.9s-0.4-0.8-0.9-0.8C394.5,217.2,381,217.4,379.6,221.6z"/>
	<path id="XMLID_11_" class="st2" d="M441.1,215.7c-3.8,0-7.4,1.9-7.5,2c-0.4,0.2-0.5,0.6-0.4,1c0.1,0.4,0.4,0.7,0.8,0.7
		c0.1,0,8.1,0.1,8.8,4.6c0.6,3.9-7.6,10.3-10.8,12.5c-0.3,0.2-0.5,0.7-0.3,1.1c0.1,0.3,0.5,0.5,0.8,0.5c0.1,0,0.1,0,0.2,0
		c0.8-0.2,18.7-4.1,16.8-14.6C448.3,217.1,444.3,215.7,441.1,215.7z"/>
	<path id="XMLID_12_" class="st2" d="M428.8,235.2c0.1-0.3-0.1-0.7-0.4-0.9l-4.3-3c-0.2-0.1-0.5-0.2-0.7-0.1c0,0-4.5,1.2-11.1,1.9
		c-2.6,0.3-5.5,0.4-8.4,0.4c-6.5,0-10.8-0.8-11.4-1.3c-0.1-0.2-0.1-0.2,0-0.3c0.1-0.3,0.7-0.7,1.1-0.8c0.4-0.2,0.7-0.6,0.5-1.1
		c-0.1-0.4-0.6-0.7-1-0.6c-4.3,1-6.4,2.5-6.3,4.3c0.3,3.2,7.8,4.9,14.1,5.4c0.9,0.1,1.9,0.1,2.9,0.1c0,0,0,0,0,0
		c10.6,0,24.1-3.3,24.3-3.3C428.5,235.8,428.7,235.5,428.8,235.2z"/>
	<path id="XMLID_13_" class="st2" d="M396.4,242.2c0.3-0.2,0.5-0.6,0.4-1c-0.1-0.4-0.5-0.6-0.9-0.6c-0.6,0-5.7,0.2-6,3.5
		c-0.1,1,0.2,1.8,0.8,2.6c1.8,2.2,6.7,3.4,15.1,3.9c1,0.1,2,0.1,3,0.1c10.6,0,17.7-3.3,18-3.4c0.3-0.1,0.5-0.4,0.5-0.7
		c0-0.3-0.1-0.6-0.4-0.8l-5.4-3.3c-0.2-0.1-0.4-0.2-0.6-0.1c0,0-3.5,0.7-8.7,1.4c-1,0.1-2.2,0.2-3.7,0.2c-5.2,0-11-0.9-12.1-1.4
		C396.2,242.4,396.2,242.3,396.4,242.2z"/>
	<path id="XMLID_14_" class="st2" d="M403.8,260.7c24.2,0,37.2-4.3,39.7-7c0.9-1,1-1.9,0.9-2.5c-0.2-1.5-1.5-2.3-1.7-2.4
		c-0.4-0.2-0.8-0.2-1.1,0.2c-0.3,0.3-0.3,0.8,0,1.1c0.2,0.2,0.2,0.5-0.2,1c-1,0.9-11.1,3.8-27.9,4.6c-2.3,0.1-4.7,0.2-7.2,0.2
		c-15,0-26-2.1-27.5-3.3c0.6-0.8,4.4-2.1,8.6-2.8c0.5-0.1,0.8-0.5,0.7-1c-0.1-0.5-0.5-0.8-1-0.7c-0.1,0-0.5,0-1,0.1
		c-6.8,0.4-14.7,1.3-15.1,4.9c-0.1,1.1,0.2,2,0.9,2.9C373.8,257.9,379.1,260.7,403.8,260.7C403.8,260.7,403.8,260.7,403.8,260.7z"/>
	<path id="XMLID_15_" class="st2" d="M448.2,254.4c-0.3-0.2-0.7-0.1-1,0.2c0,0-3.7,3.8-14.6,6.1c-4.2,0.8-12,1.3-23.3,1.3
		c-11.3,0-22.1-0.4-22.2-0.5c-0.5,0-0.8,0.3-0.9,0.7c-0.1,0.4,0.2,0.9,0.7,1c0.1,0,11.4,2.7,26.9,2.7c7.4,0,14.6-0.6,21.4-1.8
		c12.7-2.2,13.6-8.5,13.6-8.8C448.7,254.9,448.5,254.6,448.2,254.4z"/>
</g>
<rect x="320.7" y="184.3" class="st0" width="378" height="41.7"/>
<g>
	<path class="st2" d="M643.8,200.8v17.4c0,3.2-0.5,5.4-1.6,6.4c-1.1,1.1-3.3,1.6-6.6,1.6c-3.5,0-5.7-0.5-6.8-1.5s-1.6-3.3-1.6-6.7
		l0.1-1.9h4.5c0.1,0.9,0.1,1.6,0.1,2.1s0,1,0.1,1.6c0.1,1.5,1.3,2.3,3.7,2.3c1.4,0,2.3-0.3,2.7-0.8c0.4-0.6,0.6-1.8,0.6-3.7v-16.7
		H643.8z"/>
	<path class="st2" d="M663.5,221.1h-10.8L651,226h-5l8.4-25.2h7.2l8.5,25.2h-5L663.5,221.1z M662.4,217.6l-4.4-13.1l-4.3,13.1H662.4
		z"/>
	<path class="st2" d="M688.4,200.8h5l-8.1,25.2h-7.4l-8.1-25.2h5l4.7,14.3c0.4,1.4,1.1,3.7,2,6.9h0.1l0.5-1.7
		c0.6-2.1,1.1-3.8,1.5-5.1L688.4,200.8z"/>
	<path class="st2" d="M710.8,221.1h-10.9l-1.6,4.9h-5l8.4-25.2h7.2l8.5,25.2h-5L710.8,221.1z M709.7,217.6l-4.4-13.1l-4.3,13.1
		H709.7z"/>
	<path class="st2" d="M738,200.8l-19.4,32.8h-3.2l19.4-32.8C734.8,200.8,738,200.8,738,200.8z"/>
	<path class="st2" d="M767.1,200.8v17.4c0,3.2-0.5,5.4-1.6,6.4c-1.1,1.1-3.3,1.6-6.6,1.6c-3.5,0-5.7-0.5-6.8-1.5
		c-1.1-1-1.6-3.3-1.6-6.7l0.1-1.9h4.5c0.1,0.9,0.1,1.6,0.1,2.1s0,1,0.1,1.6c0.1,1.5,1.3,2.3,3.7,2.3c1.4,0,2.3-0.3,2.7-0.8
		s0.6-1.8,0.6-3.7v-16.7H767.1z"/>
	<path class="st2" d="M775.8,204.8v6.5h11.9v3.5h-11.9v7.1h12.6v4h-17.3v-25.2h17.3v4C788.4,204.8,775.8,204.8,775.8,204.8z"/>
	<path class="st2" d="M796.2,204.8v6.5h11.9v3.5h-11.9v7.1h12.6v4h-17.3v-25.2h17.2v4C808.7,204.8,796.2,204.8,796.2,204.8z"/>
</g>
<rect x="239.7" y="194.3" class="st0" width="378" height="41.7"/>
<g>
	<path class="st2" d="M486.6,167.1v-29.2h11.7h1.5c3.9,0,6.6,0.7,7.9,2c1.4,1.4,2,4,2,7.9c0,3.9-0.7,6.5-2,7.8
		c-1.3,1.3-3.9,1.9-7.9,1.9h-1.3h-6.5v9.4L486.6,167.1L486.6,167.1z M492.2,152.9h6.3c2.5,0,4.1-0.3,4.7-0.9c0.7-0.6,1-2,1-4.1
		c0-2.5-0.3-4-0.9-4.6c-0.6-0.6-2-0.9-4.4-0.9h-6.9L492.2,152.9L492.2,152.9z"/>
	<path class="st2" d="M530,146.6l-5.4,21.7c-0.7,3.1-1.7,5.2-2.8,6.2c-1.1,1.1-2.9,1.6-5.4,1.6c-0.6,0-1.2,0-1.7-0.1v-3.6
		c0.4,0,0.8,0.1,1.1,0.1c2.1,0,3.4-1.8,3.9-5.4h-2.4l-6.7-20.4h5.2l2.6,8.7l1.3,4.3c0.1,0.3,0.3,1,0.6,2.2l0.6,2.2h0.1l0.4-2.2
		c0.2-1.1,0.4-1.8,0.4-2.2l1-4.3l2-8.7L530,146.6L530,146.6z"/>
	<path class="st2" d="M545.4,146.6v3.7h-7.9v10.3c0,1.9,0.7,2.8,2.2,2.8c1.6,0,2.4-1.2,2.4-3.4v-0.8h4.2v1c0,0.9,0,1.7-0.1,2.4
		c-0.3,3.1-2.6,4.7-7,4.7c-4.4,0-6.6-2-6.6-6v-10.9H530v-3.7h2.6v-4.6h4.9v4.6L545.4,146.6L545.4,146.6z"/>
	<path class="st2" d="M553.9,137.9V150h0.1c0.9-2.4,3-3.6,6.3-3.6c4.7,0,7.1,2.3,7.1,6.8V167h-4.9v-12.5v-0.7c0-2.4-1.2-3.6-3.6-3.6
		c-3.4,0-5,1.7-5,5.2v11.6h-4.9v-29.2C548.9,137.9,553.9,137.9,553.9,137.9z"/>
	<path class="st2" d="M581.1,146.4c3.9,0,6.6,0.7,7.7,1.9c1.2,1.2,1.8,3.9,1.8,7.9c0,4.5-0.6,7.5-1.8,8.9c-1.2,1.4-3.7,2.1-7.6,2.1
		c-4.2,0-6.9-0.7-8.1-2s-1.8-4.2-1.8-8.7c0-4.3,0.6-7.1,1.8-8.4S577.1,146.4,581.1,146.4z M581.1,150.2c-2,0-3.4,0.4-3.9,1.1
		c-0.5,0.7-0.8,2.5-0.8,5.1c0,3.1,0.3,5,0.8,5.8s1.8,1.2,3.9,1.2c2,0,3.4-0.4,3.9-1.2s0.8-2.8,0.8-5.8c0-2.6-0.3-4.3-0.8-5
		S583.1,150.2,581.1,150.2z"/>
	<path class="st2" d="M594.8,146.6h4.9l-0.2,3.4h0.1c0.9-2.5,3.1-3.7,6.4-3.7c4.8,0,7.2,2.3,7.2,6.8V167h-4.9v-12.2V154l-0.1-1.5
		c-0.2-1.5-1.5-2.3-3.6-2.3c-3.3,0-5,1.5-5,4.7V167h-4.9V146.6z"/>
</g>
<g>
	<path class="st2" d="M244.1,279.4h-7.4c0-0.4-0.1-0.6-0.1-0.8c-0.2-2.2-0.7-3.7-1.5-4.2s-2.8-0.9-5.8-0.9c-3.6,0-5.9,0.3-7,1
		s-1.7,2.1-1.7,4.2c0,2.5,0.4,4,1.3,4.5c0.9,0.5,3.9,0.9,8.9,1.2c6,0.3,9.8,1.2,11.6,2.5c1.7,1.4,2.6,4.2,2.6,8.5
		c0,5.3-1,8.7-3.1,10.3s-6.6,2.3-13.6,2.3c-6.3,0-10.5-0.8-12.5-2.3c-2.1-1.5-3.1-4.6-3.1-9.3v-1.5h7.4v0.8c0,2.8,0.5,4.5,1.5,5.1
		c1,0.6,3.6,0.9,8,0.9c3.4,0,5.6-0.4,6.5-1.1c0.9-0.7,1.4-2.4,1.4-5c0-1.9-0.4-3.2-1.1-3.9c-0.7-0.6-2.3-1-4.6-1.2l-4.2-0.3
		c-6.3-0.4-10.4-1.2-12.1-2.6s-2.6-4.4-2.6-8.9c0-4.7,1.1-7.8,3.2-9.3c2.1-1.6,6.4-2.3,12.7-2.3c6,0,10.1,0.7,12.2,2.1
		c2.1,1.4,3.1,4.2,3.1,8.3L244.1,279.4L244.1,279.4z"/>
	<path class="st2" d="M268,297.1h6.7v1l-0.4,4.2c-0.8,3.9-4.8,5.8-12,5.8c-5.3,0-8.8-1-10.5-2.9c-1.7-1.9-2.6-5.7-2.6-11.5
		c0-5.6,0.9-9.4,2.6-11.4c1.7-2,5.1-2.9,10.1-2.9c4.8,0,8.1,0.7,9.8,2.1c1.7,1.4,2.6,4.1,2.6,8.1h-6.7c0-3.3-1.9-4.9-5.7-4.9
		c-2.7,0-4.4,0.5-5,1.6c-0.7,1-1,3.6-1,7.6c0,3.9,0.4,6.4,1.1,7.4c0.8,1,2.6,1.5,5.5,1.5c2.3,0,3.8-0.3,4.4-1
		C267.7,301,268,299.5,268,297.1z"/>
	<path class="st2" d="M286.6,287.9h-6.9c0-3.4,0.8-5.6,2.3-6.7c1.6-1.1,4.7-1.7,9.3-1.7c5,0,8.4,0.7,10.2,2.1c1.8,1.4,2.7,4,2.7,7.9
		v18.3h-6.7l0.3-3.8h-0.2c-1.3,2.8-4.3,4.2-8.9,4.2c-6.8,0-10.2-2.9-10.2-8.6c0-5.8,3.5-8.7,10.4-8.7c4.6,0,7.4,1.1,8.4,3.2h0.1
		v-4.7c0-2.2-0.4-3.6-1.1-4.4c-0.7-0.8-2.3-1.1-4.7-1.1C288.3,283.9,286.6,285.2,286.6,287.9z M291,295.2c-3.8,0-5.7,1.3-5.7,3.9
		c0,1.8,0.4,3,1.2,3.6c0.8,0.6,2.4,0.8,4.9,0.8c4.1,0,6.1-1.4,6.1-4.1C297.6,296.6,295.4,295.2,291,295.2z"/>
	<path class="st2" d="M317.6,267.8v40h-6.7v-40C310.9,267.8,317.6,267.8,317.6,267.8z"/>
	<path class="st2" d="M331.2,287.9h-6.9c0-3.4,0.8-5.6,2.3-6.7c1.5-1.1,4.7-1.7,9.3-1.7c5,0,8.4,0.7,10.2,2.1s2.7,4,2.7,7.9v18.3
		h-6.7l0.3-3.8h-0.2c-1.3,2.8-4.3,4.2-8.9,4.2c-6.8,0-10.2-2.9-10.2-8.6c0-5.8,3.5-8.7,10.4-8.7c4.6,0,7.4,1.1,8.4,3.2h0.1v-4.7
		c0-2.2-0.4-3.6-1.1-4.4c-0.7-0.8-2.3-1.1-4.7-1.1C332.9,283.9,331.2,285.2,331.2,287.9z M335.7,295.2c-3.8,0-5.7,1.3-5.7,3.9
		c0,1.8,0.4,3,1.2,3.6c0.8,0.6,2.4,0.8,4.9,0.8c4.1,0,6.1-1.4,6.1-4.1C342.2,296.6,340,295.2,335.7,295.2z"/>
</g>
<g>
	<g>
		<path class="st2" d="M696.9,129.9c5.4-2.4,6.2-20.9,3-26.4c-4.1-7.1-23.8-5.7-30-0.6c-0.7,2.5-0.6,7.1-0.6,10.8h19.5v1.7h-19.5
			c0,0-8.7,0.1-8.7,0.1c-14.9,0-14.6,32.5,5.1,32.5c0,0,0.7-7.2,2-10.8C671.6,126,688,133.9,696.9,129.9z M676.5,111
			c-2.2,0-4.1-1.8-4.1-4.1c0-2.2,1.8-4.1,4.1-4.1c2.2,0,4.1,1.8,4.1,4.1C680.5,109.2,678.7,111,676.5,111z"/>
		<path class="st2" d="M704.4,116.1c0,0-0.5,7.2-1.8,10.8c-3.9,11.1-20.4,3.2-29.2,7.2c-5.4,2.4-6.2,20.9-3,26.4
			c4.1,7.1,23.8,5.7,30,0.6c0.7-2.5,0.6-7.1,0.6-10.8h-19.5v-1.7H701c0,0,9.6-0.1,9.6-0.1C724.4,148.6,725.6,116.1,704.4,116.1z
			 M693.1,152.2c2.2,0,4.1,1.8,4.1,4.1c0,2.2-1.8,4.1-4.1,4.1s-4.1-1.8-4.1-4.1C689.1,154.1,690.9,152.2,693.1,152.2z"/>
	</g>
</g>
</svg>
