<?xml version="1.0" encoding="utf-8"?>
<!-- Generator: Adobe Illustrator 22.0.1, SVG Export Plug-In . SVG Version: 6.00 Build 0)  -->
<svg version="1.1" id="Ebene_1" xmlns="http://www.w3.org/2000/svg" xmlns:xlink="http://www.w3.org/1999/xlink" x="0px" y="0px"
	 viewBox="0 0 3000 1690" style="enable-background:new 0 0 3000 1690;" xml:space="preserve">
<style type="text/css">
	.st0{fill:#343B3F;stroke:#000000;stroke-miterlimit:10;}
	.st1{fill:#97C01E;}
	.st2{fill:#FFFFFF;}
	.st3{fill:#DEDC0A;}
</style>
<rect x="-35" y="-35" class="st0" width="3072" height="1760"/>
<g>
	
		<image style="overflow:visible;enable-background:new    ;" width="1492" height="713" xlink:href="26BE85A5EB1234B3.png"  transform="matrix(0.2387 0 0 0.2387 1286.7189 713.3782)">
	</image>
	<g>
		<g>
			<path class="st1" d="M1346.6,803.5c0-13,5.6-15.8,13.7-15.8h12.5c8.2,0,13.2,3.5,13.2,11.4v3.1h-10.8c0-3.5-1.6-4.8-6.4-4.8h-4.3
				c-4.6,0-6.8,1.5-6.8,5.2v4.6c0,4.4,2.4,5.8,5.9,5.8h5.7c3.1,0,6-0.8,6-4v-0.8h10.8v3c0,9.2-6.6,11.8-13,11.8h-11.3
				c-7.3,0-15.1-1.6-15.1-16.3L1346.6,803.5L1346.6,803.5z"/>
			<path class="st1" d="M1405.9,784h-11.1v-10.1h11.1V784z M1405.9,822.5h-11.1v-34.2h11.1V822.5z"/>
			<path class="st1" d="M1418.7,797.5h-5.6v-9.3h5.6v-8.1h11.1v8.1h17.2v9.3h-17.2v13.2c0,2.6,1.6,3.1,4.3,3.1
				c3.6,0,4.6-0.9,4.6-4.1v-2.3h9.7v4.2c0,6.5-3.7,11.5-12.6,11.5h-4.4c-6.8,0-12.7-2.5-12.7-12V797.5z"/>
			<path class="st1" d="M1456.6,788.3h10.4v6.5h0.1c1.3-5.4,5.8-7.1,10.8-7.1c8.1,0,11.3,4,11.3,13.5c0,0.9-0.1,1.8-0.1,3h-9.6
				c0-4.4-0.9-6.4-5.3-6.4c-3.8,0-6.5,1.7-6.5,5.8v18.9h-11.1L1456.6,788.3L1456.6,788.3z"/>
			<path class="st1" d="M1534.3,822.5h-11.1V817h-0.1c-2,4.8-5.8,6-11.8,6c-6.9,0-16.5-0.3-16.5-15.1v-19.7h11.1v19.7
				c0,3.4,2.3,5,7.2,5h2.5c4.7,0,7.6-2.6,7.6-7.5v-17.3h11.1L1534.3,822.5L1534.3,822.5z"/>
			<path class="st1" d="M1554.2,811.8c0,1.9,0.6,3.2,6.9,3.2h3.9c5.3,0,6.6-0.5,6.6-2.6c0-2-0.9-2.8-4.8-2.8h-10.4
				c-10.4-0.1-13.4-2.7-13.4-12.1c0-8.5,5.9-9.8,13.5-9.8h7.8c14.5,0,17.1,2.4,17.2,10.4h-11.1c-0.6-2-1.6-2.4-8.3-2.4
				c-6.4,0-7.6,0.2-7.6,2.6c0,1.5,0.9,2,6.6,2h7.7c13.3,0,14.3,5.2,14.3,11.3c0,9.1-3.1,11.4-15.8,11.4h-10.5
				c-10.2,0-14-2.8-14-11.2L1554.2,811.8L1554.2,811.8z"/>
		</g>
	</g>
</g>
<g>
	
		<image style="overflow:visible;enable-background:new    ;" width="1779" height="608" xlink:href="26BE85A5EB1234B1.png"  transform="matrix(0.2394 0 0 0.2394 1287.98 768.9045)">
	</image>
	<g>
		<g>
			<path class="st2" d="M1348.1,844.2h1.9v0.7c0,1.7,0.8,2.4,2.9,2.4h4.4c3.1,0,4-0.1,4-2.2V845c0-1.3-0.3-2.1-2.8-2.1h-6.3
				c-2.9,0-3.9-1.1-3.9-3.7v-0.8c0-2.3,1.1-3.5,6.1-3.5h3.1c4.6,0,5.2,1.5,5.2,3.5v0.7h-1.9V839c0-2.1-1.2-2.2-3.5-2.2h-3.6
				c-2.9,0-3.5,0.3-3.5,1.9v0.5c0,1.2,0.3,1.8,2.5,1.8h5.4c3.1,0,5.1,0.4,5.1,4.1v0.1c0,3.9-3.1,4.1-5.6,4.1h-3.7
				c-3,0-5.8,0-5.8-4.2L1348.1,844.2L1348.1,844.2z"/>
			<path class="st2" d="M1367.6,835h1.9v2.2l0,0c0.6-1.7,2.2-2.4,4-2.4h3.9c2.9,0,5.6,1.1,5.6,5.9v2.5c0,4.5-1.7,6.1-5.9,6.1h-3.9
				c-2.2,0-3.1-0.6-3.5-2.1l0,0v6.8h-2L1367.6,835L1367.6,835z M1381,840.7c0-2.7-0.8-4-3.6-4h-4c-2.7,0-3.7,1.6-3.7,4v2.7
				c0,3.4,1.8,3.9,4,3.9h3.6c2.4,0,3.8-0.6,3.8-3.8v-2.8H1381z"/>
			<path class="st2" d="M1386.8,840.5c0-5.1,3-5.7,5.9-5.7h3.3c3.6,0,6.3,1.1,6.3,6.1v1.6h-13.4v0.9c0,3.2,1.3,4,4.9,4h2.8
				c2.6,0,3.6-0.4,3.7-2.5h2v0.3c0,3.2-2.3,4.2-6.1,4.2h-3.7c-2.7,0-5.7-0.6-5.7-5.7L1386.8,840.5L1386.8,840.5z M1400.2,839.6
				c0-1.4-0.9-2.9-4.2-2.9h-3c-3.2,0-4,0.6-4.2,3.8h11.4L1400.2,839.6L1400.2,839.6z"/>
			<path class="st2" d="M1405.8,840.5c0-5.1,3.1-5.7,6.1-5.7h3.4c3.8,0,5.3,1.8,5.3,4.8v0.4h-1.9v-0.3c0-2.3-1.3-2.9-3.4-2.9h-3.7
				c-1.9,0-3.7,0.3-3.7,3.8v2.9c0,3.1,1.7,3.8,4.1,3.8h3.4c1.9,0,3.5-0.7,3.5-2.9v-0.5h1.9v0.4c0,3.5-1.5,4.9-5.3,4.9h-4.6
				c-1.8,0-5.1-0.6-5.1-5.7L1405.8,840.5L1405.8,840.5z"/>
			<path class="st2" d="M1425.2,829.1h2v2.6h-2V829.1z M1425.2,835h2v14h-2V835z"/>
			<path class="st2" d="M1444.7,847.6L1444.7,847.6c-0.6,1.3-1.2,1.6-4.4,1.6h-4.9c-3.1,0-3.9-1.6-3.9-4.2v-0.9
				c0-3.2,1.9-3.6,5.5-3.6h3.3c2.7,0,3.6,0.3,4.3,1.7l0,0v-2.6c0-2.5-1.4-2.9-4.5-2.9h-3c-2.6,0-3.1,0.7-3.1,1.9v0.5h-2v-0.7
				c0-2.6,1.4-3.6,5-3.6h3.2c3.8,0,6.3,0.7,6.3,4.8v9.4h-2v-1.4H1444.7z M1444.7,844.6c0-1.9-1.5-2.2-4.6-2.2h-3.1
				c-2.6,0-3.4,0.4-3.4,2.2v0.4c0,1.6,0.5,2.2,3.3,2.2h2.7c3.7,0,5.1-0.3,5.1-2.1V844.6z"/>
			<path class="st2" d="M1451.6,829.1h2V849h-2V829.1z"/>
			<path class="st2" d="M1459,829.1h2v2.6h-2V829.1z M1459,835h2v14h-2V835z"/>
			<path class="st2" d="M1465.2,847.1L1476,837l0,0h-10.4v-2h13.2v1.9l-10.7,10.1v0.1h10.9v1.9h-13.7v-1.9H1465.2z"/>
			<path class="st2" d="M1482.3,840.5c0-5.1,3-5.7,5.9-5.7h3.3c3.6,0,6.3,1.1,6.3,6.1v1.6h-13.4v0.9c0,3.2,1.3,4,4.9,4h2.8
				c2.6,0,3.6-0.4,3.7-2.5h2v0.3c0,3.2-2.3,4.2-6.1,4.2h-3.7c-2.7,0-5.7-0.6-5.7-5.7L1482.3,840.5L1482.3,840.5z M1495.7,839.6
				c0-1.4-0.9-2.9-4.2-2.9h-3c-3.2,0-4,0.6-4.2,3.8h11.4L1495.7,839.6L1495.7,839.6z"/>
			<path class="st2" d="M1516.8,849h-1.9v-2.2l0,0c-0.6,1.7-2.2,2.4-4.4,2.4h-2.8c-3.7,0-6.3-1.1-6.3-5.9v-2.5
				c0-4.5,1.5-6.1,6.4-6.1h3.1c2.3,0,3.4,0.6,3.9,2.1l0,0V829h2L1516.8,849L1516.8,849z M1503.4,843.3c0,2.7,0.7,4,4,4h3.3
				c3,0,4-1.5,4-4v-2.7c0-3.4-1.7-3.9-4.4-3.9h-2.7c-2.8,0-4.2,0.6-4.2,3.8L1503.4,843.3L1503.4,843.3z"/>
			<path class="st2" d="M1533.5,844.2h1.9v0.7c0,1.7,0.8,2.4,2.9,2.4h4.4c3.1,0,4-0.1,4-2.2V845c0-1.3-0.3-2.1-2.8-2.1h-6.3
				c-2.9,0-3.9-1.1-3.9-3.7v-0.8c0-2.3,1.1-3.5,6.1-3.5h3.1c4.6,0,5.2,1.5,5.2,3.5v0.7h-1.9V839c0-2.1-1.2-2.2-3.5-2.2h-3.5
				c-2.9,0-3.6,0.3-3.6,1.9v0.5c0,1.2,0.3,1.8,2.5,1.8h5.4c3.1,0,5.1,0.4,5.1,4.1v0.1c0,3.9-3.1,4.1-5.6,4.1h-3.7
				c-3,0-5.8,0-5.8-4.2L1533.5,844.2L1533.5,844.2z"/>
			<path class="st2" d="M1554.1,837h-2.7v-2h2.7v-3.3h2v3.3h8.1v1.9h-8.1v7c0,2.6,0.8,3.4,3,3.4h0.6c2.7,0,3.1-0.7,3.1-3.6v-1h1.7
				v1.5c0,2.8-0.2,5-4.6,5h-1.1c-3.8,0-4.7-2.1-4.7-4.4V837z"/>
			<path class="st2" d="M1580.4,847.6L1580.4,847.6c-0.6,1.3-1.2,1.6-4.4,1.6h-4.9c-3.1,0-3.9-1.6-3.9-4.2v-0.9
				c0-3.2,1.9-3.6,5.5-3.6h3.3c2.7,0,3.6,0.3,4.3,1.7l0,0v-2.6c0-2.5-1.4-2.9-4.5-2.9h-3c-2.6,0-3.1,0.7-3.1,1.9v0.5h-2v-0.7
				c0-2.6,1.4-3.6,5-3.6h3.2c3.8,0,6.3,0.7,6.3,4.8v9.4h-2v-1.4H1580.4z M1580.4,844.6c0-1.9-1.5-2.2-4.6-2.2h-3.1
				c-2.6,0-3.4,0.4-3.4,2.2v0.4c0,1.6,0.5,2.2,3.3,2.2h2.7c3.7,0,5.1-0.3,5.1-2.1V844.6z"/>
			<path class="st2" d="M1588.4,837h-2.6v-2h2.6v-1.2c0-3.3,1.8-4.6,4-4.6h3.8v1.9h-3.6c-1.5,0-2.1,1-2.1,2.2v1.7h5.8v1.9h-5.8V849
				h-2v-12H1588.4z"/>
			<path class="st2" d="M1600.6,837h-2.6v-2h2.6v-1.2c0-3.3,1.7-4.6,4-4.6h3.8v1.9h-3.6c-1.5,0-2.1,1-2.1,2.2v1.7h5.7v1.9h-5.7V849
				h-2v-12H1600.6z"/>
			<path class="st2" d="M1612.2,829.1h2v2.6h-2V829.1z M1612.2,835h2v14h-2V835z"/>
			<path class="st2" d="M1619.3,835h1.9v2.4l0,0c0.8-2.2,2.3-2.6,4.9-2.6h3.1c3.8,0,5,2.2,5,4.8v9.5h-2v-8.9c0-2.1-0.5-3.4-4.4-3.4
				h-0.5c-4.8,0-5.8,1-5.8,4.3v8h-2V835H1619.3z"/>
			<path class="st2" d="M1653.8,849c0,4.2-3.2,5.1-5.7,5.1h-4.6c-3.7,0-4.7-2.4-4.7-4.2v-0.5h1.9v0.4c0,1.8,1.6,2.3,3.5,2.3h2
				c4,0,5.6-0.1,5.6-3.8v-2.1l0,0c-0.4,1.3-1.3,2.2-4.1,2.2h-4.2c-3.4,0-5.1-2-5.1-5.6v-2.3c0-5.1,3.2-5.7,5.4-5.7h4.3
				c1.5,0,3.1,0.4,3.7,2.7l0,0V835h1.9L1653.8,849L1653.8,849z M1651.8,841c0-2.6-0.8-4.3-3.6-4.3h-4.1c-2.1,0-3.6,0.7-3.6,3v2.6
				c0,3.2,1,4.2,3.5,4.2h3.9c2.9,0,4-1.3,4-3.8V841H1651.8z"/>
		</g>
	</g>
</g>
<g>
	
		<image style="overflow:visible;enable-background:new    ;" width="917" height="767" xlink:href="26BE85A5EB1234B7.png"  transform="matrix(0.2385 0 0 0.2385 1497.5112 685.2814)">
	</image>
	<g>
		<g>
			<path class="st1" d="M1655.9,759.4c0.3,7.9-6,14.6-13.9,14.8c-7.9,0.3-14.6-6-14.8-13.9c-0.3-7.9,6-14.6,13.9-14.8
				S1655.7,751.5,1655.9,759.4z"/>
			<path class="st3" d="M1586.5,759.2c0.3,7.9-6,14.6-13.9,14.8c-7.9,0.3-14.6-6-14.8-13.9c-0.3-7.9,6-14.6,13.9-14.8
				C1579.6,745,1586.3,751.2,1586.5,759.2z"/>
			<path class="st3" d="M1621.3,793.2c0.3,7.9-6,14.6-13.9,14.8c-7.9,0.3-14.6-6-14.8-13.9c-0.3-7.9,6-14.6,13.9-14.8
				S1621,785.3,1621.3,793.2z"/>
			<path class="st1" d="M1655.9,793.5c0.3,7.9-6,14.6-13.9,14.8c-7.9,0.3-14.6-6-14.8-13.9c-0.3-7.9,6-14.6,13.9-14.8
				C1649,779.4,1655.7,785.6,1655.9,793.5z"/>
			<path class="st3" d="M1620.9,759.2c0.3,7.9-6,14.6-13.9,14.8c-7.9,0.3-14.6-6-14.8-13.9c-0.3-7.9,6-14.6,13.9-14.8
				C1614,745,1620.7,751.2,1620.9,759.2z"/>
		</g>
	</g>
</g>
</svg>
