<?xml version="1.0" encoding="utf-8"?>
<!-- Generator: Adobe Illustrator 22.0.1, SVG Export Plug-In . SVG Version: 6.00 Build 0)  -->
<svg version="1.1" id="Ebene_1" xmlns="http://www.w3.org/2000/svg" xmlns:xlink="http://www.w3.org/1999/xlink" x="0px" y="0px"
	 viewBox="0 0 3000 1690" style="enable-background:new 0 0 3000 1690;" xml:space="preserve">
<style type="text/css">
	.st0{fill:#96BF1F;}
	.st1{fill:#707173;}
	.st2{fill:#DEDB03;}
</style>
<g>
	<g>
		<path class="st0" d="M1344.6,848.5c0-13,5.6-15.8,13.7-15.8h12.5c8.2,0,13.2,3.5,13.2,11.4v3.1h-10.8c0-3.5-1.6-4.8-6.4-4.8h-4.3
			c-4.6,0-6.8,1.5-6.8,5.2v4.6c0,4.4,2.4,5.8,5.9,5.8h5.7c3.1,0,6-0.8,6-4v-0.8h10.8v3c0,9.2-6.6,11.8-13,11.8h-11.3
			c-7.3,0-15.1-1.6-15.1-16.3V848.5z"/>
		<path class="st0" d="M1403.9,829h-11.1v-10.1h11.1V829z M1403.9,867.5h-11.1v-34.2h11.1V867.5z"/>
		<path class="st0" d="M1416.7,842.5h-5.6v-9.3h5.6v-8.1h11.1v8.1h17.2v9.3h-17.2v13.2c0,2.6,1.6,3.1,4.3,3.1c3.6,0,4.6-0.9,4.6-4.1
			v-2.3h9.7v4.2c0,6.5-3.7,11.5-12.6,11.5h-4.4c-6.8,0-12.7-2.5-12.7-12V842.5z"/>
		<path class="st0" d="M1454.6,833.3h10.4v6.5h0.1c1.3-5.4,5.8-7.1,10.8-7.1c8.1,0,11.3,4,11.3,13.5c0,0.9-0.1,1.8-0.1,3h-9.6
			c0-4.4-0.9-6.4-5.3-6.4c-3.8,0-6.5,1.7-6.5,5.8v18.9h-11.1V833.3z"/>
		<path class="st0" d="M1532.3,867.5h-11.1V862h-0.1c-2,4.8-5.8,6-11.8,6c-6.9,0-16.5-0.3-16.5-15.1v-19.7h11.1v19.7
			c0,3.4,2.3,5,7.2,5h2.5c4.7,0,7.6-2.6,7.6-7.5v-17.3h11.1V867.5z"/>
		<path class="st0" d="M1552.2,856.8c0,1.9,0.6,3.2,6.9,3.2h3.9c5.3,0,6.6-0.5,6.6-2.6c0-2-0.9-2.8-4.8-2.8h-10.4
			c-10.4-0.1-13.4-2.7-13.4-12.1c0-8.5,5.9-9.8,13.5-9.8h7.8c14.5,0,17.1,2.4,17.2,10.4h-11.1c-0.6-2-1.6-2.4-8.3-2.4
			c-6.4,0-7.6,0.2-7.6,2.6c0,1.5,0.9,2,6.6,2h7.7c13.3,0,14.3,5.2,14.3,11.3c0,9.1-3.1,11.4-15.8,11.4h-10.5c-10.2,0-14-2.8-14-11.2
			H1552.2z"/>
	</g>
	<g>
		<path class="st1" d="M1346.1,889.2h1.9v0.7c0,1.7,0.8,2.4,2.9,2.4h4.4c3.1,0,4-0.1,4-2.2V890c0-1.3-0.3-2.1-2.8-2.1h-6.3
			c-2.9,0-3.9-1.1-3.9-3.7v-0.8c0-2.3,1.1-3.5,6.1-3.5h3.1c4.6,0,5.2,1.5,5.2,3.5v0.7h-1.9v-0.1c0-2.1-1.2-2.2-3.5-2.2h-3.6
			c-2.9,0-3.5,0.3-3.5,1.9v0.5c0,1.2,0.3,1.8,2.5,1.8h5.4c3.1,0,5.1,0.4,5.1,4.1v0.1c0,3.9-3.1,4.1-5.6,4.1h-3.7c-3,0-5.8,0-5.8-4.2
			V889.2z"/>
		<path class="st1" d="M1365.6,880h1.9v2.2h0c0.6-1.7,2.2-2.4,4-2.4h3.9c2.9,0,5.6,1.1,5.6,5.9v2.5c0,4.5-1.7,6.1-5.9,6.1h-3.9
			c-2.2,0-3.1-0.6-3.5-2.1h0v6.8h-2V880z M1379,885.7c0-2.7-0.8-4-3.6-4h-4c-2.7,0-3.7,1.6-3.7,4v2.7c0,3.4,1.8,3.9,4,3.9h3.6
			c2.4,0,3.8-0.6,3.8-3.8V885.7z"/>
		<path class="st1" d="M1384.8,885.5c0-5.1,3-5.7,5.9-5.7h3.3c3.6,0,6.3,1.1,6.3,6.1v1.6h-13.4v0.9c0,3.2,1.3,4,4.9,4h2.8
			c2.6,0,3.6-0.4,3.7-2.5h2v0.3c0,3.2-2.3,4.2-6.1,4.2h-3.7c-2.7,0-5.7-0.6-5.7-5.7V885.5z M1398.2,884.6c0-1.4-0.9-2.9-4.2-2.9h-3
			c-3.2,0-4,0.6-4.2,3.8h11.4V884.6z"/>
		<path class="st1" d="M1403.8,885.5c0-5.1,3.1-5.7,6.1-5.7h3.4c3.8,0,5.3,1.8,5.3,4.8v0.4h-1.9v-0.3c0-2.3-1.3-2.9-3.4-2.9h-3.7
			c-1.9,0-3.7,0.3-3.7,3.8v2.9c0,3.1,1.7,3.8,4.1,3.8h3.4c1.9,0,3.5-0.7,3.5-2.9v-0.5h1.9v0.4c0,3.5-1.5,4.9-5.3,4.9h-4.6
			c-1.8,0-5.1-0.6-5.1-5.7V885.5z"/>
		<path class="st1" d="M1423.2,874.1h2v2.6h-2V874.1z M1423.2,880h2v14h-2V880z"/>
		<path class="st1" d="M1442.7,892.6L1442.7,892.6c-0.6,1.3-1.2,1.6-4.4,1.6h-4.9c-3.1,0-3.9-1.6-3.9-4.2v-0.9
			c0-3.2,1.9-3.6,5.5-3.6h3.3c2.7,0,3.6,0.3,4.3,1.7h0v-2.6c0-2.5-1.4-2.9-4.5-2.9h-3c-2.6,0-3.1,0.7-3.1,1.9v0.5h-2v-0.7
			c0-2.6,1.4-3.6,5-3.6h3.2c3.8,0,6.3,0.7,6.3,4.8v9.4h-2V892.6z M1442.7,889.6c0-1.9-1.5-2.2-4.6-2.2h-3.1c-2.6,0-3.4,0.4-3.4,2.2
			v0.4c0,1.6,0.5,2.2,3.3,2.2h2.7c3.7,0,5.1-0.3,5.1-2.1V889.6z"/>
		<path class="st1" d="M1449.6,874.1h2V894h-2V874.1z"/>
		<path class="st1" d="M1457,874.1h2v2.6h-2V874.1z M1457,880h2v14h-2V880z"/>
		<path class="st1" d="M1463.2,892.1L1474,882V882h-10.4V880h13.2v1.9l-10.7,10.1v0.1h10.9v1.9h-13.7V892.1z"/>
		<path class="st1" d="M1480.3,885.5c0-5.1,3-5.7,5.9-5.7h3.3c3.6,0,6.3,1.1,6.3,6.1v1.6h-13.4v0.9c0,3.2,1.3,4,4.9,4h2.8
			c2.6,0,3.6-0.4,3.7-2.5h2v0.3c0,3.2-2.3,4.2-6.1,4.2h-3.7c-2.7,0-5.7-0.6-5.7-5.7V885.5z M1493.7,884.6c0-1.4-0.9-2.9-4.2-2.9h-3
			c-3.2,0-4,0.6-4.2,3.8h11.4V884.6z"/>
		<path class="st1" d="M1514.8,894h-1.9v-2.2h0c-0.6,1.7-2.2,2.4-4.4,2.4h-2.8c-3.7,0-6.3-1.1-6.3-5.9v-2.5c0-4.5,1.5-6.1,6.4-6.1
			h3.1c2.3,0,3.4,0.6,3.9,2.1h0v-7.8h2V894z M1501.4,888.3c0,2.7,0.7,4,4,4h3.3c3,0,4-1.5,4-4v-2.7c0-3.4-1.7-3.9-4.4-3.9h-2.7
			c-2.8,0-4.2,0.6-4.2,3.8V888.3z"/>
		<path class="st1" d="M1531.5,889.2h1.9v0.7c0,1.7,0.8,2.4,2.9,2.4h4.4c3.1,0,4-0.1,4-2.2V890c0-1.3-0.3-2.1-2.8-2.1h-6.3
			c-2.9,0-3.9-1.1-3.9-3.7v-0.8c0-2.3,1.1-3.5,6.1-3.5h3.1c4.6,0,5.2,1.5,5.2,3.5v0.7h-1.9v-0.1c0-2.1-1.2-2.2-3.5-2.2h-3.5
			c-2.9,0-3.6,0.3-3.6,1.9v0.5c0,1.2,0.3,1.8,2.5,1.8h5.4c3.1,0,5.1,0.4,5.1,4.1v0.1c0,3.9-3.1,4.1-5.6,4.1h-3.7c-3,0-5.8,0-5.8-4.2
			V889.2z"/>
		<path class="st1" d="M1552.1,882h-2.7V880h2.7v-3.3h2v3.3h8.1v1.9h-8.1v7c0,2.6,0.8,3.4,3,3.4h0.6c2.7,0,3.1-0.7,3.1-3.6v-1h1.7
			v1.5c0,2.8-0.2,5-4.6,5h-1.1c-3.8,0-4.7-2.1-4.7-4.4V882z"/>
		<path class="st1" d="M1578.4,892.6L1578.4,892.6c-0.6,1.3-1.2,1.6-4.4,1.6h-4.9c-3.1,0-3.9-1.6-3.9-4.2v-0.9
			c0-3.2,1.9-3.6,5.5-3.6h3.3c2.7,0,3.6,0.3,4.3,1.7h0v-2.6c0-2.5-1.4-2.9-4.5-2.9h-3c-2.6,0-3.1,0.7-3.1,1.9v0.5h-2v-0.7
			c0-2.6,1.4-3.6,5-3.6h3.2c3.8,0,6.3,0.7,6.3,4.8v9.4h-2V892.6z M1578.4,889.6c0-1.9-1.5-2.2-4.6-2.2h-3.1c-2.6,0-3.4,0.4-3.4,2.2
			v0.4c0,1.6,0.5,2.2,3.3,2.2h2.7c3.7,0,5.1-0.3,5.1-2.1V889.6z"/>
		<path class="st1" d="M1586.4,882h-2.6V880h2.6v-1.2c0-3.3,1.8-4.6,4-4.6h3.8v1.9h-3.6c-1.5,0-2.1,1-2.1,2.2v1.7h5.8v1.9h-5.8V894
			h-2V882z"/>
		<path class="st1" d="M1598.6,882h-2.6V880h2.6v-1.2c0-3.3,1.7-4.6,4-4.6h3.8v1.9h-3.6c-1.5,0-2.1,1-2.1,2.2v1.7h5.7v1.9h-5.7V894
			h-2V882z"/>
		<path class="st1" d="M1610.2,874.1h2v2.6h-2V874.1z M1610.2,880h2v14h-2V880z"/>
		<path class="st1" d="M1617.3,880h1.9v2.4h0c0.8-2.2,2.3-2.6,4.9-2.6h3.1c3.8,0,5,2.2,5,4.8v9.5h-2v-8.9c0-2.1-0.5-3.4-4.4-3.4
			h-0.5c-4.8,0-5.8,1-5.8,4.3v8h-2V880z"/>
		<path class="st1" d="M1651.8,894c0,4.2-3.2,5.1-5.7,5.1h-4.6c-3.7,0-4.7-2.4-4.7-4.2v-0.5h1.9v0.4c0,1.8,1.6,2.3,3.5,2.3h2
			c4,0,5.6-0.1,5.6-3.8v-2.1h0c-0.4,1.3-1.3,2.2-4.1,2.2h-4.2c-3.4,0-5.1-2-5.1-5.6v-2.3c0-5.1,3.2-5.7,5.4-5.7h4.3
			c1.5,0,3.1,0.4,3.7,2.7h0V880h1.9V894z M1649.8,886c0-2.6-0.8-4.3-3.6-4.3h-4.1c-2.1,0-3.6,0.7-3.6,3v2.6c0,3.2,1,4.2,3.5,4.2h3.9
			c2.9,0,4-1.3,4-3.8V886z"/>
	</g>
	<g>
		<path class="st0" d="M1653.9,804.4c0.3,7.9-6,14.6-13.9,14.8c-7.9,0.3-14.6-6-14.8-13.9c-0.3-7.9,6-14.6,13.9-14.8
			C1647,790.3,1653.7,796.5,1653.9,804.4z"/>
		<path class="st2" d="M1584.5,804.2c0.3,7.9-6,14.6-13.9,14.8c-7.9,0.3-14.6-6-14.8-13.9c-0.3-7.9,6-14.6,13.9-14.8
			C1577.6,790,1584.3,796.2,1584.5,804.2z"/>
		<path class="st2" d="M1619.3,838.2c0.3,7.9-6,14.6-13.9,14.8c-7.9,0.3-14.6-6-14.8-13.9c-0.3-7.9,6-14.6,13.9-14.8
			C1612.4,824.1,1619,830.3,1619.3,838.2z"/>
		<path class="st0" d="M1653.9,838.5c0.3,7.9-6,14.6-13.9,14.8c-7.9,0.3-14.6-6-14.8-13.9c-0.3-7.9,6-14.6,13.9-14.8
			C1647,824.4,1653.7,830.6,1653.9,838.5z"/>
		<path class="st2" d="M1618.9,804.2c0.3,7.9-6,14.6-13.9,14.8c-7.9,0.3-14.6-6-14.8-13.9c-0.3-7.9,6-14.6,13.9-14.8
			C1612,790,1618.7,796.2,1618.9,804.2z"/>
	</g>
</g>
</svg>
