<?xml version="1.0" encoding="utf-8"?>
<!-- Generator: Adobe Illustrator 22.0.1, SVG Export Plug-In . SVG Version: 6.00 Build 0)  -->
<svg version="1.1" id="Ebene_1" xmlns="http://www.w3.org/2000/svg" xmlns:xlink="http://www.w3.org/1999/xlink" x="0px" y="0px"
	 width="1000px" height="608px" viewBox="0 0 1000 608" style="enable-background:new 0 0 1000 608;" xml:space="preserve">
<style type="text/css">
	.st0{fill:#96BF0D;}
	.st1{fill:#808080;}
	.st2{fill:none;}
	.st3{fill:#FFFFFF;}
</style>
<g>
	<path class="st0" d="M468.7,214.5h-10.3c-0.1-0.5-0.1-0.9-0.1-1.1c-0.2-3.1-0.9-5.1-2.1-5.9c-1.1-0.8-3.8-1.2-8.1-1.2
		c-5,0-8.3,0.5-9.8,1.4s-2.3,2.9-2.3,5.8c0,3.5,0.6,5.6,1.9,6.3s5.4,1.3,12.4,1.6c8.3,0.5,13.7,1.6,16.1,3.6
		c2.4,1.9,3.7,5.9,3.7,11.9c0,7.4-1.4,12.2-4.3,14.4s-9.2,3.3-18.9,3.3c-8.8,0-14.6-1.1-17.5-3.2c-2.9-2.1-4.3-6.4-4.3-12.9v-2h10.3
		v1.2c0,3.9,0.7,6.3,2,7.2c1.4,0.9,5.1,1.3,11.2,1.3c4.7,0,7.8-0.5,9.1-1.5c1.3-1,2-3.3,2-7c0-2.7-0.5-4.5-1.5-5.4s-3.1-1.4-6.4-1.6
		l-5.8-0.4c-8.8-0.5-14.5-1.7-16.9-3.7c-2.5-1.9-3.7-6.1-3.7-12.5c0-6.5,1.5-10.9,4.4-13c3-2.2,8.9-3.3,17.7-3.3c8.4,0,14.1,1,17,3
		s4.4,5.9,4.4,11.7v2H468.7z"/>
	<path class="st0" d="M511.2,243.3h-24.1l-3.5,10.7h-11.2l18.6-55.8h15.9l18.9,55.8h-11L511.2,243.3z M508.7,235.5l-9.7-29.1
		l-9.5,29.1H508.7z"/>
	<path class="st0" d="M530.5,254v-55.8H553h2.8c7.6,0,12.6,1.3,15.3,3.9c2.6,2.6,3.9,7.7,3.9,15.2s-1.3,12.4-3.8,14.9
		s-7.6,3.7-15.2,3.7h-2.5H541v18h-10.5V254z M541.1,227.1h12.1c4.8,0,7.8-0.6,9.1-1.7c1.3-1.1,1.9-3.7,1.9-7.8
		c0-4.7-0.5-7.6-1.6-8.8c-1.1-1.1-3.9-1.7-8.4-1.7h-13.1V227.1z"/>
</g>
<g>
	<path class="st1" d="M676,309c-1.5-13.4-12.9-23.8-26.7-23.8c-9,0-16.9,4.4-21.8,11.2c0.6,0,1.1,0,1.7,0
		c20.2,0,37.6,13.7,42.7,32.6c5.7,1.2,11.1,4.1,15.4,8.4c0.4,0.4,0.7,0.7,1.1,1.2c3.2-3.2,5.1-7.4,5.1-12.2
		C693.4,316.7,685.6,309,676,309z"/>
	<path class="st1" d="M665,336.3c-2.1-17.9-17.3-31.8-35.8-31.8c-18.5,0-33.8,13.9-35.8,31.8c-12.8,0-23.3,10.4-23.3,23.3
		s10.5,23.2,23.3,23.2H665c12.8,0,23.3-10.4,23.3-23.3C688.3,346.6,677.8,336.3,665,336.3z"/>
</g>
<g>
	<path class="st1" d="M361.3,310.7h-4.7c0-0.3-0.1-0.4-0.1-0.5c-0.1-1.4-0.4-2.3-0.9-2.7c-0.5-0.3-1.8-0.6-3.7-0.6
		c-2.3,0-3.7,0.2-4.4,0.6c-0.7,0.4-1.1,1.3-1.1,2.7c0,1.6,0.3,2.5,0.8,2.8c0.6,0.3,2.5,0.6,5.6,0.8c3.8,0.2,6.2,0.8,7.3,1.6
		c1.1,0.9,1.6,2.7,1.6,5.4c0,3.4-0.6,5.5-2,6.5s-4.2,1.5-8.6,1.5c-4,0-6.6-0.5-7.9-1.5c-1.3-0.9-2-2.9-2-5.9v-0.9h4.7v0.5
		c0,1.8,0.3,2.8,0.9,3.2s2.3,0.6,5.1,0.6c2.2,0,3.5-0.3,4.1-0.7c0.6-0.4,0.9-1.5,0.9-3.2c0-1.2-0.3-2-0.7-2.5
		c-0.4-0.4-1.5-0.6-2.9-0.8l-2.7-0.2c-4-0.3-6.6-0.8-7.7-1.6c-1.1-0.9-1.6-2.8-1.6-5.6c0-3,0.7-4.9,2-5.9s4.1-1.5,8-1.5
		c3.8,0,6.4,0.4,7.7,1.3c1.3,0.9,2,2.7,2,5.3v1.3H361.3z"/>
	<path class="st1" d="M380.6,323.8h-11l-1.6,4.9h-5l8.4-25.3h7.2l8.5,25.3h-4.9L380.6,323.8z M379.5,320.3l-4.4-13.2l-4.3,13.2
		H379.5z"/>
	<path class="st1" d="M389.4,328.7v-25.3h10.2h1.3c3.4,0,5.8,0.6,6.9,1.8c1.2,1.2,1.8,3.5,1.8,6.9s-0.6,5.6-1.7,6.8
		c-1.1,1.1-3.4,1.6-6.9,1.6h-1.1h-5.6v8.2H389.4L389.4,328.7z M394.2,316.4h5.4c2.2,0,3.5-0.3,4.1-0.8s0.9-1.7,0.9-3.5
		c0-2.2-0.3-3.5-0.8-4s-1.8-0.8-3.8-0.8h-6L394.2,316.4L394.2,316.4z"/>
	<path class="st1" d="M426.9,307.4v6.8h11.3v4.1h-11.3v10.4h-4.8v-25.3h16.8v4.1C438.9,307.4,426.9,307.4,426.9,307.4z"/>
	<path class="st1" d="M445.9,303.4v3.5h-4.2v-3.5H445.9z M445.9,310.9v17.7h-4.2v-17.7C441.7,310.9,445.9,310.9,445.9,310.9z"/>
	<path class="st1" d="M457.9,310.7c3.4,0,5.7,0.6,6.7,1.6c1,1.1,1.6,3.4,1.6,6.9c0,3.9-0.5,6.5-1.6,7.7s-3.2,1.8-6.6,1.8
		c-3.6,0-6-0.6-7-1.7c-1.1-1.1-1.6-3.7-1.6-7.5c0-3.7,0.5-6.1,1.6-7.3C452.1,311.2,454.4,310.7,457.9,310.7z M457.9,314.1
		c-1.8,0-2.9,0.3-3.4,0.9c-0.4,0.6-0.7,2.2-0.7,4.4c0,2.7,0.3,4.4,0.7,5c0.4,0.6,1.6,1,3.4,1s2.9-0.4,3.4-1.1
		c0.4-0.7,0.7-2.4,0.7-5.1c0-2.3-0.3-3.7-0.7-4.4C460.9,314.3,459.6,314.1,457.9,314.1z"/>
	<path class="st1" d="M469.9,310.9h4.2l-0.3,2.5h0.1c1-1.8,2.6-2.8,4.8-2.8c3.1,0,4.7,2,4.7,5.9v1.3h-4c0.1-0.5,0.1-0.8,0.1-0.9
		c0-1.9-0.8-2.8-2.2-2.8c-2.1,0-3.2,1.4-3.2,4.2v10.4h-4.2V310.9L469.9,310.9z"/>
	<path class="st1" d="M490,303.4v3.5h-4.2v-3.5H490z M490,310.9v17.7h-4.2v-17.7H490z"/>
</g>
<g>
	<path class="st1" d="M649.2,196v10.3H668v5.6h-18.8v11.3h20v6.4h-27.5v-40h27.4v6.4C669.1,196,649.2,196,649.2,196z"/>
	<path class="st1" d="M674.8,229.6v-40h19.7c4.9,0,8.3,0.8,10.1,2.5s2.8,4.8,2.8,9.2c0,4-0.5,6.8-1.4,8.3s-2.8,2.5-5.7,3.1v0.3
		c4.4,0.3,6.7,2.9,6.7,7.8v8.8h-7.6v-7.3c0-4.1-2-6.2-6.1-6.2h-10.9v13.5L674.8,229.6L674.8,229.6z M682.4,209.7h10.9
		c2.6,0,4.3-0.5,5.2-1.4s1.3-2.8,1.3-5.6c0-2.9-0.4-4.7-1.1-5.5s-2.3-1.2-4.8-1.2h-11.4L682.4,209.7L682.4,209.7z"/>
	<path class="st1" d="M713.5,229.6v-40h16.1h2c5.4,0,9.1,0.9,10.9,2.8c1.8,1.9,2.8,5.5,2.8,10.9s-0.9,8.9-2.7,10.7
		s-5.4,2.6-10.9,2.6h-1.8h-8.8v12.9h-7.6V229.6z M721.1,210.2h8.6c3.4,0,5.6-0.4,6.5-1.2s1.4-2.7,1.4-5.6c0-3.4-0.4-5.5-1.2-6.3
		s-2.8-1.2-6-1.2h-9.3V210.2z"/>
</g>
<rect x="365" y="151.9" class="st2" width="378" height="41.7"/>
<g>
	<path class="st1" d="M208.8,265.5h6.9v1.3c0,5.1-0.9,8.4-2.7,9.8c-1.8,1.5-5.9,2.2-12.3,2.2c-7.2,0-11.6-1.2-13.3-3.6
		s-2.5-8.7-2.5-18.9c0-6,1.1-9.9,3.4-11.9s6.9-2.8,14-2.8c5.2,0,8.7,0.8,10.4,2.4s2.6,4.6,2.6,9.3v0.8h-6.9v-0.9
		c0-2.4-0.5-3.9-1.4-4.6c-0.9-0.6-2.9-1-6.2-1c-4.3,0-6.8,0.5-7.7,1.5c-0.8,1.1-1.3,4.2-1.3,9.4c0,7,0.4,11.1,1.2,12.4
		s3.3,1.9,7.5,1.9c3.5,0,5.7-0.4,6.7-1.1s1.5-2.3,1.5-4.7L208.8,265.5z"/>
	<path class="st1" d="M220.1,278.5V242h18c4.5,0,7.6,0.7,9.2,2.3c1.7,1.5,2.6,4.4,2.6,8.4c0,3.6-0.5,6.2-1.3,7.6s-2.6,2.3-5.2,2.8
		v0.3c4,0.3,6.1,2.6,6.1,7.1v8h-6.9v-6.7c0-3.7-1.8-5.7-5.6-5.7h-9.9v12.3h-7V278.5z M227.1,260.4h9.9c2.4,0,3.9-0.5,4.7-1.3
		s1.2-2.6,1.2-5.1c0-2.6-0.4-4.3-1-5s-2.1-1.1-4.4-1.1h-10.4V260.4L227.1,260.4z"/>
	<path class="st1" d="M298,242v36.5h-6.9v-19.9c0-1.5,0-3.4,0.1-5.4l0.1-2.7l0.1-2.7h-0.2l-0.8,2.6l-0.8,2.6c-0.7,2.3-1.4,3.9-1.7,5
		l-8,20.6h-6.3l-7.9-20.4c-0.5-1.1-1-2.8-1.7-5l-0.8-2.6l-0.8-2.6H262l0.1,2.6l0.1,2.6c0.1,2.1,0.2,3.8,0.2,5.3v19.9h-6.9V242h11.3
		l6.5,16.9c0.5,1.2,1,2.8,1.7,5l0.8,2.6l0.8,2.6h0.3l0.7-2.6l0.8-2.6c0.6-2.1,1.2-3.8,1.7-5l6.4-17H298V242z"/>
</g>
<g>
	<path class="st1" d="M265,175h-17.3l-2.5,7.7h-8l13.3-40h11.4l13.5,40h-7.9L265,175z M263.3,169.4l-6.9-20.8l-6.8,20.8H263.3z"/>
	<path class="st1" d="M278.9,182.7v-40h19.7c4.6,0,7.7,0.7,9.4,2.2c1.7,1.5,2.5,4.3,2.5,8.3c0,4.9-2,7.9-5.9,8.7v0.1
		c4.6,0.7,6.9,3.9,6.9,9.5c0,4.1-0.9,6.9-2.6,8.6c-1.7,1.7-4.8,2.5-9.2,2.5L278.9,182.7L278.9,182.7z M286.5,159.5h9.3
		c3,0,4.9-0.3,5.8-1c0.8-0.7,1.2-2.2,1.2-4.6c0-3.2-1.8-4.8-5.4-4.8h-10.8v10.4L286.5,159.5L286.5,159.5z M286.5,176.3h8.3l2.7-0.1
		c2.6,0,4.2-0.4,5.1-1.1c0.8-0.7,1.2-2.2,1.2-4.6s-0.4-3.9-1.3-4.6c-0.9-0.7-2.9-0.9-6.3-0.9h-9.7L286.5,176.3L286.5,176.3z"/>
	<path class="st1" d="M341.2,175h-17.3l-2.5,7.7h-8l13.3-40h11.4l13.5,40h-7.9L341.2,175z M339.4,169.4l-6.9-20.8l-6.8,20.8H339.4z"
		/>
	<path class="st1" d="M355,182.7v-40h16.1h2c5.4,0,9.1,0.9,10.9,2.8c1.9,1.9,2.8,5.5,2.8,10.9s-0.9,8.9-2.7,10.7
		c-1.8,1.8-5.4,2.6-10.9,2.6h-1.8h-8.9v12.9H355V182.7z M362.6,163.3h8.6c3.4,0,5.6-0.4,6.5-1.2s1.4-2.7,1.4-5.6
		c0-3.4-0.4-5.5-1.2-6.3c-0.8-0.8-2.8-1.2-6-1.2h-9.4v14.3H362.6z"/>
</g>
<g>
	<path class="st1" d="M666.3,124.6c0.3-0.4,0.1-0.8,0.1-1.1c0-5.5,0-11.1,0-16.6c0-0.9,0.2-1.3,1.2-1.2c1.3,0.1,2.7,0.1,4,0
		c0.9-0.1,1.1,0.3,1,1.1c0,8.6,0,17.1,0,25.7c0,0.9,0,1.8,0,2.7c0,0.6-0.1,0.9-0.8,0.8c-1.6,0-3.2,0-4.7,0c-0.7,0-0.9-0.4-1.2-0.9
		c-4.1-6.1-8.2-12.2-12.3-18.2c0-0.1-0.1-0.1-0.2-0.1c-0.3,0.3-0.1,0.6-0.1,0.9c0,5.7,0,11.4,0,17.2c0,0.9-0.2,1.2-1.1,1.2
		c-1.2-0.1-2.5-0.1-3.7,0c-1,0.1-1.4-0.2-1.4-1.3c0.1-8.8,0-17.6,0-26.3c0-2.7,0-2.7,2.7-2.7c1.3,0,2.8-0.4,3.8,0.2
		c1,0.5,1.5,2,2.3,3.1c3.2,4.9,6.5,9.9,9.7,14.8C665.8,124,666,124.4,666.3,124.6z"/>
	<path class="st1" d="M617.8,120.8c0,4.7,0,9.4,0,14c0,0.9-0.3,1.2-1.2,1.1c-1.5-0.1-3.1-0.1-4.6,0c-0.7,0-0.9-0.2-0.9-0.9
		c0-3.6,0-7.3,0-10.9c0-1-0.3-1.2-1.2-1.2c-3.2,0.1-6.3,0.1-9.5,0c-0.9,0-1.2,0.2-1.2,1.2c0.1,3.6,0,7.2,0,10.8c0,0.8-0.2,1-1,1
		c-1.6-0.1-3.2,0-4.7,0c-0.7,0-1-0.1-1-0.9c0-9.5,0-19.1,0-28.6c0-0.7,0.2-0.9,0.9-0.8c1.7,0,3.3,0,5,0c0.8,0,0.9,0.3,0.9,0.9
		c0,3.3,0,6.5,0,9.8c0,0.8,0.2,1,1,1c3.3,0,6.6,0,9.9,0c0.8,0,1-0.2,1-1c0-3.3,0-6.5,0-9.8c0-0.7,0.2-1,1-1c1.6,0.1,3.2,0.1,4.7,0
		c0.9,0,1,0.3,1,1.1C617.7,111.4,617.8,116.1,617.8,120.8z"/>
	<path class="st1" d="M528.7,105.2c4.1,0,8,1.7,10.9,5.4c0.5,0.6,0.6,0.9-0.2,1.4c-1.1,0.7-2.1,1.6-3.2,2.4
		c-0.5,0.4-0.8,0.5-1.3-0.2c-1.8-2.8-5.8-4.2-8.8-3.4c-1.9,0.5-2.7,1.8-2.4,3.6c0.2,1,0.9,1.5,1.7,2c1.5,0.9,3.2,1.3,4.9,1.7
		c2.1,0.6,4.2,1.3,6.2,2.2c6,2.9,5.6,10.9,0.6,14.2c-1.8,1.2-3.8,1.8-5.9,2c-4.5,0.5-8.8-0.2-12.3-3.3c-1.1-1-2-2.1-2.8-3.4
		c-0.3-0.5-0.2-0.7,0.3-1c1.3-0.7,2.5-1.5,3.8-2.3c0.5-0.3,0.8-0.2,1.1,0.3c2.1,3.4,5.1,4.8,9,4.5c0.5,0,0.9-0.1,1.4-0.3
		c1.4-0.4,2.5-1.2,2.7-2.9c0.2-1.6-0.8-2.5-2.1-3.2c-1.5-0.8-3.2-1.2-4.8-1.7c-2-0.6-4-1.2-5.9-2.1c-6.1-2.7-5.5-11-1-14
		C522.9,105.7,525.5,105.2,528.7,105.2z"/>
	<path class="st1" d="M579,115.4c0,2.9,0,5.8,0,8.6c0,0.7,0.2,1,0.9,0.9c1.1-0.1,2.3,0,3.5,0c0.6,0,0.8,0.1,0.8,0.8
		c0,1.2,0,2.4,0,3.7c0,0.6-0.2,0.9-0.8,0.9c-1.1-0.1-2.2,0-3.3,0c-0.7,0-1,0.2-1,0.9c0.1,1.4,0,2.7,0,4.1c0,0.7-0.1,1-0.9,0.9
		c-1.6,0-3.2,0-4.7,0c-0.6,0-0.9-0.2-0.9-0.8c0-1.3-0.1-2.7,0-4c0.1-1-0.3-1.2-1.2-1.2c-4.2,0-8.3,0-12.5,0c-0.8,0-1-0.2-1-1
		c-0.3-2.7,0.5-4.8,2.2-7c3.9-5.1,7.5-10.5,11.2-15.8c0.4-0.5,0.7-0.8,1.4-0.8c1.8,0,3.7,0.1,5.5,0c0.8,0,1,0.3,1,1
		C578.9,109.6,579,112.5,579,115.4z M572.5,114c-0.1,0-0.1,0-0.2-0.1c-2.4,3.4-4.7,6.8-7.1,10.3c-0.3,0.4-0.4,0.7,0.3,0.7
		c2.1,0,4.2,0,6.4,0c0.4,0,0.7-0.1,0.7-0.6C572.5,120.9,572.5,117.5,572.5,114z"/>
	<path class="st1" d="M697.6,135.9c-0.9-0.1-2.2,0.4-3-0.2c-0.8-0.6-0.8-1.9-1.2-3c-0.1-0.3-0.2-0.7-0.4-1c-0.8-2.6-0.8-2.6-3.5-2.6
		c-2.3,0-4.5,0-6.8,0c-0.6,0-0.9,0.1-1.1,0.8c-0.5,1.8-1.2,3.5-1.8,5.2c-0.2,0.6-0.5,0.8-1.1,0.7c-1.4,0-2.9-0.1-4.3,0
		c-1,0-1-0.3-0.7-1c2.5-7.1,5-14.2,7.5-21.3c0.8-2.4,1.7-4.8,2.5-7.2c0.2-0.7,0.6-0.9,1.2-0.9c1.5,0,3,0,4.5,0c0.6,0,1,0.1,1.2,0.8
		c3.3,9.5,6.7,19.1,10.1,28.6c0.3,0.8,0.2,1.2-0.8,1.1C699.3,135.9,698.5,135.9,697.6,135.9z M687.2,114c-1.2,3.5-2.3,6.6-3.4,9.8
		c-0.3,0.7,0.3,0.6,0.6,0.6c1.8,0,3.6,0,5.4,0c0.8,0,0.8-0.2,0.6-0.9C689.3,120.4,688.3,117.4,687.2,114z"/>
	<path class="st1" d="M642.6,135.9c-0.9-0.1-2.2,0.5-3-0.2c-0.7-0.6-0.7-1.9-1.1-2.9c-0.5-1.2-0.4-2.9-1.4-3.5
		c-0.9-0.6-2.4-0.2-3.7-0.2c-1.8,0-3.6,0-5.4,0c-0.8,0-1.1,0.3-1.4,1c-0.5,1.6-1.1,3.3-1.6,4.9c-0.2,0.7-0.6,0.9-1.2,0.9
		c-1.4,0-2.8,0-4.2,0c-0.8,0-1-0.1-0.7-0.9c1.9-5.4,3.8-10.8,5.7-16.3c1.4-4.1,2.9-8.2,4.3-12.3c0.2-0.7,0.5-1,1.3-0.9
		c1.5,0.1,3,0.1,4.4,0c0.7,0,1.1,0.2,1.3,0.9c2.2,6.4,4.4,12.8,6.7,19.1c1.1,3.1,2.2,6.2,3.3,9.3c0.3,0.8,0.2,1.1-0.7,1
		C644.4,135.9,643.6,135.9,642.6,135.9z M632.2,114c-1.2,3.5-2.3,6.7-3.4,9.8c-0.2,0.6,0.2,0.6,0.6,0.6c1.8,0,3.7,0,5.5,0
		c0.8,0,0.8-0.3,0.6-0.9c-0.7-2.1-1.4-4.2-2.2-6.3C633,116.2,632.7,115.2,632.2,114z"/>
	<path class="st1" d="M563.4,105.7c-1.1,2-2,3.8-3,5.7c-4.1,7.9-8.3,15.8-12.4,23.7c-0.5,0.9-1,1.2-1.9,1.1c-1.5-0.1-3-0.1-4.4,0
		c-0.9,0-1-0.3-0.6-1c1.4-2.7,2.9-5.4,4.3-8.1c3.5-6.8,7.1-13.6,10.6-20.4c0.4-0.8,0.9-1.1,1.7-1
		C559.6,105.8,561.4,105.7,563.4,105.7z"/>
</g>
<g id="layer1" transform="translate(-446.7987,535.9143)">
	<path id="path25030" class="st1" d="M871.1-397.3h54.2l53.2-49.3H871.1V-397.3"/>
	<path id="path25032" class="st3" d="M934.8-437.3l-10.5,0v23.3l-9.2-23.3h-9l-8,19.5c-0.8-4.9-6.3-6.6-10.7-7.9
		c-2.7-0.9-5.9-2.1-5.7-3.5c0-1.1,1.5-2.2,4.6-2c2.1,0.1,4,0.3,7.8,1.9l3.8-5.9c-3.6-1.6-8.2-2.6-12-2.6l0,0
		c-4.6,0-8.4,1.3-10.7,3.6c-1.5,1.6-2.5,3.5-2.5,5.7c0,3,1.3,5.1,3.6,6.8c2.3,1.4,4.8,2.4,7.4,3c2.9,0.8,5.3,1.6,5.3,3.1
		c0,0.6-0.2,1.1-0.6,1.5c-0.8,0.7-1.9,1-3.6,1c-2.9,0.1-5-0.4-8.6-2.3l-3.4,6c3.6,1.9,7.8,3,12,3l0.6,0c3.6-0.1,6.7-1,9-2.8
		c0.2-0.1,0.2-0.2,0.4-0.3l-1.1,2.6h9.7l1.5-4.5c1.7,0.5,3.6,0.8,5.7,0.8c2.1,0,3.8-0.3,5.5-0.8l1.7,4.5h15.6v-9.4h3.6
		c8.2,0,13-3.9,13-10.4C949.7-434,945.1-437.3,934.8-437.3z M910.4-417.4c-1.3,0-2.3-0.2-3.4-0.6l3.4-9.8l0,0l3.4,9.8
		C912.7-417.6,911.6-417.4,910.4-417.4z M935.4-423h-2.3v-7.9h2.3c3.2,0,5.7,1,5.7,3.9C941.1-424,938.6-423,935.4-423"/>
	<path id="path25034" class="st1" d="M938.6-400.5c0-1.5,1.3-2.7,2.7-2.7s2.7,1.1,2.7,2.7c0,1.6-1.3,2.7-2.7,2.7
		S938.6-398.9,938.6-400.5z M941.3-397.2c1.9,0,3.6-1.4,3.6-3.2c0-1.8-1.7-3.2-3.6-3.2s-3.6,1.3-3.6,3.2
		C937.7-398.6,939.4-397.2,941.3-397.2z M940.7-400.2h0.6l1.1,1.6h0.6l-1.1-1.6c0.4-0.1,1.1-0.4,1.1-1c0-0.7-0.6-1.1-1.5-1.1H940
		v3.7h0.6V-400.2z M940.7-400.7v-1.2h0.8c0.2,0,0.8,0.1,0.8,0.6c0,0.6-0.6,0.6-1.1,0.6H940.7"/>
</g>
</svg>
