<?xml version="1.0" encoding="utf-8"?>
<!-- Generator: Adobe Illustrator 22.0.1, SVG Export Plug-In . SVG Version: 6.00 Build 0)  -->
<svg version="1.1" id="Ebene_1" xmlns="http://www.w3.org/2000/svg" xmlns:xlink="http://www.w3.org/1999/xlink" x="0px" y="0px"
	 width="1000px" height="608px" viewBox="0 0 1000 608" style="enable-background:new 0 0 1000 608;" xml:space="preserve">
<style type="text/css">
	.st0{fill:#808080;}
	.st1{enable-background:new    ;}
	.st2{fill:#96BF0D;}
	.st3{fill:#FFFFFF;}
	.st4{fill:none;}
</style>
<g>
	<g>
		<path class="st0" d="M764.3,100.7h-5.2v-6.9c0-13.4-10.9-24.1-24.1-24.1c-13.4,0-24.1,10.9-24.1,24.1v6.9h-5.2
			c-1,0-1.8,0.8-1.8,1.8v43.1c0,3.9,3,6.9,6.9,6.9h48.2c3.9,0,6.9-3,6.9-6.9v-43.1C766,101.4,765.3,100.7,764.3,100.7z M740.2,136.7
			c0,0.6-0.1,1-0.4,1.4s-0.8,0.6-1.2,0.6h-6.9c-0.6,0-1-0.3-1.2-0.6c-0.3-0.4-0.6-0.8-0.4-1.4l1.1-9.8c-1.8-1.2-2.8-3.3-2.8-5.5
			c0-3.9,3-6.9,6.9-6.9s6.9,3,6.9,6.9c0,2.2-1.1,4.3-2.8,5.5L740.2,136.7z M748.7,100.7h-27.6v-6.9c0-7.6,6.2-13.8,13.8-13.8
			c7.6,0,13.8,6.2,13.8,13.8V100.7z"/>
	</g>
</g>
<g class="st1">
	<path class="st0" d="M468.3,64.2v16.3h3.6l13.3-16.3h9.4l-16.1,19.4l17.8,20.6h-9.7L472,86.8h-3.6v17.3h-7.6v-40L468.3,64.2
		L468.3,64.2z"/>
	<path class="st0" d="M506.2,84.2h-6.9c0-3.4,0.8-5.6,2.3-6.7c1.6-1.1,4.7-1.7,9.3-1.7c5,0,8.4,0.7,10.2,2.1s2.7,4,2.7,7.9v18.3
		h-6.7l0.3-3.8h-0.2c-1.3,2.8-4.3,4.2-8.9,4.2c-6.8,0-10.2-2.9-10.2-8.6c0-5.8,3.5-8.7,10.4-8.7c4.6,0,7.4,1.1,8.4,3.2h0.1v-4.7
		c0-2.2-0.4-3.6-1.1-4.4s-2.3-1.1-4.7-1.1C507.9,80.2,506.2,81.5,506.2,84.2z M510.7,91.5c-3.8,0-5.7,1.3-5.7,3.9
		c0,1.8,0.4,3,1.2,3.6s2.4,0.8,4.9,0.8c4.1,0,6.1-1.4,6.1-4.1C517.2,92.9,515,91.5,510.7,91.5z"/>
	<path class="st0" d="M531.9,104.2v-23h-4v-5.1h4v-3c0-3.6,0.8-6,2.3-7.4s4.3-2,8.3-2c0.7,0,1.6,0,2.8,0.1V69
		c-0.9-0.2-1.7-0.3-2.3-0.3c-2.9,0-4.4,1.5-4.4,4.4v3h7v5.1h-7v22.9L531.9,104.2L531.9,104.2z"/>
	<path class="st0" d="M556,64.2V87h1.7l7.6-10.9h7.8l-9.8,13.2l11.7,14.8h-8.3l-9.1-12.4H556v12.4h-6.7v-40
		C549.3,64.2,556,64.2,556,64.2z"/>
	<path class="st0" d="M585.1,84.2h-6.9c0-3.4,0.8-5.6,2.3-6.7c1.6-1.1,4.7-1.7,9.3-1.7c5,0,8.4,0.7,10.2,2.1s2.7,4,2.7,7.9v18.3H596
		l0.3-3.8h-0.2c-1.3,2.8-4.3,4.2-8.9,4.2c-6.8,0-10.2-2.9-10.2-8.6c0-5.8,3.5-8.7,10.4-8.7c4.6,0,7.4,1.1,8.4,3.2h0.1v-4.7
		c0-2.2-0.4-3.6-1.1-4.4s-2.3-1.1-4.7-1.1C586.8,80.2,585.1,81.5,585.1,84.2z M589.6,91.5c-3.8,0-5.7,1.3-5.7,3.9
		c0,1.8,0.4,3,1.2,3.6s2.4,0.8,4.9,0.8c4.1,0,6.1-1.4,6.1-4.1C596.1,92.9,593.9,91.5,589.6,91.5z"/>
</g>
<g>
	<path class="st0" d="M271.4,117.3v12.4c0,0.2,0.1,0.5,0.1,0.7c1.8,7.4,17.8,12.9,37.7,12.9c19.8,0,35.8-5.5,37.5-12.9
		c0.1-0.2,0.2-0.5,0.2-0.7v-12.4c-6.2,4.4-19.1,7.9-37.8,7.9C290.5,125.1,277.6,121.7,271.4,117.3z"/>
	<path class="st0" d="M351.4,128.1c0,0.2-0.1,0.6-0.2,0.8c-0.2,0.8-0.6,1.8-1.2,2.6c6.6-2.3,10.8-5.5,11.7-9.1
		c0.1-0.2,0.2-0.5,0.2-0.7v-12.5l-10.6,5V128L351.4,128.1L351.4,128.1z"/>
	<path class="st0" d="M313.2,106.9c-1.3,0-2.6,0.1-3.9,0.1s-2.6,0-3.9-0.1c-11.1-0.4-19.9-1.9-26.2-4.1c-3-1-5.6-2.1-7.5-3.6V110
		v0.7v0.7v2c4.3,4.5,18.7,8.6,37.8,8.6c19.1,0,33.5-4.2,37.8-8.6v-1.9v-0.7v-0.7V99.4c-2,1.3-4.5,2.5-7.6,3.6
		C332.9,105.1,324.1,106.6,313.2,106.9z"/>
	<path class="st0" d="M350,96.4v12.8v0.8v0.8v0.4c5.8-1.5,10.1-3.6,12-5.6v-1.9V103v-0.7V91.5c-2,1.3-4.5,2.5-7.6,3.6L350,96.4z"/>
	<path class="st0" d="M271.4,81.3V92v0.7v0.7v1.9c3.9,4.2,16.7,8,33.6,8.6c0.1,0,0.4,0,0.5,0c0.5,0,1,0,1.4,0c0.7,0,1.4,0,2.1,0
		s1.4,0,2.1,0c0.5,0,1,0,1.4,0c0.1,0,0.4,0,0.5,0c17-0.6,29.7-4.4,33.6-8.6v-1.9v-0.7V92V81.3c-7.4,5-22.9,7.7-37.8,7.7
		C294.1,89,278.8,86.4,271.4,81.3z"/>
	<path class="st0" d="M309.2,60.6c-22.8,0-35.8,6.3-37.5,12.9c-0.1,0.2-0.2,0.5-0.2,0.7v0.7v2.7c4.3,4.5,18.6,8.6,37.8,8.6
		s33.5-4.2,37.8-8.6v-2.7v-0.7c0-0.2-0.1-0.5-0.2-0.7C345,67.1,332,60.6,309.2,60.6z"/>
	<path class="st0" d="M350,89.6v1v1v1.7c5.8-1.5,10-3.6,12-5.7v-1.9V85v-0.7V73.4c-2.9,2-7.2,3.6-12,4.9V89.6z"/>
	<path class="st0" d="M361.8,65.5c-1.7-6.4-14.7-12.9-37.5-12.9c-15.3,0-26.1,2.9-32.2,6.7c5.2-1.1,11.4-1.8,18.6-1.8
		c23.7,0,37.3,7.2,39.1,14.4c0.1,0.2,0.2,0.5,0.2,0.7v0.8v1.7c5.8-1.5,10.1-3.6,12-5.6v-2.6v-0.7C362,66,361.9,65.8,361.8,65.5z"/>
</g>
<g class="st1">
	<path class="st0" d="M700.7,327.2c7.4,0,12.1,1.2,14.3,3.7c2.1,2.4,3.2,8,3.2,16.5c0,9.4-1.1,15.2-3.2,17.7
		c-2.1,2.4-7.3,3.7-15.5,3.7c-7.4,0-12.2-1.2-14.4-3.6c-2.1-2.4-3.3-7.7-3.3-15.8c0-9.7,1-15.8,3.2-18.4
		C687.1,328.4,692.3,327.2,700.7,327.2z M700.1,333.8c-5.2,0-8.3,0.7-9.1,2c-0.9,1.3-1.3,5.9-1.3,13.9c0,5.8,0.5,9.4,1.5,10.6
		s4.1,1.8,9.1,1.8c4.8,0,7.7-0.7,8.7-2s1.4-5.4,1.4-12.2s-0.4-10.9-1.3-12.1C708,334.4,705.1,333.8,700.1,333.8z"/>
	<path class="st0" d="M723.4,339.7h6.8l-0.4,4h0.1c1.6-3,4.2-4.5,7.8-4.5c5,0,7.6,3.2,7.6,9.5v2h-6.4c0.1-0.8,0.1-1.3,0.1-1.5
		c0-3.1-1.2-4.6-3.6-4.6c-3.4,0-5.1,2.2-5.1,6.8v16.8h-6.8L723.4,339.7L723.4,339.7z"/>
	<path class="st0" d="M756.1,348.1h-6.9c0-3.5,0.8-5.7,2.3-6.8c1.6-1.1,4.8-1.7,9.5-1.7c5.1,0,8.6,0.7,10.4,2.1
		c1.8,1.4,2.8,4.1,2.8,8.1v18.7h-6.9l0.3-3.9h-0.2c-1.3,2.9-4.4,4.3-9.1,4.3c-6.9,0-10.4-3-10.4-8.8c0-5.9,3.6-8.9,10.6-8.9
		c4.7,0,7.6,1.1,8.6,3.3h0.1v-4.8c0-2.2-0.4-3.7-1.1-4.5c-0.7-0.8-2.3-1.1-4.8-1.1C757.8,344,756.1,345.3,756.1,348.1z M760.7,355.5
		c-3.9,0-5.8,1.3-5.8,4c0,1.8,0.4,3.1,1.2,3.7s2.4,0.8,5,0.8c4.2,0,6.2-1.4,6.2-4.2C767.3,357,765.2,355.5,760.7,355.5z"/>
	<path class="st0" d="M799.2,357.5h6.8v1l-0.4,4.3c-0.8,4-4.9,5.9-12.2,5.9c-5.4,0-9-1-10.7-3c-1.7-1.9-2.7-5.8-2.7-11.7
		c0-5.7,0.9-9.6,2.7-11.6c1.7-2,5.2-3,10.3-3c4.9,0,8.3,0.7,10,2.1s2.7,4.2,2.7,8.3h-6.8c0-3.4-1.9-5-5.8-5c-2.8,0-4.5,0.5-5.1,1.6
		s-1,3.7-1,7.8c0,4,0.4,6.5,1.1,7.6c0.7,1,2.7,1.5,5.6,1.5c2.3,0,3.9-0.3,4.5-1C798.7,361.5,799.2,359.9,799.2,357.5z"/>
	<path class="st0" d="M817.8,327.6v40.8H811v-40.8H817.8z"/>
	<path class="st0" d="M843,359.2h6.8v1.1c0,5.6-4.2,8.4-12.6,8.4c-5.7,0-9.4-0.9-11.1-2.9c-1.7-1.9-2.7-6-2.7-12.2
		c0-5.5,0.9-9.3,2.8-11.2c1.8-1.9,5.4-2.9,10.7-2.9c5.1,0,8.5,0.9,10.2,2.8s2.6,5.5,2.6,11v2.1h-19.4c0,0.6-0.1,1-0.1,1.2
		c0,2.9,0.4,4.7,1.3,5.6c0.9,0.9,2.6,1.4,5.2,1.4c2.6,0,4.2-0.3,4.9-0.8S843,361,843,359.2z M843,351v-1.1c0-2.2-0.4-3.8-1.2-4.4
		s-2.4-1-5.1-1c-2.6,0-4.2,0.4-5,1.2c-0.8,0.8-1.1,2.6-1.1,5.3C830.6,351,843,351,843,351z"/>
</g>
<g>
	<path class="st2" d="M323.9,223.4l-12.8,48h-13.5l-6.7-24.6c-0.6-2.2-1.3-5.2-2.1-8.9l-0.7-3h-0.3l-0.7,3l-0.7,3c-0.5,2-1,4-1.6,6
		l-6.9,24.6h-13.3l-12.4-48h9.3l6.9,26.3c0.4,1.7,0.9,4,1.6,7l0.7,3.5l0.7,3.5h0.3c0.4-1.5,0.7-2.7,0.8-3.5l0.8-3.5
		c0.4-1.8,1.1-4.2,1.9-7l7.4-26.4h10.7l7.2,26.4c0.6,2.2,1.2,4.6,1.8,7l0.8,3.5l0.8,3.5h0.3l0.8-3.5l0.7-3.5c0.6-2.8,1.2-5.2,1.7-7
		l7.1-26.3L323.9,223.4L323.9,223.4z"/>
	<path class="st2" d="M349.6,260.6h8.1v1.3c0,6.6-4.9,9.8-14.8,9.8c-6.7,0-11.1-1.1-13.1-3.4c-2.1-2.3-3.1-7.1-3.1-14.4
		c0-6.5,1.1-10.9,3.2-13.2c2.2-2.2,6.4-3.4,12.6-3.4c6,0,10,1.1,12.1,3.3c2,2.2,3.1,6.5,3.1,12.9v2.5H335c0,0.8-0.1,1.2-0.1,1.5
		c0,3.3,0.5,5.5,1.5,6.6s3.1,1.7,6.1,1.7s4.9-0.3,5.8-1C349.1,264.1,349.6,262.8,349.6,260.6z M349.6,251.1v-1.3
		c0-2.7-0.5-4.4-1.4-5.2s-2.9-1.2-6-1.2c-3,0-5,0.5-5.9,1.4c-0.9,1-1.4,3.1-1.4,6.3H349.6z"/>
	<path class="st2" d="M364.4,271.4v-48h8.1v19.2l0.2,0.1c1.4-3.5,4.9-5.3,10.5-5.3c4.8,0,8.1,1.2,9.9,3.5s2.7,6.7,2.7,13.1
		c0,7-0.9,11.7-2.7,14.1c-1.8,2.4-5.3,3.7-10.5,3.7s-8.7-1.9-10.3-5.7h-0.2l0.4,5.3H364.4z M380.4,243.7c-5.2,0-7.8,3.2-7.8,9.7
		c0,5.1,0.4,8.3,1.3,9.8s2.9,2.2,6,2.2c3.3,0,5.4-0.7,6.3-2s1.4-4.4,1.4-9.1c0-4.4-0.5-7.3-1.4-8.6S383.4,243.7,380.4,243.7z"/>
	<path class="st2" d="M398.5,249h16.1v7.7h-16.1V249z"/>
	<path class="st2" d="M427.9,223.4v48h-9.1v-48H427.9z"/>
	<path class="st2" d="M436.1,237.8h8l-0.3,5.7h0.2c1.6-4.1,5.1-6.1,10.5-6.1c7.9,0,11.9,3.7,11.9,11.1v22.9h-8.1v-20.2v-1.3
		l-0.2-2.4c-0.4-2.5-2.3-3.8-5.9-3.8c-5.4,0-8.1,2.6-8.1,7.7v19.9H436v-33.5L436.1,237.8L436.1,237.8z"/>
	<path class="st2" d="M475.9,271.4v-27.5h-4.7v-6.1h4.7v-3.6c0-4.3,0.9-7.2,2.8-8.8c1.8-1.6,5.2-2.4,10-2.4c0.8,0,2,0,3.4,0.1v6.3
		c-1.1-0.3-2-0.4-2.8-0.4c-3.5,0-5.3,1.8-5.3,5.3v3.6h8.4v6.1H484v27.5h-8.1V271.4z"/>
	<path class="st2" d="M497,237.8h8.1l-0.5,4.7h0.2c1.9-3.5,4.9-5.3,9.1-5.3c5.9,0,8.9,3.7,8.9,11.2v2.4h-7.6
		c0.1-0.9,0.1-1.5,0.1-1.8c0-3.6-1.4-5.4-4.2-5.4c-4,0-6,2.7-6,8v19.8H497V237.8z"/>
	<path class="st2" d="M535.5,247.5h-8.2c0-4,0.9-6.7,2.8-8.1c1.9-1.4,5.6-2,11.1-2c6,0,10.1,0.8,12.3,2.5c2.1,1.7,3.2,4.8,3.2,9.5
		v22h-8.1l0.4-4.6h-0.2c-1.5,3.4-5.1,5-10.7,5c-8.1,0-12.2-3.5-12.2-10.4c0-7,4.2-10.5,12.5-10.5c5.6,0,8.9,1.3,10.1,3.8h0.1v-5.4
		c0-2.6-0.5-4.4-1.4-5.2c-0.9-0.9-2.8-1.3-5.6-1.3C537.6,242.8,535.5,244.4,535.5,247.5z M540.9,256.3c-4.5,0-6.8,1.6-6.8,4.7
		c0,2.2,0.5,3.6,1.4,4.3c0.9,0.7,2.9,1,5.9,1c4.9,0,7.3-1.7,7.3-5C548.7,258,546.1,256.3,540.9,256.3z"/>
	<path class="st2" d="M592.8,247h-7.9c0-0.3-0.1-0.5-0.1-0.6c-0.2-1.6-0.6-2.6-1.4-3c-0.8-0.4-2.6-0.6-5.5-0.6
		c-4.2,0-6.3,1.4-6.3,4.1c0,1.9,0.4,3,1.1,3.3s3.2,0.6,7.5,0.8c5.7,0.3,9.5,1,11.2,2.3c1.7,1.2,2.6,3.8,2.6,7.6
		c0,4.1-1.2,6.9-3.5,8.5s-6.5,2.4-12.4,2.4c-5.7,0-9.7-0.7-11.8-2.1s-3.2-4.1-3.2-8v-0.8h8.4c-0.1,0.5-0.2,0.8-0.2,1.1
		c-0.3,3,2,4.5,6.9,4.5c5.1,0,7.6-1.5,7.6-4.4c0-2.8-1.6-4.3-4.8-4.3c-7.2,0-11.9-0.7-14.2-2c-2.3-1.4-3.4-4.2-3.4-8.5
		c0-3.8,1-6.4,3.1-7.8c2.1-1.4,6.1-2,12-2c5.6,0,9.4,0.7,11.3,2C591.8,240.6,592.8,243.2,592.8,247z"/>
	<path class="st2" d="M622,237.8v6.1h-12.9v16.9c0,3.1,1.2,4.7,3.6,4.7c2.6,0,3.9-1.9,3.9-5.7v-1.3h6.9v1.7c0,1.5,0,2.9-0.1,4
		c-0.4,5.1-4.3,7.7-11.5,7.7s-10.8-3.3-10.8-9.9v-18h-4.4v-6.1h4.4v-7.5h8.1v7.5H622V237.8z"/>
	<path class="st2" d="M628,237.8h8.1l-0.5,4.7h0.2c1.9-3.5,4.9-5.3,9.1-5.3c5.9,0,8.9,3.7,8.9,11.2v2.4h-7.6
		c0.1-0.9,0.1-1.5,0.1-1.8c0-3.6-1.4-5.4-4.2-5.4c-4,0-6,2.7-6,8v19.8H628V237.8z"/>
	<path class="st2" d="M688,237.8v33.6h-8l0.5-5.8h-0.1c-1.6,4.1-5.2,6.2-10.8,6.2c-7.6,0-11.4-3.8-11.4-11.4v-22.6h8.1v20.6
		c0,2.9,0.4,4.7,1.2,5.6s2.4,1.4,5,1.4c5.2,0,7.7-3.1,7.7-9.3v-18.4L688,237.8L688,237.8z"/>
	<path class="st2" d="M704.2,223.4v27.5h2.1l9.1-13.1h9.4L713,253.6l14.1,17.8h-10l-10.9-14.9h-2v14.9h-8.1v-48H704.2z"/>
	<path class="st2" d="M752.5,237.8v6.1h-12.9v16.9c0,3.1,1.2,4.7,3.6,4.7c2.6,0,3.9-1.9,3.9-5.7v-1.3h6.9v1.7c0,1.5,0,2.9-0.1,4
		c-0.4,5.1-4.3,7.7-11.5,7.7s-10.8-3.3-10.8-9.9v-18h-4.4v-6.1h4.4v-7.5h8.1v7.5h12.8V237.8z"/>
	<path class="st2" d="M788.1,237.8v33.6H780l0.5-5.8h-0.1c-1.6,4.1-5.2,6.2-10.8,6.2c-7.6,0-11.4-3.8-11.4-11.4v-22.6h8.1v20.6
		c0,2.9,0.4,4.7,1.2,5.6s2.4,1.4,5,1.4c5.2,0,7.7-3.1,7.7-9.3v-18.4L788.1,237.8L788.1,237.8z"/>
	<path class="st2" d="M796.5,237.8h8.1l-0.5,4.7h0.2c1.9-3.5,4.9-5.3,9.1-5.3c5.9,0,8.9,3.7,8.9,11.2v2.4h-7.6
		c0.1-0.9,0.1-1.5,0.1-1.8c0-3.6-1.4-5.4-4.2-5.4c-4,0-6,2.7-6,8v19.8h-8.1V237.8z"/>
</g>
<path id="path10349" class="st0" d="M163.3,338.6c-0.4-1.1-1.2-2.1-2.3-2.7l-21.9-10.5c-0.6-0.3-1.2-0.4-1.8-0.4s-1.2,0-1.8,0.1
	l-21.9,10.5c-1.1,0.5-1.9,1.4-2.2,2.7l-5.4,23.6c-0.2,1.2,0.1,2.4,0.8,3.4l15.1,18.7c0.9,0.9,2.1,1.4,3.3,1.5h24.1
	c1.3,0.1,2.5-0.4,3.3-1.5l15.1-18.7c0.7-1,1-2.2,0.9-3.4L163.3,338.6L163.3,338.6z"/>
<path id="path10351" class="st3" d="M160,361.1L160,361.1c-0.1,0-0.1,0-0.1-0.1s-0.1-0.1-0.3-0.1c-0.3-0.1-0.6-0.1-0.9-0.1
	c-0.1,0-0.3,0-0.4-0.1h-0.1c-0.8-0.1-1.6-0.2-2.4-0.4c-0.2-0.1-0.4-0.3-0.5-0.5c0.1,0,0,0,0,0l0,0l-0.6-0.1c0.3-2.1,0.1-4.2-0.3-6.3
	c-0.5-2.1-1.4-4.1-2.5-5.9l0.4-0.4l0,0V347c0-0.2,0.1-0.5,0.2-0.6c0.6-0.6,1.3-1,2-1.4l0,0c0.1-0.1,0.3-0.1,0.4-0.2
	c0.3-0.1,0.5-0.3,0.8-0.4c0.1-0.1,0.1-0.1,0.2-0.1s0-0.1,0-0.1l0,0c0.6-0.5,0.8-1.4,0.3-2c-0.2-0.3-0.6-0.5-1-0.5s-0.7,0.1-1,0.4
	l0,0l-0.1,0.1c-0.1,0.1-0.1,0.1-0.2,0.1c-0.2,0.2-0.4,0.4-0.6,0.6c-0.1,0.1-0.2,0.2-0.3,0.3l0,0c-0.5,0.6-1.1,1.1-1.8,1.6
	c-0.1,0.1-0.3,0.1-0.4,0.1c-0.1,0-0.2,0-0.3-0.1h-0.1l-0.6,0.4c-0.6-0.6-1.2-1.1-1.8-1.7c-2.7-2.1-6-3.4-9.3-3.7l-0.1-0.6l0,0v0.1
	c-0.2-0.1-0.3-0.4-0.4-0.6c0-0.8,0-1.6,0.1-2.4V336c0-0.1,0.1-0.3,0.1-0.4c0.1-0.3,0.1-0.6,0.1-0.9v-0.4l0,0
	c0.1-0.7-0.5-1.4-1.2-1.5c-0.4-0.1-0.9,0.1-1.2,0.5c-0.3,0.3-0.4,0.6-0.4,1l0,0v0.4c0,0.3,0.1,0.6,0.1,0.9c0.1,0.1,0.1,0.3,0.1,0.4
	v0.1c0.1,0.8,0.1,1.6,0.1,2.4c-0.1,0.2-0.1,0.4-0.4,0.6v0.1l0,0l-0.1,0.6c-0.8,0.1-1.6,0.2-2.4,0.4c-3.4,0.7-6.5,2.5-8.8,5l-0.4-0.3
	h0.1c-0.1,0-0.1,0.1-0.3,0.1c-0.1,0-0.3-0.1-0.4-0.1c-0.6-0.5-1.3-1.1-1.8-1.6l0,0c-0.1-0.1-0.2-0.2-0.3-0.3
	c-0.2-0.2-0.4-0.4-0.6-0.6c-0.1-0.1-0.1-0.1-0.2-0.1c-0.1-0.1-0.1-0.1-0.1-0.1l0,0c-0.3-0.2-0.6-0.4-1-0.4s-0.8,0.1-1,0.5
	c-0.4,0.6-0.3,1.5,0.3,2l0,0c0.1,0,0.1,0.1,0.1,0.1s0.1,0.1,0.2,0.1c0.2,0.1,0.5,0.3,0.8,0.4c0.1,0.1,0.3,0.1,0.4,0.2l0,0
	c0.7,0.4,1.4,0.9,2,1.4c0.1,0.1,0.3,0.4,0.2,0.6V347l0,0l0.4,0.4c-0.1,0.1-0.1,0.2-0.2,0.4c-2.2,3.5-3.2,7.7-2.5,11.8l-0.6,0.1l0,0
	c0,0.1-0.1,0.1-0.1,0.1c-0.1,0.2-0.3,0.4-0.5,0.5c-0.8,0.2-1.6,0.4-2.4,0.4l0,0c-0.1,0-0.3,0-0.4,0.1c-0.3,0-0.6,0.1-0.9,0.1
	c-0.1,0-0.1,0.1-0.3,0.1c-0.1,0-0.1,0-0.1,0.1l0,0c-0.8,0.1-1.3,0.9-1.1,1.6l0,0c0.1,0.6,0.8,1.1,1.4,1c0.1,0,0.2,0,0.4-0.1l0,0
	c0.1,0,0.1,0,0.1-0.1s0.2,0,0.3,0c0.3-0.1,0.6-0.2,0.8-0.3c0.1-0.1,0.3-0.1,0.4-0.1h0.1c0.8-0.3,1.5-0.5,2.4-0.6h0.1
	c0.2,0,0.4,0.1,0.6,0.2c0.1,0,0.1,0.1,0.1,0.1l0,0l0.6-0.1c1.1,3.3,3.1,6.2,5.9,8.4c0.6,0.5,1.2,0.9,1.9,1.3l-0.4,0.5l0,0
	c0,0.1,0.1,0.1,0.1,0.1c0.1,0.2,0.1,0.5,0.1,0.7c-0.3,0.7-0.7,1.4-1.1,2.1v0.1c-0.1,0.1-0.1,0.2-0.3,0.4c-0.1,0.1-0.3,0.4-0.5,0.7
	c-0.1,0.1-0.1,0.1-0.1,0.2c0,0,0,0.1-0.1,0.1l0,0c-0.4,0.7-0.1,1.6,0.6,1.9c0.1,0.1,0.4,0.1,0.5,0.1c0.6,0,1.1-0.4,1.4-0.9l0,0
	c0,0,0-0.1,0.1-0.1c0-0.1,0.1-0.1,0.1-0.2c0.1-0.3,0.2-0.5,0.3-0.8l0.1-0.4l0,0c0.2-0.8,0.6-1.5,0.9-2.2c0.1-0.2,0.4-0.4,0.6-0.4
	c0.1,0,0.1,0,0.1-0.1l0,0l0.3-0.6c2,0.8,4.1,1.1,6.2,1.1c1.3,0,2.6-0.1,3.9-0.5c0.8-0.1,1.6-0.4,2.3-0.6l0.3,0.5l0,0
	c0.1,0,0.1,0,0.1,0.1c0.2,0.1,0.4,0.2,0.6,0.4c0.4,0.7,0.7,1.4,0.9,2.2v0.1l0.1,0.4c0.1,0.3,0.1,0.6,0.3,0.8
	c0.1,0.1,0.1,0.1,0.1,0.2c0,0,0,0.1,0.1,0.1l0,0c0.3,0.5,0.8,0.9,1.4,0.9c0.2,0,0.4-0.1,0.6-0.1c0.3-0.1,0.6-0.4,0.6-0.8
	c0.1-0.4,0.1-0.7-0.1-1.1l0,0c0-0.1-0.1-0.1-0.1-0.1c0-0.1-0.1-0.1-0.1-0.2c-0.1-0.3-0.3-0.5-0.5-0.7c-0.1-0.1-0.1-0.2-0.3-0.4v-0.1
	c-0.5-0.6-0.9-1.4-1.1-2.1c-0.1-0.2-0.1-0.5,0.1-0.7c0-0.1,0.1-0.1,0.1-0.1l0,0l-0.2-0.6c3.7-2.2,6.5-5.7,7.7-9.7l0.6,0.1l0,0
	c0.1,0,0.1-0.1,0.1-0.1c0.1-0.1,0.4-0.2,0.6-0.2h0.1c0.8,0.1,1.6,0.4,2.3,0.6h0.1c0.1,0.1,0.3,0.1,0.4,0.1c0.3,0.1,0.5,0.3,0.8,0.4
	c0.1,0,0.1,0.1,0.3,0.1c0.1,0,0.1,0,0.1,0.1l0,0c0.1,0.1,0.2,0.1,0.4,0.1c0.6,0,1.2-0.4,1.4-1C161.2,361.8,160.6,361.2,160,361.1
	L160,361.1z M139.2,358.8l-1.9,0.9l-1.9-0.9l-0.5-2.1l1.4-1.7h2.2l1.4,1.7L139.2,358.8z M150.9,354.2c0.4,1.5,0.4,3,0.3,4.5
	l-6.8-1.9l0,0c-0.6-0.1-1-0.8-0.9-1.4c0.1-0.2,0.1-0.4,0.3-0.5l5.4-4.9C150,351.2,150.6,352.7,150.9,354.2z M147.1,347.3l-5.9,4.2
	c-0.5,0.3-1.2,0.2-1.6-0.3c-0.1-0.1-0.2-0.3-0.2-0.5l-0.4-7.2C142.1,343.8,144.9,345.1,147.1,347.3L147.1,347.3z M134.1,343.6
	l1.4-0.3l-0.4,7.2l0,0c0,0.6-0.6,1.1-1.2,1.1c-0.2,0-0.4-0.1-0.6-0.1l-6-4.2C129.3,345.5,131.6,344.2,134.1,343.6z M125.3,349.9
	l5.3,4.7l0,0c0.5,0.4,0.6,1.1,0.1,1.6c-0.1,0.2-0.3,0.3-0.6,0.4l-7,2C123,355.7,123.8,352.6,125.3,349.9z M124.1,362.1l7.1-1.2
	c0.6,0,1.1,0.4,1.2,0.9c0.1,0.2,0.1,0.5-0.1,0.7l0,0l-2.7,6.6C127.1,367.4,125.1,364.9,124.1,362.1z M140.4,371
	c-1,0.2-2,0.4-3.1,0.4c-1.5,0-3.1-0.3-4.5-0.7l3.5-6.4c0.4-0.4,0.9-0.6,1.4-0.3c0.2,0.1,0.4,0.3,0.6,0.5l0,0l3.4,6.2
	C141.3,370.7,140.9,370.8,140.4,371z M149.1,364.7c-1.1,1.7-2.6,3.2-4.3,4.3l-2.8-6.7c-0.1-0.6,0.1-1.1,0.6-1.4
	c0.2-0.1,0.4-0.1,0.6-0.1l7.2,1.2C150.1,363,149.7,363.9,149.1,364.7z"/>
<path id="path3003" class="st0" d="M453.5,369.9c1,0.1,2.1-0.1,3-0.4c0.6-0.3,0.9-0.9,0.9-1.6c-0.1-0.7-0.5-1.4-1.1-1.6
	c-1.1-0.6-2.3-1.2-3.5-1.6s-2.3-0.9-3.3-1.4c-0.9-0.4-1.7-1-2.5-1.7c-0.7-0.7-1.2-1.5-1.6-2.4c-0.4-1.1-0.6-2.2-0.6-3.4
	c-0.1-2.4,1-4.7,2.9-6.1c1.9-1.5,4.5-2.2,7.8-2.2c1.6,0,3.2,0.1,4.8,0.5c1.2,0.2,2.4,0.5,3.7,0.9l-1.4,6.1c-1-0.4-1.9-0.6-2.9-0.9
	c-1.1-0.3-2.4-0.4-3.5-0.4c-2.4,0-3.7,0.6-3.7,2c0,0.3,0.1,0.6,0.1,0.9c0.1,0.3,0.4,0.5,0.6,0.7c0.3,0.2,0.7,0.4,1.2,0.7
	s1.2,0.6,2.1,0.9c1.4,0.5,2.9,1.1,4.2,1.9c1,0.5,1.9,1.1,2.6,2c0.6,0.6,1.1,1.4,1.4,2.4s0.4,2,0.4,3c0.1,2.4-1,4.8-3.1,6.2
	c-2,1.4-4.9,2.1-8.6,2.1c-2.1,0.1-4.1-0.1-6.1-0.6c-1.1-0.3-2.2-0.6-3.3-1l1.3-6.3c1.3,0.5,2.7,0.9,4,1.2
	C450.7,369.7,452,369.9,453.5,369.9 M414,362c-0.1-2.2,0.4-4.3,1.1-6.3c0.6-1.7,1.6-3.2,2.9-4.6c1.2-1.2,2.6-2.2,4.2-2.7
	c1.6-0.6,3.2-0.9,4.9-0.9c3.9,0,7,1.2,9.2,3.6s3.4,5.9,3.4,10.5c0,0.4,0,0.9-0.1,1.5c0,0.6-0.1,1-0.1,1.4H422
	c0.1,1.5,0.9,2.9,2.2,3.8c1.6,1,3.4,1.5,5.3,1.4c1.4,0,2.8-0.1,4.2-0.4c1.1-0.2,2.3-0.6,3.4-1.1l1.1,6.3c-0.5,0.3-1.1,0.4-1.6,0.6
	c-0.8,0.2-1.6,0.4-2.4,0.5c-0.9,0.1-1.7,0.3-2.7,0.4c-0.9,0.1-1.9,0.1-2.9,0.1c-2.2,0.1-4.4-0.3-6.5-1.1c-1.7-0.6-3.2-1.6-4.5-2.9
	c-1.2-1.3-2.1-2.9-2.7-4.5C414.2,365.8,414,363.9,414,362 M432.1,359.1c0-0.6-0.1-1.3-0.4-1.9c-0.1-0.6-0.5-1.1-0.9-1.6
	s-0.9-0.9-1.5-1.2c-0.7-0.4-1.4-0.5-2.2-0.5c-0.8,0-1.5,0.1-2.2,0.5c-0.6,0.3-1.1,0.6-1.6,1.1s-0.8,1.1-1,1.7s-0.4,1.3-0.4,1.9
	H432.1 M393,341.3l7.7-1.2v8h9.3v6.5h-9.3v9.6c-0.1,1.4,0.2,2.7,0.9,3.9c0.6,0.9,1.7,1.4,3.5,1.4c0.9,0,1.7-0.1,2.5-0.2
	c0.9-0.1,1.6-0.4,2.4-0.6l1.1,6c-1,0.4-2.1,0.7-3.2,1c-1.4,0.3-2.8,0.4-4.2,0.4c-1.8,0.1-3.6-0.2-5.2-0.9c-1.3-0.5-2.4-1.4-3.3-2.4
	c-0.9-1.1-1.4-2.4-1.8-3.7c-0.4-1.6-0.5-3.2-0.4-4.8V341.3 M361.6,362c-0.1-2.2,0.4-4.3,1.1-6.3c0.6-1.7,1.6-3.2,2.9-4.6
	c1.2-1.2,2.6-2.2,4.2-2.7c1.6-0.6,3.2-0.9,4.9-0.9c3.9,0,7,1.2,9.2,3.6s3.4,5.9,3.4,10.5c0,0.4,0,0.9-0.1,1.5s-0.1,1-0.1,1.4h-17.6
	c0.1,1.5,0.9,2.9,2.2,3.8c1.6,1,3.4,1.5,5.3,1.4c1.4,0,2.8-0.1,4.2-0.4c1.1-0.2,2.3-0.6,3.4-1.1l1.1,6.3c-0.5,0.3-1.1,0.4-1.6,0.6
	c-0.8,0.2-1.6,0.4-2.4,0.5c-0.9,0.1-1.7,0.3-2.7,0.4c-0.9,0.1-1.9,0.1-2.9,0.1c-2.2,0.1-4.4-0.3-6.5-1.1c-1.7-0.6-3.2-1.6-4.5-2.9
	c-1.2-1.3-2.1-2.9-2.7-4.5C361.8,365.8,361.6,363.9,361.6,362 M379.8,359.1c0-0.6-0.1-1.3-0.4-1.9c-0.1-0.6-0.5-1.1-0.9-1.6
	s-0.9-0.9-1.5-1.2c-0.7-0.4-1.4-0.5-2.2-0.5s-1.5,0.1-2.2,0.5c-0.6,0.3-1.1,0.6-1.5,1.1s-0.8,1.1-1,1.7s-0.4,1.3-0.4,1.9H379.8
	 M332.2,349c1.6-0.4,3.4-0.8,5.1-1.1c2.2-0.4,4.4-0.5,6.5-0.5c1.9-0.1,3.9,0.3,5.7,0.9c1.4,0.5,2.7,1.4,3.7,2.5
	c0.9,1.1,1.6,2.5,1.9,3.9c0.4,1.6,0.6,3.4,0.6,5.1v15.4H348v-14.4c0-2.5-0.4-4.2-1-5.3c-0.6-1-1.9-1.6-3.7-1.6c-0.6,0-1.1,0-1.8,0.1
	c-0.6,0-1.1,0.1-1.6,0.1v21.1h-7.7L332.2,349 M326.8,355c-0.7-0.1-1.5-0.4-2.4-0.5c-1-0.2-2-0.3-3-0.3c-0.6,0-1.1,0.1-1.8,0.1
	c-0.5,0.1-1,0.1-1.5,0.3v20.9h-7.7v-26c1.6-0.6,3.2-1,4.9-1.4c2.1-0.5,4.2-0.7,6.3-0.6c0.5,0,1,0.1,1.5,0.1c0.6,0,1.1,0.1,1.8,0.2
	c0.6,0.1,1.1,0.1,1.8,0.3c0.5,0.1,1,0.2,1.5,0.4L326.8,355 M278.7,362c-0.1-2.2,0.4-4.3,1.1-6.3c0.6-1.7,1.6-3.2,2.9-4.6
	c1.2-1.2,2.6-2.2,4.2-2.7c1.6-0.6,3.2-0.9,4.9-0.9c3.9,0,7,1.2,9.2,3.6s3.4,5.9,3.4,10.4c0,0.4,0,0.9-0.1,1.5s-0.1,1-0.1,1.4h-17.6
	c0.1,1.5,0.9,2.9,2.2,3.8c1.6,1,3.4,1.5,5.3,1.4c1.4,0,2.8-0.1,4.2-0.4c1.1-0.2,2.3-0.6,3.4-1l1.1,6.3c-0.5,0.3-1.1,0.4-1.6,0.6
	c-0.8,0.2-1.6,0.4-2.4,0.5c-0.9,0.1-1.7,0.3-2.7,0.4c-0.9,0.1-1.9,0.1-2.9,0.1c-2.2,0.1-4.4-0.3-6.5-1.1c-1.7-0.6-3.2-1.6-4.5-2.9
	c-1.2-1.3-2.1-2.9-2.7-4.5C279,365.8,278.7,363.9,278.7,362 M296.9,359.1c0-0.6-0.1-1.3-0.4-1.9c-0.1-0.6-0.5-1.1-0.9-1.6
	s-0.9-0.9-1.5-1.2c-0.7-0.4-1.4-0.5-2.2-0.5c-0.8,0-1.5,0.1-2.2,0.5c-0.6,0.3-1.1,0.6-1.6,1.1c-0.4,0.5-0.8,1.1-1,1.7
	s-0.4,1.3-0.4,1.9H296.9 M266.1,361.6c0-5-1.9-7.5-5.5-7.5c-0.8,0-1.6,0.1-2.4,0.3c-0.6,0.1-1.3,0.4-1.9,0.8v14.1
	c0.4,0.1,0.9,0.1,1.4,0.2s1.2,0.1,1.9,0.1c1.9,0.1,3.7-0.6,4.8-2.2C265.6,365.6,266.2,363.6,266.1,361.6 M274,361.9c0,2-0.3,4-1,6
	c-0.6,1.7-1.5,3.2-2.7,4.5c-1.3,1.3-2.8,2.3-4.4,2.9c-1.9,0.7-3.9,1-6,1c-0.9,0-1.9-0.1-2.9-0.1c-1-0.1-2-0.2-3-0.3
	c-0.9-0.1-1.9-0.3-2.8-0.5c-0.9-0.1-1.7-0.4-2.4-0.6v-38.4l7.7-1.2v13.6c0.9-0.4,1.8-0.6,2.7-0.9c1-0.2,2-0.3,3-0.3
	c1.8,0,3.5,0.3,5.2,1.1c1.4,0.6,2.7,1.6,3.7,2.9c1.1,1.4,1.9,2.9,2.3,4.5C273.8,357.8,274,359.8,274,361.9 M241.3,374.5
	c-1.6,0.4-3.4,0.8-5.1,1c-2.2,0.4-4.4,0.5-6.5,0.5c-2,0.1-3.9-0.3-5.8-0.9c-1.4-0.6-2.7-1.4-3.7-2.6c-0.9-1.2-1.6-2.6-1.9-4.1
	c-0.4-1.6-0.6-3.4-0.6-5.2v-15.1h7.7v14.3c0,2.5,0.4,4.3,1,5.4s1.9,1.6,3.7,1.6c0.6,0,1.1,0,1.8-0.1s1.1-0.1,1.6-0.2v-21h7.7v26.4
	 M196.2,358c0.8-0.9,1.5-1.7,2.4-2.6c0.8-0.9,1.6-1.8,2.4-2.7c0.8-0.9,1.5-1.7,2.2-2.5c0.6-0.8,1.3-1.5,1.8-2.1h9.2
	c-1.9,2.1-3.7,4.2-5.4,6.1c-1.8,1.9-3.7,3.9-5.7,6c1.1,1.1,2.2,2.2,3.2,3.4c1.1,1.3,2.2,2.6,3.2,4s2,2.8,2.9,4.2
	c0.9,1.4,1.6,2.7,2.2,3.8h-8.9c-0.6-0.9-1.2-1.9-1.9-2.9c-0.7-1.1-1.5-2.2-2.2-3.3c-0.8-1.1-1.6-2.2-2.6-3.2
	c-0.8-0.9-1.6-1.8-2.6-2.5v12h-7.7v-39.3l7.7-1.2L196.2,358"/>
<g>
	<path class="st0" d="M642.7,164c4.5,0,8.1,2.6,9.2,6.8h-5.2c-0.8-1.7-2.2-2.5-4-2.5c-2.9,0-4.8,2.2-4.8,5.5c0,3.4,1.9,5.5,4.8,5.5
		c1.8,0,3.3-0.8,4-2.5h5.2c-1.1,4.1-4.5,6.8-9.2,6.8c-5.7,0-9.8-4-9.8-9.8S637.1,164,642.7,164z"/>
	<path class="st0" d="M665.5,168.1h5.1l-9.6,22.7h-5.1l3.6-7.9l-6.2-14.9h5.2l3.6,9.6L665.5,168.1z"/>
	<path class="st0" d="M681.7,167.9c3.9,0,6.8,3,6.8,7.9s-3,8-6.8,8c-2.2,0-3.9-1-4.7-2.3v2.2h-4.7v-20.4h4.7v7.2
		C677.7,169,679.5,167.9,681.7,167.9z M680.2,172c-1.8,0-3.3,1.4-3.3,3.9c0,2.5,1.7,3.9,3.3,3.9c1.8,0,3.4-1.4,3.4-3.9
		C683.7,173.4,682,172,680.2,172z"/>
	<path class="st0" d="M697.7,183.7c-4.5,0-7.7-3-7.7-7.9s3.2-7.9,7.7-7.9c4.5,0,7.7,3,7.7,7.7c0,0.4,0,1-0.1,1.4h-10.6
		c0.1,2.1,1.4,2.9,2.9,2.9c1.4,0,2.1-0.7,2.5-1.5h5C704.3,181.4,701.6,183.7,697.7,183.7z M694.7,174.3h5.9c0-1.7-1.4-2.6-2.9-2.6
		C696.2,171.7,695,172.7,694.7,174.3z"/>
	<path class="st0" d="M712.6,183.6h-4.7v-15.4h4.7v2.6c1.1-1.7,2.8-2.8,4.8-2.8v5h-1.2c-2.2,0-3.6,0.8-3.6,3.4V183.6z"/>
	<path class="st0" d="M732.6,183.7c-4.1,0-7.4-2.1-7.6-5.9h5c0.1,1.5,1.1,2.2,2.3,2.2c1.4,0,2.2-0.7,2.2-1.8c0-3.6-9.6-1.7-9.6-8.5
		c0-3.7,3-5.7,7-5.7c4.3,0,7,2.1,7.3,5.8h-5.1c-0.1-1.2-1-1.9-2.2-2.1c-1.1,0-1.9,0.6-1.9,1.8c0,3.3,9.5,1.8,9.5,8.3
		C739.6,181,737.2,183.7,732.6,183.7z"/>
	<path class="st0" d="M749.4,183.7c-4.5,0-7.7-3-7.7-7.9s3.2-7.9,7.7-7.9c4.5,0,7.7,3,7.7,7.7c0,0.4,0,1-0.1,1.4h-10.6
		c0.1,2.1,1.4,2.9,2.9,2.9c1.4,0,2.1-0.7,2.5-1.5h5C755.9,181.4,753.1,183.7,749.4,183.7z M746.2,174.3h5.9c0-1.7-1.4-2.6-2.9-2.6
		C747.8,171.7,746.5,172.7,746.2,174.3z"/>
	<path class="st0" d="M766.2,167.9c3.9,0,6.6,2.1,7.4,5.8h-5c-0.4-1.1-1.1-1.8-2.5-1.8c-1.7,0-2.9,1.4-2.9,3.9
		c0,2.5,1.1,3.9,2.9,3.9c1.2,0,2.1-0.7,2.5-1.8h5c-0.8,3.6-3.6,5.8-7.4,5.8c-4.5,0-7.7-3-7.7-7.9C758.5,171,761.8,167.9,766.2,167.9
		z"/>
	<path class="st0" d="M791.3,183.6h-4.7v-2.1c-1,1.4-2.6,2.2-4.7,2.2c-3.6,0-5.9-2.5-5.9-6.6v-9h4.7v8.4c0,2.1,1.2,3.3,2.9,3.3
		c1.8,0,3-1.1,3-3.3v-8.4h4.7V183.6z"/>
	<path class="st0" d="M799.5,183.6h-4.7v-15.4h4.7v2.6c1.1-1.7,2.8-2.8,4.8-2.8v5H803c-2.2,0-3.6,0.8-3.6,3.4V183.6z"/>
	<path class="st0" d="M806.1,164c0-1.4,1.1-2.6,2.8-2.6s2.8,1.1,2.8,2.6c0,1.4-1.1,2.5-2.8,2.5C807.3,166.5,806.1,165.4,806.1,164z
		 M806.6,168.1h4.7v15.4h-4.7V168.1z"/>
	<path class="st0" d="M815.4,172h-1.9v-3.9h1.9v-3.7h4.7v3.7h3v3.9h-3v6.2c0,1,0.4,1.2,1.4,1.2h1.7v4h-2.3c-3.2,0-5.4-1.4-5.4-5.4
		V172z"/>
	<path class="st0" d="M836.5,168.1h5.1l-9.6,22.7h-5.1l3.6-7.9l-6.2-14.9h5.2l3.6,9.6L836.5,168.1z"/>
</g>
<g>
	<g>
		<path class="st0" d="M212,225.1c-0.7-0.8-1.6-1.5-2.8-2.2c-0.2-0.1-0.7-0.4-1.5-0.9s-1.5-0.9-2-1.2s-1.1-0.9-1.9-1.7
			c-0.8-0.8-1.4-1.7-1.9-2.6c-0.5-0.9-0.9-2.1-1.3-3.7c-0.4-1.6-0.7-3.3-0.7-5.2c-0.9,0.7-1.3,2.2-1.4,4.3c-0.1,2.2,0.4,4.4,1.4,6.6
			c1,2.3,2.5,3.7,4.5,4.4s3.5,1.4,4.7,2.1c1.2,0.8,2,1.6,2.3,2.6s-0.2,2-1.7,3.2c-1.5,1.1-3.8,2.2-7,3.3c-4.5,1.5-7.6,2.8-9.5,3.9
			c-1.9,1.1-4.6,3.1-8.2,6.1c-2.4,2-5,3.1-7.8,3.2c-2.7,0.2-5-0.9-6.7-3c-1.7-2.2-2.3-5.2-1.6-9.2c1.2-7.6,1.1-13.6-0.1-17.8
			c-1-3.4-1.2-6.3-0.6-8.9c0.5-2.6,1.4-4.1,2.6-4.5c1.2-0.4,2.4,0.5,3.7,2.7c0.1,0.3,0.4,0.9,0.8,1.8c0.4,0.9,0.8,1.5,1.1,1.9
			s0.7,0.8,1.2,1.4c0.5,0.6,1.2,1,2.1,1.2c0.8,0.2,1.8,0.4,2.9,0.5c2.1,0.1,3.9-0.4,5.6-1.3c1.6-0.9,2.9-1.9,3.7-3.1
			c0.8-1.1,1.6-2.2,2.5-3.2c0.8-1,1.5-1.6,2.1-1.7c0.7-0.1,1.3-0.8,1.8-2s0.9-2.9,1.1-5.1c0.2-2.2,0-4.7-0.5-7.7
			c-0.9-5.3-2.7-11.1-5.4-17.5c-2.7-6.3-5.7-11.3-9.1-14.9c-6-6.4-10.1-13-12.2-19.9c-2.1-7.3-3-13.8-2.7-19.6
			c0.3-4.1-0.6-8.6-2.7-13.5c-2.1-4.8-4.9-8.6-8.4-11.1c-2.2-1.6-4.9-2.9-8.1-3.8c-3.2-0.9-6.5-1.3-9.7-1.2c-4,0-7.1,0.6-9.5,1.9
			c-4.9,2.6-8.1,5.8-9.7,9.6c-1.6,3.7-2.3,8.4-2.2,13.9c0.2,12.1,0.7,21.5,1.5,28.4c-0.9,3.2-4.6,9.1-11.3,17.8
			c-1.2,1.2-2.4,2.9-3.6,4.9c-1.2,2.1-2.1,3.9-2.7,5.6c-0.7,1.6-1.6,4-2.7,7.1s-1.9,5.3-2.4,6.6c-0.4,1.1-1.1,2.4-2,3.8
			c-0.9,1.5-1.6,2.9-2.2,4.3c-0.5,1.4-0.9,3-0.9,4.8c-0.1,1.3,0,2.5,0.2,3.5c0.2,1.5,0.7,1.9,1.4,1.4c2.7-2.1,6.2-0.9,10.3,3.7
			c2.9,3.2,8.1,10.5,15.5,22.1c0.6,1,1.2,2.1,1.8,3.3c0.6,1.2,1.2,2.8,1.7,4.8s0.8,3.8,0.7,5.4c-0.1,1.6-0.8,3-2.1,4.4
			c-1.3,1.3-3.3,2.2-5.9,2.6c-1.4,0.2-3.1,0.1-5.1-0.4c-2-0.4-4.5-1.1-7.5-2.1s-5.3-1.6-6.8-2c-2.1-0.5-5.2-1.1-9.1-1.9
			c-3.9-0.8-6.5-1.3-7.7-1.7c-2.1-0.5-3.2-1.3-3.4-2.4c-0.2-0.9,0.2-2.3,1.3-4.4c1-2.1,1.6-3.6,1.6-4.5c0.1-0.7,0-1.3-0.1-2
			s-0.3-1.2-0.4-1.6c-0.2-0.4-0.4-0.9-0.8-1.6c-0.4-0.7-0.6-1.3-0.7-1.6c-1.1-2.6-1.2-4.3-0.5-5.2c0.5-0.8,1.9-1.1,3.9-0.9
			c3.1,0.3,5.6-0.2,7.6-1.4c3.2-2,4.2-5.2,2.9-9.7c0,2.1-0.4,3.6-1.1,4.7c-0.7,1-2,2.1-3.8,3.2c-1,0.6-2.9,1-5.5,1.1
			s-4.4,0.5-5.2,1.3c-0.6,0.5-0.9,1.4-1,2.5c0,1.1,0.1,2.2,0.4,3.3s0.6,2.4,0.9,3.9s0.4,2.7,0.4,3.7c-0.1,0.7-0.6,2.3-1.6,5
			s-1.2,4.7-0.6,6.1c0.3,0.7,0.8,1.3,1.6,1.8c0.7,0.5,1.8,1,3.1,1.3c1.3,0.4,2.5,0.7,3.6,0.9s2.6,0.5,4.6,0.8s3.5,0.6,4.7,0.9
			c3.9,0.8,8.4,2.1,13.4,3.9c5,1.8,8.4,2.8,10.2,2.8c1.7,0.1,3.3-0.3,4.9-1.1s2.9-1.6,4-2.6s2.7-1.9,4.9-2.7
			c2.2-0.9,4.6-1.3,7.3-1.4c1.2-0.1,3-0.1,5.3-0.2c2.3-0.1,4.1-0.1,5.2-0.1c5.2,0,9.2,0,11.9,0.1c1.8,0.1,3.3,0.4,4.3,0.9
			s1.7,1.1,2,1.8s0.8,1.4,1.5,2.3c0.7,0.9,1.6,1.6,2.7,2.1c2.3,1.1,5,1.5,8.1,1.3s5.2-0.8,6.2-1.8c1.7-1.6,4-3.6,6.9-5.9
			c2.9-2.3,5.5-4,7.8-5.1c0.5-0.2,1.3-0.6,2.5-1.2c1.2-0.5,2.1-1,2.9-1.4c0.8-0.4,1.8-0.9,2.9-1.5c1.1-0.6,2-1.2,2.7-1.7
			s1.4-1.1,2.1-1.8c0.7-0.7,1.2-1.3,1.4-2s0.3-1.4,0.2-2.1C213,226.6,212.7,225.9,212,225.1z M163,136.7c0.2-0.1,0.3-0.2,0.4-0.1
			c0.1,0,0.2,0.2,0.4,0.4s0.3,0.4,0.5,0.6c0.2,0.2,0.4,0.4,0.6,0.7c0.3,0.3,0.6,0.5,0.9,0.7c0.4,0.2,0.8,0.4,1.3,0.5
			s0.9,0.2,1.2,0.5c0.3,0.2,0.5,0.6,0.6,1.1c0.1,0.7,0,1.3-0.3,1.8s-0.8,0.8-1.3,0.7c-1.1-0.2-2.3-1.2-3.6-2.9
			C162.3,139,162.1,137.7,163,136.7z M151.6,101.2c0.3-0.4,0.5-0.7,0.5-1c0.1-0.4,0.1-0.7,0-1.1s-0.1-0.8,0.1-1.2
			c0.2-0.4,0.5-0.6,1.1-0.7c0.5,0,1.3,0.5,2.2,1.4c0.2,0.1,0.5,0.3,0.9,0.5s0.7,0.5,0.8,0.6c0.2,0.2,0.2,0.3,0.2,0.5
			c-0.1,0.3-0.4,0.5-0.8,0.6c-0.4,0.1-0.9,0.2-1.4,0.2s-0.8,0-0.8,0.1c-0.5,0.2-0.9,0.5-1.4,0.8c-0.4,0.4-0.8,0.6-1,0.8
			c-0.2,0.2-0.5,0.2-0.7,0c-0.2-0.4-0.3-0.6-0.3-0.8C151.1,101.9,151.3,101.6,151.6,101.2z M107.4,169.7c0.4-0.5,0.7-0.9,0.9-1.2
			c0.2-0.3,0.4-0.7,0.5-1.2c0.2-0.5,0.3-0.9,0.4-1.1c0.1-0.2,0.3-0.3,0.5-0.3c0.1,0,0.2,0,0.3,0.2c0.1,0.2,0.1,0.2,0.1,0.2v0.3
			c0,0.1,0,0.2,0,0.4s-0.1,0.3-0.1,0.4c-0.1,0.1-0.1,0.3-0.2,0.5s-0.1,0.5-0.2,0.6c-0.2,0.6-0.6,1.2-1.1,1.6
			c-0.5,0.5-0.9,0.7-1.1,0.6C106.9,170.6,106.9,170.3,107.4,169.7z M167.2,226.1c-0.1,2-0.5,4.7-1.2,8.2s-1.1,5.9-1.3,7
			c-1.3-0.1-2-0.5-2.2-1.4s0-2,0.5-3.4c1.3-4.1,2-6.9,2.1-8.4c0.1-2.8-0.2-4.4-0.9-4.8c-0.7-0.5-1.7,0.4-3.1,2.7
			c-2.7,4.4-8.1,7-16.2,8c-7.3,1-12.4-0.1-15.2-3.3c-0.6-0.4-1.2-0.5-1.8-0.2c-0.6,0.3-1,0.6-1.2,0.9c-0.1,0.1,0,0.3,0.2,0.5
			s0.5,0.6,0.9,1.1s0.7,1,1,1.5c2.4,4.1,2.2,6.9-0.6,8.4c0-2.8-0.2-5-0.6-6.4c-0.4-1.5-1.3-3.1-2.6-4.9c-1.3-1.8-2.2-3.2-2.7-4.1
			c1.8-0.2,3.2-0.9,4.2-2.1c0.9-1.2,1.4-2.5,1.3-3.9s-0.6-2.6-1.6-3.5c-0.5-0.5-3.4-2.9-8.5-7s-8.3-6.9-9.5-8.3
			c-0.2-0.2-1-0.9-2.2-1.8c-1.2-1-2-1.8-2.3-2.6c-2.8-6.2-3.1-11.2-0.9-15.2l0.4-0.5c0.3-0.1,0.3,0.5,0.1,1.6
			c-0.4,1.7-0.5,3.4-0.4,5.1c0.2,3.8,1.3,6.7,3.3,8.6c1.3,1.3,2.2,1.2,2.7-0.3c0.4-0.5,0.5-2.3,0.5-5.4c0-3.1,0-5.2,0.1-6.3
			c0.5-3.5,1.9-7.8,4.3-12.9c2.4-5.1,4.3-7.9,5.7-8.2c-1.1-1.8-1.4-3.7-1.1-5.8c0.4-2.1,1-3.8,1.9-5.3s1.8-3.2,2.7-5.1
			c0.9-1.9,1.4-3.6,1.4-5.2c0-0.4,0-0.7,0.1-0.9c0.2-0.5,0.9,0.1,2.3,2c2.6,3.8,4.5,6,5.8,6.7s2.8,0.7,4.5-0.1
			c1.6-0.8,3.7-2.1,6.1-3.9c2.4-1.8,4.5-3.2,6.2-4c0.2-0.1,0.5-0.2,0.9-0.4s0.7-0.4,0.9-0.5s0.5-0.2,0.8-0.4s0.6-0.3,0.8-0.5
			c0.2-0.1,0.4-0.3,0.5-0.4c0.2-0.2,0.3-0.3,0.4-0.5c0.1-0.2,0.1-0.3,0.1-0.4c-0.1-0.5-0.4-0.9-0.8-1c-0.4-0.1-0.9,0-1.6,0.2
			c-0.7,0.3-1.4,0.6-2.2,1.1s-1.7,1-2.7,1.6s-2,1.1-3.1,1.6c-1,0.5-2.1,0.9-3.3,1.3c-1.2,0.4-2.3,0.6-3.3,0.6
			c-2.6,0.1-4.6-0.6-6.1-2c-1-0.9-1.5-1.5-1.6-1.7s0.2-0.3,0.8-0.2c3.3,0.4,5.7,0.5,7.2,0.2c1.6-0.2,3.7-0.9,6.4-2.1
			c0.5-0.2,1.9-0.8,4.2-1.8c2.2-0.9,3.9-1.6,5.2-2c0.7-0.2,1.2-0.5,1.5-0.9s0.4-0.8,0.3-1.1c-0.1-0.3-0.3-0.6-0.6-0.8
			c-0.7-0.4-1.3-0.1-1.8,0.7c-0.3,0.5-0.9,1.1-1.9,1.6s-1.9,0.9-2.7,1.2s-1.9,0.6-3.2,1s-2,0.6-2.1,0.6c-3.4,1-6.5,1.5-9.3,1.4
			c-1.3-0.1-2.4-0.3-3.2-0.6s-1.4-0.7-1.7-1.2s-0.8-1-1.5-1.7s-1.4-1.3-2.3-1.8c-0.6-0.3-0.8-0.9-0.7-1.6c0.2-0.8,0.6-1.6,1.4-2.5
			c0.1-0.1,0.7-0.4,1.9-1.1c1.2-0.7,2-1.4,2.5-2.1c0.5-0.9,1.5-1.7,2.8-2.7c0.1-0.2,0.1-0.9,0.1-2s-0.3-2.3-0.9-3.6
			c-0.6-1.3-1.4-1.9-2.5-1.9c-1.5-0.1-2.5,0.4-3.1,1.3s-0.9,2-0.8,3.4c0.1,1.2,0.4,2.2,0.9,3.1s1,1.3,1.4,1.3
			c0.7-0.1,0.9,0.2,0.6,0.7c-0.4,0.7-0.9,1.1-1.5,1.3c-0.4,0.1-0.9-0.3-1.4-1.2c-0.5-0.9-0.9-2.1-1.2-3.4c-0.3-1.3-0.4-2.5-0.3-3.4
			c0.1-1.9,0.6-3.7,1.5-5.4c0.9-1.7,2.1-2.6,3.8-2.5s3.1,1.1,4.1,3.1s1.5,4.8,1.5,8.2c0.2,0.4,0.7,0.6,1.4,0.5c0.8-0.1,1.8-0.1,3,0
			s2.1,0.4,2.7,1c0.1,0,0.1-0.5,0.1-1.4c-1.1-7.7,1.6-11.8,8.1-12.3c1,0.2,1.8,0.4,2.5,0.7c0.7,0.3,1.4,0.7,2.1,1.4
			c0.8,0.6,1.4,1.6,1.9,2.8c0.5,1.2,0.9,2.7,1.2,4.6v3.4c0,2-0.4,3-1.2,3.3c-1.3,0.4-2.2,0.4-2.7,0c-0.5-0.5-0.5-1.3,0.2-2.4
			c0.6-1.5,0.5-3.3-0.4-5.3s-2.4-2.9-4.7-2.7c-1.5,0.1-2.6,0.9-3.3,2.5s-0.9,3.1-0.7,4.7c0.2,1.5,0.5,2.3,1,2.4
			c0.4,0.1,1.4,0.5,3.2,1.5c1.8,0.9,3.2,1.5,4.1,1.6c2.4,0.5,3.7,1.2,4.1,2.3c0.3,1,0.2,2.5-0.4,4.5c-0.6,2-0.8,3.6-0.5,4.9
			c0.2,1.3,0.7,2.6,1.4,3.7c0.7,1.1,1.4,2.1,2.1,3c0.8,0.9,1.7,2.6,2.7,5.1s2,5.6,2.8,9.4c0.1,0.1,0.3,0.3,0.7,0.6
			c0.4,0.4,0.8,0.8,1.2,1.4c0.4,0.5,0.9,1.3,1.4,2.2s1.1,2.3,1.8,4.2c0.6,1.8,1.2,3.9,1.8,6.3c0.7,2.8,1,6.1,1.1,9.8
			c0,3.7,0.3,6.3,0.7,7.6c0.5,1.4,1.6,1.9,3.5,1.7c2.4-0.1,3.9-1.4,4.6-3.8c2-7.1,0.4-15.5-4.9-25.4c-2-3.8-3.7-6.4-5.2-7.6
			c2.1,1.2,4.3,3.5,6.6,6.9s3.7,6.5,4.3,9.4c0.1,0.3,0.2,1.1,0.5,2.4c0.3,1.3,0.4,2.1,0.5,2.3c0,0.2,0.2,0.8,0.4,1.9
			c0.2,1,0.3,1.7,0.3,2s0,0.9,0.1,1.8c0.1,0.9,0,1.6,0,2.1c-0.1,0.5-0.2,1.1-0.3,2c-0.1,0.8-0.2,1.6-0.5,2.4
			c-0.2,0.8-0.4,1.6-0.7,2.5c3.4,1.5,5,2.7,5,3.8c-1.3-1-3.1-1.7-5.5-2.1c-2.4-0.3-4.6,0-6.6,1s-3.1,2.6-3.2,4.8
			c-2.2,0-3.8,0.5-4.7,1.6c-1.3,1.6-2,3.7-2.1,6.4s0.2,5.7,0.7,8.9C167.1,222.6,167.3,224.8,167.2,226.1z M128.9,120.1
			c-0.2-0.1-0.3-0.2-0.5-0.5c0-0.5,0.3-0.8,0.8-0.6c0.4,0.1,0.7,0.6,1.1,1.4c0.3,0.8,0.4,1.7,0.2,2.7c0,0.2-0.1,0.3-0.3,0.3
			c-0.7,0-0.9-0.6-0.7-1.8C129.7,120.6,129.5,120.1,128.9,120.1z M152.5,121.6l-0.2,0.3c-0.5,0.3-0.7,0.4-0.7,0.2
			c-0.2-1.6-0.8-2.6-1.6-2.8l-0.4-0.2c-0.4-0.4-0.2-0.6,0.6-0.6c0.2-0.1,0.5,0,0.8,0.3c0.4,0.2,0.7,0.6,1,1.1
			C152.4,120.3,152.5,120.9,152.5,121.6z"/>
		<path class="st0" d="M131.2,126.9c0,0.4,0.2,0.5,0.5,0.5c0.2,0,0.5-0.3,0.8-0.9s0.7-0.9,1.4-1l0,0H133
			C131.8,125.7,131.2,126.1,131.2,126.9z"/>
		<path class="st0" d="M139.2,125.8c0.6-0.2,1.1,0,1.6,0.4c0.5,0.5,0.8,0.7,1.1,0.6c0.4-0.2,0.5-0.5,0.3-0.8
			C141.6,125.2,140.7,125.1,139.2,125.8z"/>
	</g>
</g>
<path class="st0" d="M534.3,433.5c-0.4-2.4-0.6-4.7-1.2-7c-0.5-1.9-1-4.2-2.3-5.7c-1.2-1.3-3.6-2.5-5.3-1.5c-0.9,0.5-1.5,1.5-2,2.3
	c-0.7,1.1-1.9,1.8-2.9,2.6c-0.9-1.5-1.6-2.9-2.7-4.2c-1.3-1.5-2.9-2.4-4.5-3.5c-3.4-2.5-6.3-5.6-10-7.6c-6.9-3.7-16.8-1.1-22.7,3.6
	c-1.4,1.2-2.7,2.5-3.7,4c-0.5,0.7-1.2,0.8-2,1.1c-1.1,0.4-2.1,0.9-2.9,1.7c-1.5,1.2-2.6,2.9-4.5,3.3c-2.2,0.5-4.3,0.8-6.4,1.5
	c-3.9,1.2-7.6,3-10.6,5.7c-1.5,1.4-2.9,2.9-4.1,4.6c-1.1,1.6-2.3,3.8-4.1,4.8c0.7-1.6,1.3-3.3,1.5-5.1c0.1-0.6,0.1-1.1,0.1-1.7
	c0-0.7,0.5-1.7,0.4-2.3c-0.1-0.6,0-0.2-0.4-0.4c-1.1,0-2.2,0.1-3.4,0.4c-1.7,0.4-3.4,1.1-4.5,2.4c-3.7,4.3-1.3,15.5,5.5,15
	c-0.2,1.4-0.1,2.7,0.1,4.1s0.7,2.7,0.3,4.1c-0.5,1.3-1,2.7-2.2,3.5c-1.1,0.8-2.6,2.1-2.9,3.5c-1.1,5.4,5.6,10.7,10.3,11.1
	c-1,2.7-1.5,5.2,1.8,6.5c3,1.2,6.5,2,9.7,2.3c2.9,0.3,4.9-1.1,5.2-4.1c0.1-1.4,0-2.7,0.9-3.9c1-1.3,1.7-2.9,1.5-4.6h3.4
	c-1.8,1.9-0.5,4.7,0.4,6.7c1.1,2.2,2.6,4.2,4.5,5.8c2,1.7,4.9,1.8,7,0.3c2.2-1.5,3.2-4.4,5.7-5.5c1-0.5,2.1-0.2,3.1,0
	c1.3,0.2,2.6,0.2,3.8,0.2c2.5,0,5.6,0.2,6.8-2.4c0.6-1.3,0.5-2.7-0.1-4c-0.5-1.3-0.3-2.7-0.4-4c-0.2-3-1.2-5.4-2.2-8.1
	c1.9,1.5,3.4,3.5,6,3.7c2.5,0.3,5.1-0.9,6.8-2.7c0.8-0.8,1.4-1.8,1.7-2.9l0.5-1.6c0.9,0.1,1.7,0.2,2.5,0.2c2.9,0.2,5.9-0.1,8.6-1.4
	C532.7,450.5,534.4,441.5,534.3,433.5L534.3,433.5z M490.3,474.2c3-3.5,4.9-7.8,6.2-12.2c0.7,1.6,1.1,3.3,1.2,5
	c0.1,2,0.3,3.7,0.6,5.6C498.9,475.5,491.8,474.5,490.3,474.2C493.1,470.9,490.6,474.2,490.3,474.2L490.3,474.2z M517.7,452.6
	c-5,0-9.8-1.7-14.2-3.9c-0.1,2.9-2.1,7.2,1.5,8.8c2,0.9,3.5-0.9,4.3-2.5c0.5-0.9,0.4-1.1,1.4-0.7c0.4,0.4-0.6,2.3-0.9,2.7
	c-0.9,1.5-2.7,2.6-4.4,2.6c-2.4,0-4.1-2.2-5.7-3.6c-1.8-1.5-3.8-2.1-5.8-3.2c-1.4-0.7-2.8-1.6-4.2-2.4c0.7,1,1.2,2,2.1,2.9
	c0.7,0.6,3.6,2.2,3.5,3.3c-0.6,4.4-2.5,9-4.9,12.7c-1.2,2-2.7,3.4-4.5,4.9c-1,0.8-2.1,1.6-3.1,2.4c-1.1,0.9-1.7,1.8-2.6,2.8
	c-1.8,1.9-3.6,0.8-4.9-0.9c-0.7-0.9-1.3-1.8-1.8-2.7c-0.5-0.9-1.6-2.1-1.5-3.2c0-1,2-1.8,2.8-2.3c1-0.6,1.9-1.2,2.9-1.8
	c0.4-0.2,0.1-2.1,0.1-2.6c0-0.3,0.1-0.8-0.2-0.8c-0.6,0-1.5,0-1.7,0.7c-0.4,1.5-5.1,1.1-6.3,1.1c-1.3,0-2.7-0.1-4-0.4
	c-0.7-0.2-0.6-2-1.8-1.3c-1.2,0.7-0.3,4.6-0.7,5.9c-0.7,2.2-2.5,3.7-2.6,6.1c0,1.3,0,1.9-1.6,1.9c-1.9,0-3.9-0.4-5.7-0.9
	c-0.9-0.3-3.3-0.6-3.6-1.7c-0.3-1.2,0.6-2.9,0.8-4c0.3-1.3,1.1-3.2,0.6-4.4c-0.6-1.6-1.8-3.1-2.6-4.6c-1.6-3-2.8-6.1-3.6-9.3
	c-1.5-6.7,0.1-13.7,4.3-19.1c4.2-5.4,10.1-8,16.7-9.3c-4,4.7-12.3,12.7-7.1,19c0.9,1.1,3,3.5,2.8,4.9c-0.1,1.3-1.2,3-0.6,4.4
	c0.6,1.3,2.3,2.5,3.4,3.4c1.5,1.1,3.3,1.7,5.1,1.6c3.7-0.3,7-3.2,10.4-4.4c1.5-0.5,3.9-0.6,5.1-1.6c1.1-1,1.4-3.4,1.6-4.8
	c0.7-4.2-0.2-8.3-0.7-12.5c-0.4-3-0.8-6-1.5-9c-0.9,3.5-1.4,6.9-1,10.6c0.3,2.3,0.6,4.6,0.7,6.8c0.1,1.1,0.1,2.1-0.1,3.1
	c-0.2,0.8-0.4,2.8-1,3.4c-0.6,0.5-2,0.5-2.8,0.8c-1.1,0.4-2.2,0.8-3.2,1.4c-2,1-3.9,2.5-6.1,3.1c-2.1,0.6-4.2,0-5.8-1.5
	c-1.5-1.4-1.8-2.5-0.9-4.3c1.5-3.8-3.9-6-4.6-9.4c-0.4-1.9,1.2-4.1,2.2-5.7c1-1.7,2.1-3.1,3.5-4.5c1.7-1.8,3.4-3.7,5-5.5
	c1.4-1.6,2.7-3.5,4.5-4.6c1.7-1,3.5-0.9,5.3-1.3c0.7-0.1,1.1-0.5,1-1.2s-1-0.6-1.5-0.6c3.3-4.5,9.6-7.1,15.1-7.5
	c2.5-0.2,5.1,0.1,7.2,1.4c3,1.8,5.6,4.1,8.3,6.2c-0.7,0.3-1.4,0.6-2.1,1c1.5,0.1,3,0.1,4.4,0.7c2.1,0.9,3.4,2.9,4.5,4.9
	c-1.9-0.2-3.9,1.3-5.7,1.9c0.7,0.2,1.3,0.4,2,0.6l0.2,2.2c0.6-0.8,1-1.4,2.1-1.6c1.6-0.3,2,1.2,2.1,2.5c-2.4,0-4.8,0-5.9,2.5
	c-0.7,1.5-1,3.3-1.3,4.9c0.9-1.2,1.7-2.5,2.7-3.6c0.8-0.8,1.9-1.2,3-1.3c0.4,0,1.8-0.2,1.8,0.3c0,0.6,0,1.2-0.1,1.8
	c0,0.6-0.5,4.9,0.2,4.8c1.6,0,2-5.5,2-6.5c0.1-1.2,0.1-2.5,0-3.7c-0.1-0.8-0.1-1.4,0.6-1.9c1.1-0.6,2.3-1.1,3.3-2
	c1-0.8,1.7-2.1,2.7-2.8c1.4-0.9,2.1,1.1,2.5,2.1c0.4,1.1-1.8,2.8-2.6,3.6c-1.8,1.6-3.7,1.4-5.9,1.2c1.2,0.7,2.4,1.7,3.8,1.7
	c2.4,0,4.5-2,5.5-4c1.4,5.7,2,12.3-0.4,17.8C527.5,449.5,523.2,452.6,517.7,452.6L517.7,452.6z M440.3,434.6c0,0.9,0,1.8-0.2,2.7
	c-0.2,0.8-1.1,1.6-1,2.5c0.1,0.6,0.7,1.7,1.2,2c1,0.7,2.4-0.2,3.3-0.6c-0.4,1.8-0.5,3.6-2.7,3.3c-2-0.2-3.2-1.7-3.7-3.6
	c-0.7-2.7-0.8-8,3.2-8.1C440.3,433.4,440.3,434,440.3,434.6C440.3,435.4,440.3,434,440.3,434.6L440.3,434.6z M447,470.4
	c-2.1,0-4.7-2.3-5.8-3.9c-0.6-0.9-1.6-2.6-0.9-3.7c0.9-1.4,2.6-2.3,3.5-3.8c0.7,2.1,1.6,4.1,2.6,6
	C447.1,466.2,450.2,470.4,447,470.4z"/>
<path class="st0" d="M505.2,429.9c-0.6,0-1.2,0.2-1.8,0c-0.6-0.2-1.1-1.3-1.5-1.9c-0.5-0.7,0.8-1.3,1.4-1.8c-2.7-0.1-5.1,0.2-7.2,2
	c-2,1.6-3.3,3.9-4.6,6c1.1-0.6,2.2-1.1,3.2-1.7c0.3,0.7,0.7,1.4,1.2,2c0.6-0.2,0.7-0.4,0.4-0.9c-0.4-0.8-0.5-1.8-0.1-2.6
	c0.8-1.8,2.1,0.6,2.5,1.5c-0.9,0.9-2.1,1.9-2.6,3.1c-0.3,0.7-0.2,1.5-0.1,2.2c3.2-3.6,7-5.8,11.3-7.7
	C506.6,430,505.9,429.9,505.2,429.9L505.2,429.9z M481.7,421.5c0.1-0.7-0.5-0.4-1-0.4c-1.2,0.1-2.5,0.3-3.7,0.4
	c-1.9,0.1-3.6,0.4-4.7,2c-1.4,2-2,4.7-2.7,6.9c-0.5,1.4-0.6,2.6-0.8,4c0.6-1.1,1.3-2.2,1.9-3.4c1-2.1,1.7-4.4,3.5-6
	c0.9-0.8,2-1.3,3.2-1.6c1.1-0.3,2.1-0.7,3.1-1C481.2,422.3,481.8,422.4,481.7,421.5L481.7,421.5z M495.2,421.9c0.5-0.3,1-0.7,1.6-1
	c-1.8,0.2-3.6,0.4-5.1,1.6c-2,1.6-2,3.7-0.6,5.6C491.6,425.5,492.8,423.4,495.2,421.9z M497.3,446.4c-1.4,1.5-0.8,5.6-0.9,7.5
	c0.4-1.6,0.6-3.5,1.4-5c1.1-2,3.4-2.6,5.4-3.4C501.5,445.5,498.5,445.1,497.3,446.4C496.7,447.1,497.9,445.7,497.3,446.4
	L497.3,446.4z"/>
<g>
	<path class="st4" d="M2574.4,433.1l-2,8.3c-0.4,1.6,0.8,2.8,2.4,2.8h11.1l3.2-14.3H2578C2576.4,430,2574.8,431.1,2574.4,433.1z"/>
	<path class="st3" d="M2592.7,414.5l-2,9.1h-16.3c-3.2,0-6,2.4-6.8,5.6l-3.6,15.9c-0.8,3.2,1.2,5.6,4.4,5.6h23.9l6-27l2-9.1h-7.6
		V414.5z M2585.9,444.3h-11.1c-1.6,0-2.8-1.2-2.4-2.8l2-8.3c0.4-2,2-3.2,3.6-3.2h11.1L2585.9,444.3z"/>
</g>
<g transform="rotate(180 424.74 95.927)">
	<path id="path130_2_" class="st3" d="M648,479l1.8-8.5h14.6c2.8,0,5.6-2.4,6.2-5.3l3.2-14.9c0.6-2.9-1.2-5.3-4-5.3h-21.6l-5.5,25.5
		l-1.8,8.5L648,479L648,479z M661.2,464.5h-10.1L654,451h10.1c1.5,0,2.4,1.2,2.1,2.8l-1.7,7.9C664.2,463.2,662.7,464.5,661.2,464.5
		L661.2,464.5z"/>
</g>
<g>
	<path class="st4" d="M715.4,462.6H711c-0.8,3.6-1.6,6.8-2.4,9.9h4.8c0.8,0,1.2-0.4,1.2-1.2c0.4-2.8,1.2-5.2,1.6-8
		C716.2,462.6,715.8,462.2,715.4,462.6z"/>
	<path class="st4" d="M684,461.8h-4.8c-1.2,0-1.2,0.4-1.6,1.2c-0.4,2.4-1.2,5.2-1.6,7.6c0,0.8,0,1.2,0.8,1.2h5.2
		c0.8,0,1.6,0,1.6-0.8c0.4-2.4,1.2-5.2,1.6-7.6C685.2,462.6,685.6,462.2,684,461.8z"/>
	<path class="st4" d="M651.4,461.8h-4.8c-1.2,0-1.2,0.4-1.6,1.2c-0.4,2.4-1.2,5.2-1.6,7.6c0,0.8,0,1.2,0.8,1.2h5.2
		c0.8,0,1.6,0,1.6-0.8c0.4-2.4,1.2-5.2,1.6-7.6C652.6,462.6,653,462.2,651.4,461.8z"/>
	<path class="st4" d="M614.5,463.4c-0.4,2.8-1.2,5.2-1.6,8c-0.4,0.8,0,0.8,0.8,0.8h4.4c0.8-3.6,1.6-6.8,2.4-9.9h-4.8
		C614.8,462.2,614.5,462.6,614.5,463.4z"/>
	<path class="st0" d="M656.6,460.2h-9.9c-1.6,0-3.2,1.2-3.6,2.8l-2,8.3c-0.4,1.6,0.8,2.8,2.4,2.8h9.9c1.6,0,3.2-1.2,3.6-2.8l2-8.3
		C659.4,461.4,658.2,459.8,656.6,460.2z M652.6,463.4c-0.4,2.4-1.2,5.2-1.6,7.6c0,0.8-0.8,0.8-1.6,0.8h-5.2c-0.8,0-0.8-0.4-0.8-1.2
		c0.4-2.4,1.2-5.2,1.6-7.6c0.4-0.8,0.4-1.2,1.6-1.2h4.8C653,462.2,652.6,462.6,652.6,463.4z"/>
	<path class="st0" d="M689.2,460.2h-9.9c-1.6,0-3.2,1.2-3.6,2.8l-2,8.3c-0.4,1.6,0.8,2.8,2.4,2.8h9.9c1.6,0,3.2-1.2,3.6-2.8l2-8.3
		C692,461.4,690.8,459.8,689.2,460.2z M685.2,463.4c-0.4,2.4-1.2,5.2-1.6,7.6c0,0.8-0.8,0.8-1.6,0.8h-5.2c-0.8,0-0.8-0.4-0.8-1.2
		c0.4-2.4,1.2-5.2,1.6-7.6c0.4-0.8,0.4-1.2,1.6-1.2h4.8C685.6,462.2,685.2,462.6,685.2,463.4z"/>
	<path class="st0" d="M578.3,472.2c-0.4,1.2,0,2,1.2,2H593l0.8-4h-13.1C579.5,470.2,578.7,471,578.3,472.2z"/>
	<path class="st0" d="M612.5,463l-2,8.3c-0.4,1.6,0.8,2.8,2.4,2.8H624l3.2-14.3H616C614.5,459.8,612.9,461,612.5,463z M618,472.2
		h-4.4c-0.8,0-1.2,0-0.8-0.8c0.4-2.8,1.2-5.2,1.6-8c0-0.8,0.4-1.2,1.2-1.2h4.8C619.6,465.4,618.8,468.6,618,472.2z"/>
	<path class="st0" d="M732.1,453.5c-1.6-2-4-2.4-6.4-2.4c-17.9,0-35.4,0-53.3,0c-2,0-3.2,0.4-4.8,1.2c-1.6-1.2-2.8-1.2-4.8-1.2
		h-24.3c0.8-3.2,1.2-6,2-9.1h-15.9c-0.8,2.8-1.2,6-2,8.7h-13.9c-2,0-3.6,0.8-5.2,1.6c-1.6-0.8-2.8-1.2-4.8-1.2H553
		c0.8-3.2,1.6-6,2-9.1c-5.2,0-10.3,0-15.9,0c-3.2,13.5-6,27-9.1,40.6c5.2,0,10.3,0,15.9,0c1.6-6.8,3.2-13.9,4.8-20.7h5.2
		c0.8,0,0.4,0.4,0.4,0.8c-1.6,6.8-2.8,13.1-4.4,19.9c34.6,0,69.6,0,104.2,0c1.6,0,3.2-0.4,4.8-1.2c1.6,1.2,2.8,1.6,4.8,1.2l24.3-0.4
		c-0.8,3.2-1.2,6-2,9.1h15.9c0.8-2.8,1.2-6,2-8.7c4.4,0,9.1,0,13.5,0c2.4,0,4-0.8,6-2c2-1.6,3.6-3.6,4.4-6.4c0.8-4.4,2-9.1,2.8-13.5
		C733.3,459.1,734.1,455.9,732.1,453.5z M567.1,480.1h-7.6l2-9.5l1.6-8c0.4-1.6-0.8-2.8-2.4-2.8h-11.1l-0.8,2.8l-1.6,8l-2,9.9h-7.6
		l2-9.9l2.4-11.5v-0.4v-0.4l3.2-13.9h7.6l-2,9.1h16.3c3.2,0,5.2,2.4,4.4,5.6l-2.4,11.5L567.1,480.1z M599.3,480.5h-25.4
		c-3.2,0-5.2-2.4-4.4-5.6l1.2-4.8v-0.8c0.8-3.2,3.6-5.6,6.8-5.6h17.9l0.4-1.2c0.4-1.6-0.8-2.8-2.4-2.8h-20.7l1.6-6.4h25.4
		c3.2,0,4.8,2.4,4.4,5.6l-0.4,2l-0.4,2.8l-3.2,13.5L599.3,480.5z M606.1,480.5c-3.2,0-5.2-2.4-4.4-5.6l3.6-15.9
		c0.8-3.2,3.6-5.6,6.8-5.6h16.3l2-9.1h7.6l-2,9.1l-6,27h-23.9V480.5z M663.7,475c-0.4,3.2-3.6,5.6-6.8,5.6H637
		c-3.2,0-5.2-2.4-4.4-5.6l3.6-15.9c0.4-3.2,3.6-5.6,6.8-5.6h20c3.2,0,5.2,2.8,4.4,5.6L663.7,475z M689.6,480.5h-19.9
		c-3.2,0-5.2-2.4-4.4-5.6l3.6-15.9c0.4-3.2,3.6-5.6,6.8-5.6h19.9c3.2,0,5.2,2.8,4.4,5.6l-3.6,15.9
		C696,478.1,692.8,480.5,689.6,480.5z M730.4,459.5l-3.5,15.7c-0.7,3-3.7,5.5-6.8,5.5h-15.9l-2,9l0,0h-7.5l2-9l5.9-26.8H726
		C729.1,453.9,731,456.4,730.4,459.5z"/>
	<path class="st0" d="M719.7,460.2h-11l-3.2,14.2h11l0,0c1.6,0,3.2-1.3,3.6-2.9l1.8-8.3C722.4,461.5,721.3,460.2,719.7,460.2z
		 M714.6,471.4c0,0.8-0.4,1.2-1.2,1.2h-4.8c0.8-3.2,1.6-6.4,2.4-9.9h4.4c0.4-0.4,0.8,0,0.8,0.8C715.8,466.2,715,468.6,714.6,471.4z"
		/>
</g>
</svg>
