<?xml version="1.0" encoding="utf-8"?>
<!-- Generator: Adobe Illustrator 22.0.1, SVG Export Plug-In . SVG Version: 6.00 Build 0)  -->
<svg version="1.1" id="Ebene_1" xmlns="http://www.w3.org/2000/svg" xmlns:xlink="http://www.w3.org/1999/xlink" x="0px" y="0px"
	 viewBox="0 0 1000 608" style="enable-background:new 0 0 1000 608;" xml:space="preserve" width="1000" height="608">
<style type="text/css">
	.st0{fill:#96BF0D;}
	.st1{enable-background:new    ;}
	.st2{fill:#808080;}
	.st3{fill:none;}
</style>
<g>
	<path class="st0" d="M269.5,263.8l-7.6,28.6h-8l-4-14.7c-0.4-1.3-0.8-3.1-1.3-5.3l-0.4-1.8H248l-0.4,1.8l-0.4,1.8
		c-0.3,1.2-0.6,2.4-0.9,3.6l-4.1,14.6h-7.9l-7.4-28.6h5.5l4.1,15.7c0.3,1,0.6,2.4,0.9,4.2l0.4,2.1l0.4,2.1h0.2
		c0.2-0.9,0.4-1.6,0.5-2.1l0.5-2.1c0.3-1.1,0.6-2.5,1.1-4.2l4.4-15.7h6.4l4.3,15.7c0.4,1.3,0.7,2.7,1.1,4.2l0.5,2.1l0.5,2.1h0.2
		l0.5-2.1l0.4-2.1c0.4-1.7,0.7-3.1,1-4.2l4.2-15.7H269.5z"/>
	<path class="st0" d="M284.8,286h4.8v0.8c0,3.9-2.9,5.9-8.8,5.9c-4,0-6.6-0.7-7.8-2c-1.2-1.4-1.8-4.2-1.8-8.6c0-3.9,0.6-6.5,1.9-7.9
		c1.3-1.3,3.8-2,7.5-2c3.6,0,6,0.7,7.2,2c1.2,1.3,1.8,3.9,1.8,7.7v1.5h-13.6c0,0.4,0,0.7,0,0.9c0,2,0.3,3.3,0.9,3.9
		c0.6,0.7,1.8,1,3.6,1c1.8,0,2.9-0.2,3.4-0.6C284.5,288.1,284.8,287.2,284.8,286z M284.8,280.3l0-0.8c0-1.6-0.3-2.6-0.8-3.1
		c-0.6-0.5-1.7-0.7-3.6-0.7c-1.8,0-3,0.3-3.5,0.9c-0.5,0.6-0.8,1.8-0.8,3.8H284.8z"/>
	<path class="st0" d="M293.6,292.4v-28.6h4.8v11.4l0.1,0c0.8-2.1,2.9-3.2,6.3-3.2c2.9,0,4.9,0.7,5.9,2.1c1.1,1.4,1.6,4,1.6,7.8
		c0,4.1-0.5,7-1.6,8.4c-1.1,1.5-3.2,2.2-6.2,2.2c-3.1,0-5.2-1.1-6.1-3.4h-0.1l0.2,3.2H293.6z M303.2,275.9c-3.1,0-4.7,1.9-4.7,5.8
		c0,3,0.3,5,0.8,5.8s1.7,1.3,3.6,1.3c2,0,3.2-0.4,3.8-1.2c0.5-0.8,0.8-2.6,0.8-5.4c0-2.6-0.3-4.3-0.8-5.1
		C306.1,276.3,304.9,275.9,303.2,275.9z"/>
	<path class="st0" d="M313.9,279h9.6v4.6h-9.6V279z"/>
	<path class="st0" d="M331.5,263.8v28.6H326v-28.6H331.5z"/>
	<path class="st0" d="M336.4,272.3h4.8l-0.2,3.4l0.1,0c0.9-2.4,3-3.6,6.3-3.6c4.7,0,7.1,2.2,7.1,6.6v13.6h-4.8v-12.1v-0.8l-0.1-1.4
		c-0.2-1.5-1.4-2.2-3.5-2.2c-3.2,0-4.8,1.5-4.8,4.6v11.9h-4.8V272.3z"/>
	<path class="st0" d="M360.1,292.4V276h-2.8v-3.6h2.8v-2.1c0-2.5,0.5-4.3,1.6-5.3c1.1-1,3.1-1.5,6-1.5c0.5,0,1.2,0,2,0.1v3.8
		c-0.7-0.2-1.2-0.2-1.7-0.2c-2.1,0-3.2,1-3.2,3.1v2.1h5v3.6h-5v16.4H360.1z"/>
	<path class="st0" d="M372.7,272.3h4.8l-0.3,2.8l0.1,0c1.1-2.1,2.9-3.1,5.4-3.1c3.5,0,5.3,2.2,5.3,6.7v1.4h-4.5
		c0.1-0.5,0.1-0.9,0.1-1.1c0-2.1-0.8-3.2-2.5-3.2c-2.4,0-3.6,1.6-3.6,4.8v11.8h-4.8V272.3z"/>
	<path class="st0" d="M395.6,278.1h-4.9c0-2.4,0.6-4,1.7-4.8c1.1-0.8,3.3-1.2,6.6-1.2c3.6,0,6,0.5,7.3,1.5c1.3,1,1.9,2.9,1.9,5.7
		v13.1h-4.8l0.2-2.7l-0.1,0c-0.9,2-3.1,3-6.4,3c-4.8,0-7.3-2.1-7.3-6.2c0-4.2,2.5-6.2,7.4-6.2c3.3,0,5.3,0.8,6,2.3h0.1v-3.2
		c0-1.6-0.3-2.6-0.8-3.1c-0.5-0.5-1.7-0.8-3.4-0.8C396.8,275.3,395.6,276.3,395.6,278.1z M398.8,283.4c-2.7,0-4.1,0.9-4.1,2.8
		c0,1.3,0.3,2.2,0.8,2.6c0.6,0.4,1.7,0.6,3.5,0.6c2.9,0,4.4-1,4.4-3C403.5,284.4,401.9,283.4,398.8,283.4z"/>
	<path class="st0" d="M429.7,277.9h-4.7c0-0.2,0-0.3-0.1-0.4c-0.1-1-0.4-1.6-0.8-1.8c-0.5-0.2-1.6-0.4-3.3-0.4
		c-2.5,0-3.8,0.8-3.8,2.4c0,1.1,0.2,1.8,0.7,2c0.4,0.2,1.9,0.4,4.5,0.5c3.4,0.2,5.7,0.6,6.7,1.4c1,0.7,1.6,2.3,1.6,4.5
		c0,2.4-0.7,4.1-2.1,5.1s-3.8,1.4-7.4,1.4c-3.4,0-5.8-0.4-7-1.3c-1.3-0.9-1.9-2.4-1.9-4.8v-0.5h5c-0.1,0.3-0.1,0.5-0.1,0.7
		c-0.2,1.8,1.2,2.7,4.1,2.7c3,0,4.5-0.9,4.5-2.6c0-1.7-0.9-2.5-2.8-2.5c-4.3,0-7.1-0.4-8.5-1.2c-1.4-0.8-2-2.5-2-5
		c0-2.3,0.6-3.8,1.9-4.7c1.2-0.8,3.6-1.2,7.2-1.2c3.3,0,5.6,0.4,6.7,1.2C429.2,274.1,429.7,275.6,429.7,277.9z"/>
	<path class="st0" d="M447.2,272.3v3.6h-7.7V286c0,1.9,0.7,2.8,2.1,2.8c1.6,0,2.3-1.1,2.3-3.4v-0.8h4.1v1c0,0.9,0,1.7-0.1,2.4
		c-0.3,3.1-2.5,4.6-6.8,4.6c-4.3,0-6.4-2-6.4-5.9V276h-2.6v-3.6h2.6v-4.5h4.8v4.5H447.2z"/>
	<path class="st0" d="M450.8,272.3h4.8l-0.3,2.8l0.1,0c1.1-2.1,2.9-3.1,5.4-3.1c3.5,0,5.3,2.2,5.3,6.7v1.4h-4.5
		c0.1-0.5,0.1-0.9,0.1-1.1c0-2.1-0.8-3.2-2.5-3.2c-2.4,0-3.6,1.6-3.6,4.8v11.8h-4.8V272.3z"/>
	<path class="st0" d="M486.5,272.3v20h-4.8l0.3-3.4l-0.1,0c-0.9,2.5-3.1,3.7-6.5,3.7c-4.5,0-6.8-2.3-6.8-6.8v-13.5h4.8v12.3
		c0,1.7,0.2,2.8,0.7,3.4c0.5,0.5,1.5,0.8,3,0.8c3.1,0,4.6-1.8,4.6-5.5v-10.9H486.5z"/>
	<path class="st0" d="M496.2,263.8v16.4h1.2l5.4-7.8h5.6l-7,9.4l8.4,10.6h-6l-6.5-8.9h-1.2v8.9h-4.8v-28.6H496.2z"/>
	<path class="st0" d="M524.9,272.3v3.6h-7.7V286c0,1.9,0.7,2.8,2.1,2.8c1.6,0,2.3-1.1,2.3-3.4v-0.8h4.1v1c0,0.9,0,1.7-0.1,2.4
		c-0.3,3.1-2.5,4.6-6.8,4.6c-4.3,0-6.4-2-6.4-5.9V276h-2.6v-3.6h2.6v-4.5h4.8v4.5H524.9z"/>
	<path class="st0" d="M546.2,272.3v20h-4.8l0.3-3.4l-0.1,0c-0.9,2.5-3.1,3.7-6.5,3.7c-4.5,0-6.8-2.3-6.8-6.8v-13.5h4.8v12.3
		c0,1.7,0.2,2.8,0.7,3.4c0.5,0.5,1.5,0.8,3,0.8c3.1,0,4.6-1.8,4.6-5.5v-10.9H546.2z"/>
	<path class="st0" d="M551.1,272.3h4.8l-0.3,2.8l0.1,0c1.1-2.1,2.9-3.1,5.4-3.1c3.5,0,5.3,2.2,5.3,6.7v1.4h-4.5
		c0.1-0.5,0.1-0.9,0.1-1.1c0-2.1-0.8-3.2-2.5-3.2c-2.4,0-3.6,1.6-3.6,4.8v11.8h-4.8V272.3z"/>
</g>
<g class="st1">
	<path class="st2" d="M569,452.2v-24.8h10h1.2c3.3,0,5.6,0.6,6.7,1.7c1.2,1.2,1.7,3.4,1.7,6.7c0,3.3-0.6,5.5-1.7,6.6
		c-1.1,1.1-3.3,1.6-6.7,1.6h-1.1h-5.5v8L569,452.2L569,452.2z M573.7,440.2h5.3c2.1,0,3.5-0.2,4-0.7c0.6-0.5,0.9-1.7,0.9-3.5
		c0-2.1-0.2-3.4-0.7-3.9c-0.5-0.5-1.7-0.7-3.7-0.7h-5.8L573.7,440.2L573.7,440.2z"/>
	<path class="st2" d="M606.9,434.8v17.3h-4.1l0.2-3H603c-0.8,2.1-2.7,3.2-5.6,3.2c-3.9,0-5.9-2-5.9-5.9v-11.7h4.1v10.6
		c0,1.5,0.2,2.5,0.6,2.9c0.4,0.5,1.2,0.7,2.5,0.7c2.7,0,4-1.6,4-4.8v-9.5H606.9z"/>
	<path class="st2" d="M611.1,434.8h4.2l-0.2,2.6h0.1c1-1.9,2.8-2.8,5.6-2.8c2.5,0,4.3,0.6,5.2,1.9c0.9,1.2,1.4,3.5,1.4,6.9
		c0,3.5-0.5,5.8-1.4,7.1c-0.9,1.3-2.7,1.9-5.3,1.9c-2.7,0-4.5-0.9-5.3-2.7h-0.1v10h-4.3L611.1,434.8L611.1,434.8z M619.4,437.9
		c-1.6,0-2.6,0.4-3.1,1.1c-0.5,0.7-0.7,2.2-0.7,4.5c0,2.2,0.2,3.7,0.8,4.5c0.5,0.7,1.5,1.1,3.2,1.1c1.6,0,2.7-0.4,3.2-1.1
		s0.7-2.2,0.7-4.5c0-2.4-0.2-3.9-0.7-4.6S621,437.9,619.4,437.9z"/>
	<path class="st2" d="M631,434.8h4.2l-0.2,2.6h0.1c1-1.9,2.8-2.8,5.6-2.8c2.5,0,4.3,0.6,5.2,1.9c0.9,1.2,1.4,3.5,1.4,6.9
		c0,3.5-0.5,5.8-1.4,7.1c-0.9,1.3-2.7,1.9-5.3,1.9c-2.7,0-4.5-0.9-5.3-2.7h-0.1v10h-4.3L631,434.8L631,434.8z M639.2,437.9
		c-1.6,0-2.6,0.4-3.1,1.1c-0.5,0.7-0.7,2.2-0.7,4.5c0,2.2,0.2,3.7,0.8,4.5s1.5,1.1,3.2,1.1s2.7-0.4,3.2-1.1s0.7-2.2,0.7-4.5
		c0-2.4-0.2-3.9-0.7-4.6S640.9,437.9,639.2,437.9z"/>
	<path class="st2" d="M662,446.6h4.1v0.7c0,3.4-2.5,5.1-7.6,5.1c-3.5,0-5.7-0.6-6.7-1.7c-1.1-1.2-1.6-3.7-1.6-7.4
		c0-3.3,0.6-5.6,1.7-6.8c1.1-1.2,3.3-1.7,6.5-1.7c3.1,0,5.1,0.6,6.2,1.7c1.1,1.1,1.5,3.3,1.5,6.7v1.3h-11.8c0,0.4-0.1,0.6-0.1,0.7
		c0,1.7,0.2,2.8,0.8,3.4c0.6,0.6,1.5,0.9,3.2,0.9c1.5,0,2.5-0.2,3-0.5C661.6,448.5,662,447.7,662,446.6z M662.1,441.6V441
		c0-1.4-0.2-2.3-0.7-2.7c-0.5-0.4-1.5-0.6-3.1-0.6c-1.5,0-2.5,0.2-3,0.7c-0.5,0.5-0.7,1.5-0.7,3.2
		C654.5,441.6,662.1,441.6,662.1,441.6z"/>
	<path class="st2" d="M680.9,434.8v3.2h-6.7v8.7c0,1.6,0.6,2.4,1.9,2.4c1.4,0,2-1,2-2.9v-0.7h3.5v0.9c0,0.8,0,1.5-0.1,2
		c-0.2,2.7-2.2,4-5.9,4c-3.7,0-5.6-1.7-5.6-5.1V438h-2.2v-3.2h2.2v-3.9h4.1v3.9L680.9,434.8L680.9,434.8z"/>
</g>
<g id="XMLID_91_">
	<path id="XMLID_92_" class="st2" d="M201.8,205.5c-2.8-1.2-4.1-2.7-4-5c0.1-2.7-1.4-4.7-2.2-5.5c0.4-1.7,1.7-7.6,0-12.6
		c-1.8-5.4-7.6-13.7-13.3-21.8c-2.4-3.3-2.6-6.9-2.7-11.2c-0.1-4-0.3-8.6-2.6-13.6c-2.4-5.5-7.3-8.7-13.3-8.7
		c-3.6,0-7.3,1.2-10.1,3.1c-5.9,4-5.1,12.8-4.6,18.6c0.1,0.8,0.1,1.5,0.1,2.2c0.4,5.6,0,8.7-0.4,9.6c-0.3,0.6-1.5,2.3-3,4.1
		c-1.4,1.9-3,4-4.4,5.9c-1.5,2.3-2.8,6-4.1,9.5c-0.9,2.6-1.8,5-2.6,6.4c-1.5,2.8-1.2,5.4-0.9,6.5c-0.6,0.4-1.4,1.2-2.2,2.7
		c-0.9,1.8-2.7,2.8-6.3,3.6c-1.7,0.4-2.8,1-3.5,2.1c-0.9,1.5-0.4,3.5,0,4.7c0.6,1.9,0.3,3.2-0.5,5.4c-0.1,0.5-0.4,1.2-0.5,1.8
		c-0.3,1-0.3,1.9,0.4,2.7c1.4,2.2,5.4,2.8,9.6,3.3c2.4,0.3,5.3,1.3,7.8,2.3c2.6,0.9,5.3,1.9,7.7,2.2c0.4,0,0.8,0.1,1,0.1
		c3.7,0,5.3-2.4,5.9-3.5c1.3-0.3,5.9-1.2,10.5-1.3c4.6-0.1,9.2,0.8,10.5,1c0.4,0.8,1.4,2.6,3.2,3.5c0.9,0.5,2.2,0.8,3.6,0.8l0,0
		c1.4,0,4.1-0.4,6.3-2.6c2.2-2.3,7.4-5.1,11.3-7.2c0.9-0.5,1.7-0.9,2.4-1.3c2.2-1.2,3.3-3,3.2-4.7
		C204.2,207.5,203.3,206.1,201.8,205.5z M153.5,205c-0.3-1.9-2.7-3.8-5.5-6c-2.3-1.8-5-3.8-5.6-5.5c-1.5-3.6-0.3-9.7,1.8-13
		c1-1.7,1.8-4.1,2.7-6.4c0.9-2.6,1.8-5.1,2.8-6.3c1.5-1.8,3.1-5.3,3.3-8.1c1.5,1.4,3.8,3.2,5.9,3.2c0.4,0,0.6,0,0.9-0.1
		c1.4-0.4,3.6-1.7,5.6-2.8c1.8-1,4-2.3,4.9-2.4c1.4,2.1,9.7,20.4,10.5,26.3c0.6,4.6,0,8.5-0.4,10c-0.3,0-0.6-0.1-1-0.1
		c-2.3,0-3,1.3-3.1,2.1c-0.4,1.9-0.5,8.2-0.5,9.6c-0.9,1-5,6-11.2,6.9c-2.4,0.4-4.7,0.5-6.8,0.5c-1.8,0-3-0.1-3.3-0.3l-3.1-3.5
		C152.6,208.5,153.9,207.3,153.5,205z M157.4,147.7c-0.1,0-0.1,0.1-0.3,0.1c0-0.3,0-0.4,0-0.6c-0.4-1.9-1.5-3.3-3.1-3.3
		c-0.1,0-0.3,0-0.4,0c-0.9,0.1-1.5,0.8-1.9,1.7c0.3-1.9,1.4-3.5,2.7-3.5c1.5,0,2.8,2.1,2.8,4.6C157.5,147.1,157.5,147.3,157.4,147.7
		z M169.4,149.1c0.1-0.5,0.3-0.9,0.3-1.4c0-2.3-1.4-4-3.2-4c-1.8,0-3.2,1.8-3.2,4c0,0.1,0,0.3,0,0.5c-0.1,0-0.1-0.1-0.3-0.1
		c-0.3-0.6-0.3-1.3-0.3-1.9c0-2.7,1.7-4.9,3.8-4.9c2.1,0,3.8,2.2,3.8,4.9C170.3,147.2,170.1,148.2,169.4,149.1z M167.9,154.4
		c0,0.1-0.1,0.3-0.8,0.5c-0.4,0.1-0.8,0.4-1.4,0.8l-0.4,0.3c-1.5,0.9-5,3.1-6,3.2c-0.6,0.1-1-0.1-1.9-0.8c-0.3-0.1-0.4-0.3-0.6-0.4
		c-1.7-1-2.7-2.3-2.8-2.7c0.5-0.4,1.8-1.4,2.6-2.1c1.4-1.3,2.7-2.2,3.5-2.2h0.1c0.8,0.1,2.8,0.9,4.2,1.5c0.6,0.3,1.3,0.5,1.7,0.6
		C167.3,153.6,167.9,154.1,167.9,154.4z M179.5,214c0.8-3.2,1.5-7.7,1.4-10.3c0-0.6-0.1-1.3-0.1-1.9c-0.1-1.2-0.3-3-0.1-3.5
		c0,0,0,0,0.1,0c0,1.5,0.4,4.5,2.7,5.5c0.8,0.3,1.5,0.5,2.4,0.5c2.4,0,5-1.2,6.2-2.3c0.6-0.6,1.2-1.4,1.5-2.1
		c0.1,0.3,0.1,0.5,0.1,0.9c-0.1,2.2,0.9,5.1,3,6.2l0.3,0.1c0.8,0.4,2.7,1.4,2.7,1.9c0,0,0,0-0.1,0.1c-0.5,0.4-2.2,1.3-3.8,2.2
		c-3,1.5-6.3,3.2-7.7,4.7c-2.1,2.2-4.5,3.7-5.9,3.7c-0.1,0-0.4,0-0.5-0.1C180.1,219.4,178.8,217.2,179.5,214z M126.6,205.7
		c-0.1-0.8-0.3-1.3-0.1-1.9c0.1-0.4,2.2-0.9,3.1-1c1.3-0.3,2.6-0.5,3.3-1c1.2-0.6,1.8-1.9,2.3-3.1c0.4-0.8,0.8-1.7,1.3-1.9h0.1
		c0.9,0,2.8,1.9,3.8,3.6c0.3,0.4,0.8,1.3,1.4,2.3c1.8,3,4.2,7.1,5.5,8.5c1.2,1.3,3,3.6,2.6,5.6c-0.4,1.5-2.1,2.8-2.6,3.1
		c-0.1,0-0.4,0-0.5,0c-2.4,0-7.3-2.1-9.9-3.1l-0.4-0.1c-1.4-0.6-3.8-1-6-1.4c-1.8-0.3-4.4-0.6-4.7-1s0-1.5,0.4-2.7
		c0.3-0.8,0.5-1.5,0.6-2.4C127,207.6,126.9,206.6,126.6,205.7z"/>
</g>
<rect x="309.7" y="306.3" class="st3" width="378" height="41.7"/>
<g>
	<path class="st2" d="M226.6,483.5v-40h19.7c4.6,0,7.7,0.7,9.4,2.2s2.5,4.3,2.5,8.3c0,4.9-2,7.9-5.9,8.7v0.1
		c4.6,0.7,6.9,3.9,6.9,9.5c0,4.1-0.9,6.9-2.6,8.6c-1.7,1.7-4.8,2.5-9.2,2.5h-20.8V483.5z M234.2,460.3h9.3c3,0,4.9-0.3,5.8-1
		c0.8-0.7,1.2-2.2,1.2-4.6c0-3.2-1.8-4.8-5.4-4.8h-10.9V460.3z M234.2,477.1h8.3l2.7-0.1c2.6,0,4.2-0.4,5.1-1.1
		c0.8-0.7,1.2-2.2,1.2-4.6s-0.4-3.9-1.3-4.6c-0.9-0.7-2.9-0.9-6.3-0.9h-9.7C234.2,465.8,234.2,477.1,234.2,477.1z"/>
	<path class="st2" d="M271.1,443.5v5.6h-6.7v-5.6H271.1z M271.1,455.4v28h-6.7v-28C264.4,455.4,271.1,455.4,271.1,455.4z"/>
	<path class="st2" d="M302.8,455.4v28.5c0,4.6-0.9,7.7-2.8,9.4c-1.9,1.7-5.2,2.5-10.2,2.5c-4.8,0-8-0.6-9.6-1.9
		c-1.6-1.3-2.4-3.8-2.4-7.6h6.5c0,1.8,0.3,3,1,3.5c0.7,0.5,2.2,0.8,4.6,0.8c4.2,0,6.2-1.7,6.2-5.2v-6.3H296c-1.2,3-3.9,4.5-8.2,4.5
		c-4.2,0-7.1-1-8.7-3.1c-1.6-2.1-2.3-5.9-2.3-11.5c0-5.3,0.8-8.9,2.3-10.9s4.4-3,8.5-3c4.5,0,7.4,1.7,8.8,5h0.1l-0.3-4.6h6.6V455.4z
		 M289.6,460.4c-2.6,0-4.2,0.5-5,1.6c-0.8,1.1-1.1,3.4-1.1,7.1c0,3.9,0.4,6.5,1.1,7.6s2.4,1.6,5.1,1.6s4.3-0.6,5.1-1.7
		c0.8-1.1,1.2-3.6,1.2-7.5c0-3.7-0.4-6.1-1.2-7.1C294,461,292.3,460.4,289.6,460.4z"/>
	<path class="st2" d="M324.6,483.5v-40h19.7c5.6,0,9.5,1.2,11.7,3.7c2.2,2.4,3.4,6.7,3.4,12.8c0,10-0.9,16.4-2.7,19.2
		c-1.8,2.8-5.8,4.3-12.2,4.3C344.5,483.5,324.6,483.5,324.6,483.5z M332.2,477.1H343c3.6,0,6-0.8,7-2.5c1.1-1.7,1.6-5.4,1.6-11.1
		c0-5.9-0.5-9.6-1.4-11.2c-1-1.6-3.2-2.4-6.7-2.4h-11.3L332.2,477.1L332.2,477.1z"/>
	<path class="st2" d="M371.6,463.6h-6.9c0-3.4,0.8-5.6,2.3-6.7c1.6-1.1,4.7-1.7,9.3-1.7c5,0,8.4,0.7,10.2,2.1c1.8,1.4,2.7,4,2.7,7.9
		v18.3h-6.7l0.3-3.8h-0.2c-1.3,2.8-4.3,4.2-8.9,4.2c-6.8,0-10.2-2.9-10.2-8.6c0-5.8,3.5-8.7,10.4-8.7c4.6,0,7.4,1.1,8.4,3.2h0.1
		v-4.7c0-2.2-0.4-3.6-1.1-4.4c-0.7-0.8-2.3-1.1-4.7-1.1C373.3,459.6,371.6,460.9,371.6,463.6z M376.1,470.9c-3.8,0-5.7,1.3-5.7,3.9
		c0,1.8,0.4,3,1.2,3.6c0.8,0.6,2.4,0.8,4.9,0.8c4.1,0,6.1-1.4,6.1-4.1C382.6,472.3,380.5,470.9,376.1,470.9z"/>
	<path class="st2" d="M414,455.4v5.1h-10.7v14.1c0,2.6,1,3.9,3,3.9c2.2,0,3.3-1.6,3.3-4.7v-1.1h5.7v1.4c0,1.3,0,2.4-0.1,3.3
		c-0.4,4.3-3.6,6.4-9.6,6.4s-9-2.7-9-8.2v-15H393v-5.1h3.6v-6.3h6.7v6.3H414V455.4z"/>
	<path class="st2" d="M425.8,463.6h-6.9c0-3.4,0.8-5.6,2.3-6.7c1.6-1.1,4.7-1.7,9.3-1.7c5,0,8.4,0.7,10.2,2.1s2.7,4,2.7,7.9v18.3
		h-6.7l0.3-3.8h-0.2c-1.3,2.8-4.3,4.2-8.9,4.2c-6.8,0-10.2-2.9-10.2-8.6c0-5.8,3.5-8.7,10.4-8.7c4.6,0,7.4,1.1,8.4,3.2h0.1v-4.7
		c0-2.2-0.4-3.6-1.1-4.4c-0.7-0.8-2.3-1.1-4.7-1.1C427.6,459.6,425.8,460.9,425.8,463.6z M430.3,470.9c-3.8,0-5.7,1.3-5.7,3.9
		c0,1.8,0.4,3,1.2,3.6s2.4,0.8,4.9,0.8c4.1,0,6.1-1.4,6.1-4.1C436.9,472.3,434.7,470.9,430.3,470.9z"/>
</g>
<g id="layer1" transform="translate(-446.85715,-442.59426)">
	<g id="g53688" transform="matrix(1.3796296,0,0,-1.3796296,745.85714,492.3076)">
		<path id="path53690" class="st2" d="M411.3-175.2c0,1.4-1.1,2.6-2.6,2.6c-1.4,0-2.6-1.1-2.6-2.6v-5.4c0-1.4,1.1-2.6,2.6-2.6
			c1.4,0,2.6,1.1,2.6,2.6V-175.2z M397.2-168.1c0,1.4-1.1,2.6-2.6,2.6c-1.4,0-2.6-1.1-2.6-2.6v-12.5c0-1.4,1.1-2.6,2.6-2.6
			c1.4,0,2.6,1.1,2.6,2.6C397.2-180.6,397.2-168.1,397.2-168.1z M383.1-158.5c0,1.4-1.1,2.6-2.6,2.6c-1.4,0-2.6-1.1-2.6-2.6v-27.2
			c0-1.4,1.1-2.6,2.6-2.6c1.4,0,2.6,1.1,2.6,2.6V-158.5z M369-168.1c0,1.4-1.1,2.6-2.6,2.6c-1.4,0-2.6-1.1-2.6-2.6v-12.5
			c0-1.4,1.1-2.6,2.6-2.6c1.4,0,2.6,1.1,2.6,2.6V-168.1z M354.9-175.2c0,1.4-1.1,2.6-2.5,2.6s-2.6-1.1-2.6-2.6v-5.4
			c0-1.4,1.2-2.6,2.6-2.6s2.5,1.1,2.5,2.6V-175.2z M340.8-168.1c0,1.4-1.2,2.6-2.6,2.6c-1.4,0-2.6-1.1-2.6-2.6v-12.5
			c0-1.4,1.2-2.6,2.6-2.6c1.4,0,2.6,1.1,2.6,2.6V-168.1z M326.7-158.5c0,1.4-1.2,2.6-2.6,2.6s-2.6-1.1-2.6-2.6v-27.2
			c0-1.4,1.2-2.6,2.6-2.6s2.6,1.1,2.6,2.6V-158.5z M312.6-168.1c0,1.4-1.2,2.6-2.6,2.6s-2.6-1.1-2.6-2.6v-12.5
			c0-1.4,1.2-2.6,2.6-2.6s2.6,1.1,2.6,2.6V-168.1z M298.5-175.2c0,1.4-1.2,2.6-2.6,2.6c-1.4,0-2.6-1.1-2.6-2.6v-5.4
			c0-1.4,1.2-2.6,2.6-2.6s2.6,1.1,2.6,2.6V-175.2L298.5-175.2z M351.5-197.5c-0.2,0-2.5,0.7-5,0.7c-4.8,0-7.6-2.6-7.6-6.4
			c0-3.4,2.4-5.1,5.3-6c0.3-0.1,0.8-0.3,1.1-0.4c1.3-0.4,2.3-1,2.3-2c0-1.2-1.2-1.9-3.8-1.9c-2.3,0-4.4,0.6-4.9,0.8v-4.7
			c0.3-0.1,2.8-0.6,5.6-0.6c4,0,8.5,1.7,8.5,6.9c0,2.5-1.5,4.8-4.9,5.9l-1.4,0.5c-0.9,0.3-2.4,0.7-2.4,2c0,1,1.1,1.7,3.2,1.7
			c1.8,0,4-0.6,4-0.6L351.5-197.5L351.5-197.5z M395.2-207.4c0-3-2.3-5.4-5.3-5.4c-3.1,0-5.3,2.4-5.3,5.4s2.3,5.4,5.3,5.4
			C392.9-202,395.2-204.4,395.2-207.4 M389.8-196.8c-6.3,0-10.8-4.8-10.8-10.6c0-5.9,4.5-10.6,10.8-10.6c6.3,0,10.8,4.7,10.8,10.6
			C400.6-201.6,396.1-196.8,389.8-196.8 M319.6-197.6c-0.5,0.1-2.3,0.7-4.7,0.7c-6.3,0-10.9-4.5-10.9-10.6c0-6.6,5.1-10.6,10.9-10.6
			c2.3,0,4.1,0.5,4.7,0.7v5.5c-0.2-0.1-1.9-1.1-4.3-1.1c-3.4,0-5.7,2.4-5.7,5.5s2.3,5.5,5.7,5.5c2.5,0,4.1-1,4.3-1.1V-197.6z
			 M373.6-197.6c-0.5,0.1-2.3,0.7-4.7,0.7c-6.3,0-10.9-4.5-10.9-10.6c0-6.6,5.1-10.6,10.9-10.6c2.3,0,4.1,0.5,4.7,0.7v5.5
			c-0.2-0.1-1.9-1.1-4.3-1.1c-3.4,0-5.7,2.4-5.7,5.5s2.3,5.5,5.7,5.5c2.5,0,4.1-1,4.3-1.1V-197.6z M331.9-217.7h-5.2v20.5h5.2
			V-217.7z"/>
	</g>
</g>
<rect x="225.7" y="215.3" class="st3" width="378" height="41.7"/>
<g>
	<path class="st2" d="M552.6,182.3v10.3h18.8v5.6h-18.8v11.3h20v6.4H545v-40h27.4v6.4C572.4,182.3,552.6,182.3,552.6,182.3z"/>
	<path class="st2" d="M584.7,175.9v40H578v-40C578,175.9,584.7,175.9,584.7,175.9z"/>
	<path class="st2" d="M598.3,196h-6.9c0-3.4,0.8-5.6,2.3-6.7c1.6-1.1,4.7-1.7,9.3-1.7c5,0,8.4,0.7,10.2,2.1c1.8,1.4,2.7,4,2.7,7.9
		v18.3h-6.7l0.3-3.8h-0.2c-1.3,2.8-4.3,4.2-8.9,4.2c-6.8,0-10.2-2.9-10.2-8.6c0-5.8,3.5-8.7,10.4-8.7c4.6,0,7.4,1.1,8.4,3.2h0.1
		v-4.7c0-2.2-0.4-3.6-1.1-4.4c-0.7-0.8-2.3-1.1-4.7-1.1C600,192,598.3,193.3,598.3,196z M602.8,203.3c-3.8,0-5.7,1.3-5.7,3.9
		c0,1.8,0.4,3,1.2,3.6c0.8,0.6,2.4,0.8,4.9,0.8c4.1,0,6.1-1.4,6.1-4.1C609.3,204.7,607.1,203.3,602.8,203.3z"/>
	<path class="st2" d="M646,195.6h-6.6c0-0.2-0.1-0.4-0.1-0.5c-0.1-1.3-0.5-2.2-1.2-2.5c-0.6-0.3-2.2-0.5-4.6-0.5
		c-3.5,0-5.2,1.1-5.2,3.4c0,1.5,0.3,2.5,0.9,2.8c0.6,0.3,2.7,0.5,6.3,0.7c4.8,0.2,7.9,0.9,9.3,1.9c1.4,1,2.2,3.2,2.2,6.4
		c0,3.4-1,5.8-2.9,7.1c-1.9,1.3-5.4,2-10.4,2c-4.8,0-8.1-0.6-9.8-1.8c-1.7-1.2-2.6-3.4-2.6-6.7v-0.7h7c-0.1,0.4-0.2,0.7-0.2,0.9
		c-0.3,2.5,1.6,3.7,5.7,3.7c4.2,0,6.4-1.2,6.4-3.7c0-2.4-1.3-3.5-4-3.5c-6,0-9.9-0.6-11.9-1.7s-2.9-3.5-2.9-7.1
		c0-3.2,0.9-5.4,2.6-6.5c1.7-1.1,5.1-1.7,10-1.7c4.7,0,7.8,0.5,9.4,1.6C645,190.3,646,192.4,646,195.6z"/>
	<path class="st2" d="M670.4,187.8v5.1h-10.8V207c0,2.6,1,3.9,3,3.9c2.2,0,3.3-1.6,3.3-4.7v-1.1h5.7v1.4c0,1.3,0,2.4-0.1,3.3
		c-0.4,4.3-3.6,6.4-9.6,6.4s-9-2.7-9-8.2v-15h-3.6v-5.1h3.6v-6.3h6.7v6.3L670.4,187.8L670.4,187.8z"/>
	<path class="st2" d="M681.9,175.9v5.6h-6.7v-5.6H681.9z M681.9,187.8v28h-6.7v-28C675.2,187.8,681.9,187.8,681.9,187.8z"/>
	<path class="st2" d="M706.3,205.2h6.7v1l-0.4,4.2c-0.8,3.9-4.8,5.8-12,5.8c-5.3,0-8.8-1-10.5-2.9c-1.7-1.9-2.6-5.7-2.6-11.5
		c0-5.6,0.9-9.4,2.6-11.4s5.1-2.9,10.1-2.9c4.8,0,8.1,0.7,9.8,2.1c1.7,1.4,2.6,4.1,2.6,8.1h-6.7c0-3.3-1.9-4.9-5.7-4.9
		c-2.7,0-4.4,0.5-5,1.6c-0.7,1-1,3.6-1,7.6c0,3.9,0.4,6.4,1.1,7.4c0.8,1,2.6,1.5,5.5,1.5c2.3,0,3.8-0.3,4.4-1
		C706,209.1,706.3,207.6,706.3,205.2z"/>
	<path class="st2" d="M714.6,197.2H728v6.4h-13.4V197.2z"/>
	<path class="st2" d="M761.2,187.5h-7.4c0-0.4-0.1-0.6-0.1-0.8c-0.2-2.2-0.7-3.7-1.5-4.2s-2.8-0.9-5.8-0.9c-3.6,0-5.9,0.3-7,1
		c-1.1,0.7-1.7,2.1-1.7,4.2c0,2.5,0.4,4,1.3,4.5c0.9,0.5,3.9,0.9,8.9,1.2c6,0.3,9.8,1.2,11.6,2.5c1.8,1.3,2.6,4.2,2.6,8.5
		c0,5.3-1,8.7-3.1,10.3c-2.1,1.6-6.6,2.3-13.6,2.3c-6.3,0-10.5-0.8-12.5-2.3c-2.1-1.5-3.1-4.6-3.1-9.3V203h7.4v0.8
		c0,2.8,0.5,4.5,1.5,5.1c1,0.6,3.6,0.9,8,0.9c3.4,0,5.6-0.4,6.5-1.1c0.9-0.7,1.4-2.4,1.4-5c0-1.9-0.4-3.2-1.1-3.9s-2.3-1-4.6-1.2
		l-4.2-0.3c-6.3-0.4-10.4-1.2-12.1-2.6c-1.7-1.4-2.6-4.4-2.6-8.9c0-4.7,1.1-7.8,3.2-9.3c2.1-1.6,6.4-2.3,12.7-2.3
		c6,0,10.1,0.7,12.2,2.1c2.1,1.4,3.1,4.2,3.1,8.3L761.2,187.5L761.2,187.5z"/>
	<path class="st2" d="M785.3,187.8v5.1h-10.8V207c0,2.6,1,3.9,3,3.9c2.2,0,3.3-1.6,3.3-4.7v-1.1h5.7v1.4c0,1.3,0,2.4-0.1,3.3
		c-0.4,4.3-3.6,6.4-9.6,6.4s-9-2.7-9-8.2v-15h-3.6v-5.1h3.6v-6.3h6.7v6.3L785.3,187.8L785.3,187.8z"/>
	<path class="st2" d="M797.1,196h-6.9c0-3.4,0.8-5.6,2.3-6.7s4.7-1.7,9.3-1.7c5,0,8.4,0.7,10.2,2.1c1.8,1.4,2.7,4,2.7,7.9v18.3H808
		l0.3-3.8h-0.2c-1.3,2.8-4.3,4.2-8.9,4.2c-6.8,0-10.2-2.9-10.2-8.6c0-5.8,3.5-8.7,10.4-8.7c4.6,0,7.4,1.1,8.4,3.2h0.1v-4.7
		c0-2.2-0.4-3.6-1.1-4.4s-2.3-1.1-4.7-1.1C798.8,192,797.1,193.3,797.1,196z M801.6,203.3c-3.8,0-5.7,1.3-5.7,3.9
		c0,1.8,0.4,3,1.2,3.6c0.8,0.6,2.4,0.8,4.9,0.8c4.1,0,6.1-1.4,6.1-4.1C808.2,204.7,806,203.3,801.6,203.3z"/>
	<path class="st2" d="M839.3,205.2h6.7v1l-0.4,4.2c-0.8,3.9-4.8,5.8-12,5.8c-5.3,0-8.8-1-10.5-2.9c-1.7-1.9-2.6-5.7-2.6-11.5
		c0-5.6,0.9-9.4,2.6-11.4s5.1-2.9,10.1-2.9c4.8,0,8.1,0.7,9.8,2.1c1.7,1.4,2.6,4.1,2.6,8.1h-6.7c0-3.3-1.9-4.9-5.7-4.9
		c-2.7,0-4.4,0.5-5,1.6c-0.6,1.1-1,3.6-1,7.6c0,3.9,0.4,6.4,1.1,7.4s2.6,1.5,5.5,1.5c2.3,0,3.8-0.3,4.4-1
		C838.8,209.2,839.3,207.6,839.3,205.2z"/>
	<path class="st2" d="M857.6,175.9v22.9h1.7l7.6-10.9h7.8l-9.8,13.2l11.8,14.8h-8.3l-9.1-12.4h-1.6v12.4H851v-40
		C851,175.9,857.6,175.9,857.6,175.9z"/>
</g>
<g>
	<path class="st2" d="M282.4,175v-59.5h29.3c7.3,0,12.3,1.2,15,3.7c2.8,2.5,4.2,7.1,4.2,13.7c0,5.9-0.7,10.1-2.1,12.3
		c-1.3,2.2-4.2,3.7-8.5,4.6v0.4c6.5,0.4,10,4.3,10,11.6V175H319v-10.9c0-6.1-3-9.2-9.1-9.2h-16.2V175H282.4z M293.6,145.4h16.2
		c3.9,0,6.4-0.7,7.7-2.1c1.2-1.3,1.9-4.2,1.9-8.3c0-4.3-0.6-7-1.6-8.2c-1-1.2-3.4-1.8-7.1-1.8h-17v20.4H293.6z"/>
	<path class="st2" d="M375.8,163.5h-25.7l-3.7,11.4h-11.9l19.8-59.5h17l20.1,59.5h-11.7L375.8,163.5z M373.3,155.2L363,124.3
		l-10.1,30.9H373.3z"/>
	<path class="st2" d="M433.2,153.7h11.3v2.1c0,8.3-1.5,13.7-4.5,16.1s-9.7,3.6-20.1,3.6c-11.7,0-18.9-1.9-21.7-5.8
		c-2.8-3.9-4-14.1-4-30.8c0-9.8,1.8-16.2,5.5-19.3s11.3-4.6,22.9-4.6c8.5,0,14.1,1.3,17,3.9c2.8,2.5,4.3,7.6,4.3,15.2v1.3h-11.3
		v-1.5c0-3.9-0.7-6.4-2.2-7.4c-1.5-1-4.8-1.6-10.1-1.6c-7,0-11.2,0.9-12.6,2.5c-1.3,1.8-2.1,6.8-2.1,15.3c0,11.4,0.6,18.1,1.9,20.2
		c1.3,2.1,5.4,3.1,12.2,3.1c5.7,0,9.2-0.6,10.9-1.8c1.6-1.2,2.5-3.7,2.5-7.7L433.2,153.7z"/>
</g>
<g>
	<path class="st2" d="M137.2,345.4c5.6,0,9.1,0.9,10.8,2.8c1.6,1.8,2.4,6,2.4,12.5c0,7.1-0.8,11.5-2.4,13.3
		c-1.6,1.8-5.5,2.8-11.7,2.8c-5.6,0-9.2-0.9-10.8-2.7c-1.6-1.8-2.5-5.8-2.5-11.9c0-7.3,0.8-11.9,2.4-13.8
		C127,346.4,130.9,345.4,137.2,345.4z M136.8,350.4c-3.9,0-6.2,0.5-6.8,1.5c-0.7,1-1,4.5-1,10.5c0,4.4,0.4,7.1,1.2,8
		c0.8,0.9,3.1,1.4,6.8,1.4c3.6,0,5.8-0.5,6.5-1.5s1.1-4.1,1.1-9.2c0-5.2-0.3-8.2-1-9.1C142.8,350.9,140.5,350.4,136.8,350.4z"/>
	<path class="st2" d="M154.3,354.9h5.2l-0.3,3h0.1c1.2-2.2,3.2-3.4,5.8-3.4c3.8,0,5.7,2.4,5.7,7.1v1.5h-4.8c0.1-0.6,0.1-1,0.1-1.2
		c0-2.3-0.9-3.5-2.7-3.5c-2.5,0-3.8,1.7-3.8,5.2v12.7h-5.2L154.3,354.9L154.3,354.9z"/>
	<path class="st2" d="M179,361.2h-5.2c0-2.6,0.6-4.3,1.8-5.2c1.2-0.8,3.6-1.3,7.1-1.3c3.8,0,6.5,0.5,7.8,1.6s2.1,3.1,2.1,6.1v14.1
		h-5.2l0.2-2.9h-0.2c-1,2.2-3.3,3.2-6.8,3.2c-5.2,0-7.8-2.2-7.8-6.6c0-4.5,2.7-6.7,8-6.7c3.5,0,5.7,0.8,6.5,2.5h0.1v-3.6
		c0-1.7-0.3-2.8-0.8-3.4c-0.5-0.6-1.8-0.8-3.6-0.8C180.3,358.1,179,359.1,179,361.2z M182.4,366.8c-2.9,0-4.4,1-4.4,3
		c0,1.4,0.3,2.3,0.9,2.8c0.6,0.5,1.8,0.6,3.8,0.6c3.2,0,4.7-1.1,4.7-3.2C187.4,367.9,185.8,366.8,182.4,366.8z"/>
	<path class="st2" d="M211.4,368.3h5.2v0.8l-0.3,3.2c-0.6,3-3.7,4.5-9.2,4.5c-4.1,0-6.8-0.8-8.1-2.2s-2-4.4-2-8.8
		c0-4.3,0.7-7.2,2-8.8c1.3-1.5,3.9-2.2,7.8-2.2c3.7,0,6.2,0.5,7.5,1.6c1.3,1.1,2,3.2,2,6.2h-5.2c0-2.5-1.5-3.8-4.4-3.8
		c-2.1,0-3.4,0.4-3.8,1.2c-0.5,0.8-0.8,2.8-0.8,5.8c0,3,0.3,4.9,0.8,5.7c0.5,0.8,2,1.2,4.2,1.2c1.8,0,2.9-0.2,3.4-0.8
		C211,371.3,211.4,370.1,211.4,368.3z"/>
	<path class="st2" d="M225.5,345.7v30.7h-5.2v-30.7C220.3,345.7,225.5,345.7,225.5,345.7z"/>
	<path class="st2" d="M244.4,369.6h5.2v0.8c0,4.2-3.2,6.3-9.5,6.3c-4.3,0-7.1-0.7-8.4-2.2c-1.3-1.5-2-4.5-2-9.2c0-4.2,0.7-7,2.1-8.5
		c1.4-1.5,4.1-2.2,8.1-2.2c3.8,0,6.4,0.7,7.7,2.1s1.9,4.2,1.9,8.3v1.6h-14.6c0,0.5-0.1,0.8-0.1,0.9c0,2.2,0.3,3.5,1,4.2
		c0.7,0.7,1.9,1.1,3.9,1.1c1.9,0,3.2-0.2,3.7-0.6S244.4,371,244.4,369.6z M244.4,363.4v-0.8c0-1.7-0.3-2.8-0.9-3.3
		c-0.6-0.5-1.8-0.8-3.8-0.8c-1.9,0-3.2,0.3-3.8,0.9c-0.6,0.6-0.8,1.9-0.8,4C235.1,363.4,244.4,363.4,244.4,363.4z"/>
</g>
<rect x="335.7" y="349.2" class="st3" width="289.6" height="31.9"/>
<g>
	<path class="st2" d="M372.9,349.2v12.5h2.8l10.2-12.5h7.2l-12.3,14.9l13.6,15.8H387l-11.2-13.3H373v13.3h-5.8v-30.6L372.9,349.2
		L372.9,349.2z"/>
	<path class="st2" d="M415.7,358.3v21.5h-5.1l0.3-3.7h-0.1c-1,2.6-3.3,4-6.9,4c-4.8,0-7.3-2.5-7.3-7.3v-14.5h5.1v13.2
		c0,1.8,0.2,3.1,0.8,3.6c0.5,0.6,1.5,0.8,3.1,0.8c3.3,0,4.9-2,4.9-5.9v-11.7H415.7z"/>
	<path class="st2" d="M420.9,379.9v-30.6h5.1v12.3l0.1,0.1c0.9-2.2,3.1-3.4,6.7-3.4c3.1,0,5.2,0.8,6.4,2.2s1.7,4.3,1.7,8.4
		c0,4.4-0.6,7.4-1.8,9c-1.1,1.5-3.4,2.4-6.7,2.4c-3.4,0-5.5-1.2-6.6-3.6h-0.1l0.2,3.4L420.9,379.9L420.9,379.9z M431.1,362.2
		c-3.4,0-5,2.1-5,6.2c0,3.2,0.3,5.4,0.8,6.3c0.5,0.9,1.8,1.4,3.8,1.4c2.1,0,3.4-0.5,4-1.3c0.5-0.8,0.8-2.8,0.8-5.8
		c0-2.8-0.3-4.7-0.8-5.5C434.2,362.6,433,362.2,431.1,362.2z"/>
	<path class="st2" d="M459,373h5.1v0.8c0,4.2-3.1,6.3-9.4,6.3c-4.3,0-7-0.7-8.4-2.1s-2-4.5-2-9.2c0-4.1,0.7-7,2.1-8.4
		c1.4-1.5,4.1-2.1,8-2.1c3.8,0,6.4,0.7,7.7,2.1c1.3,1.4,1.9,4.1,1.9,8.3v1.6h-14.6c0,0.5-0.1,0.8-0.1,0.9c0,2.1,0.3,3.5,1,4.2
		c0.7,0.7,1.9,1.1,3.9,1.1c1.9,0,3.1-0.2,3.7-0.6C458.7,375.2,459,374.4,459,373z M459,366.9V366c0-1.7-0.3-2.8-0.9-3.3
		c-0.6-0.5-1.8-0.8-3.8-0.8c-1.9,0-3.1,0.3-3.8,0.9c-0.6,0.6-0.8,1.9-0.8,4C449.7,366.9,459,366.9,459,366.9z"/>
	<path class="st2" d="M468.6,358.3h5.1l-0.3,3h0.1c1.2-2.2,3.1-3.4,5.8-3.4c3.8,0,5.7,2.4,5.7,7.1v1.5h-4.8c0.1-0.6,0.1-1,0.1-1.1
		c0-2.3-0.9-3.4-2.7-3.4c-2.5,0-3.8,1.7-3.8,5.1v12.6h-5.1L468.6,358.3L468.6,358.3z"/>
	<path class="st2" d="M487.9,358.3h5.1l-0.2,3.6h0.1c1-2.6,3.2-3.9,6.7-3.9c5.1,0,7.6,2.4,7.6,7.1v14.6H502v-12.9v-0.8l-0.1-1.5
		c-0.2-1.6-1.5-2.4-3.8-2.4c-3.4,0-5.2,1.6-5.2,4.9v12.7h-5.1V358.3z"/>
	<path class="st2" d="M526,373h5.1v0.8c0,4.2-3.1,6.3-9.4,6.3c-4.3,0-7-0.7-8.4-2.1s-2-4.5-2-9.2c0-4.1,0.7-7,2.1-8.4s4.1-2.1,8-2.1
		c3.8,0,6.4,0.7,7.7,2.1c1.3,1.4,1.9,4.1,1.9,8.3v1.6h-14.6c0,0.5-0.1,0.8-0.1,0.9c0,2.1,0.3,3.5,1,4.2c0.7,0.7,1.9,1.1,3.9,1.1
		c1.9,0,3.1-0.2,3.7-0.6C525.5,375.4,526,374.4,526,373z M526.1,366.9V366c0-1.7-0.3-2.8-0.9-3.3s-1.8-0.8-3.8-0.8
		c-1.9,0-3.1,0.3-3.8,0.9s-0.8,1.9-0.8,4C516.7,366.9,526.1,366.9,526.1,366.9z"/>
	<path class="st2" d="M549.3,358.3v3.9H541v10.8c0,2,0.8,3,2.3,3c1.7,0,2.5-1.2,2.5-3.6v-0.8h4.4v1.1c0,1,0,1.8-0.1,2.5
		c-0.3,3.3-2.8,4.9-7.4,4.9c-4.6,0-6.9-2.1-6.9-6.3v-11.5h-2.8v-3.9h2.8v-4.8h5.1v4.8L549.3,358.3L549.3,358.3z"/>
	<path class="st2" d="M566.8,373h5.1v0.8c0,4.2-3.1,6.3-9.4,6.3c-4.3,0-7-0.7-8.4-2.1s-2-4.5-2-9.2c0-4.1,0.7-7,2.1-8.4
		c1.4-1.5,4.1-2.1,8-2.1c3.8,0,6.4,0.7,7.7,2.1c1.3,1.4,1.9,4.1,1.9,8.3v1.6h-14.6c0,0.5-0.1,0.8-0.1,0.9c0,2.1,0.3,3.5,1,4.2
		c0.7,0.7,1.9,1.1,3.9,1.1c1.9,0,3.1-0.2,3.7-0.6S566.8,374.4,566.8,373z M566.9,366.9V366c0-1.7-0.3-2.8-0.9-3.3s-1.8-0.8-3.8-0.8
		c-1.9,0-3.1,0.3-3.8,0.9c-0.6,0.6-0.8,1.9-0.8,4C557.6,366.9,566.9,366.9,566.9,366.9z"/>
	<path class="st2" d="M594.2,364.3h-5.1c0-0.2-0.1-0.3-0.1-0.4c-0.1-1-0.4-1.7-0.9-1.9c-0.5-0.2-1.7-0.4-3.5-0.4c-2.7,0-4,0.8-4,2.6
		c0,1.1,0.2,1.9,0.7,2.1c0.5,0.2,2.1,0.4,4.8,0.5c3.7,0.2,6.1,0.7,7.1,1.5s1.7,2.5,1.7,4.9c0,2.6-0.8,4.4-2.2,5.4
		c-1.5,1-4.1,1.5-8,1.5c-3.7,0-6.2-0.5-7.5-1.4s-2-2.6-2-5.1v-0.5h5.4c-0.1,0.3-0.2,0.5-0.2,0.7c-0.2,1.9,1.2,2.8,4.4,2.8
		c3.2,0,4.9-0.9,4.9-2.8c0-1.8-1-2.7-3.1-2.7c-4.6,0-7.6-0.5-9.1-1.3c-1.5-0.8-2.2-2.7-2.2-5.4c0-2.5,0.7-4.1,2-5
		c1.3-0.8,3.9-1.3,7.7-1.3c3.6,0,6,0.4,7.2,1.2S594.2,361.9,594.2,364.3z"/>
</g>
</svg>
